<?xml version="1.0" encoding="utf-8"?>
<!-- Generator: Adobe Illustrator 26.3.1, SVG Export Plug-In . SVG Version: 6.00 Build 0)  -->
<!DOCTYPE svg PUBLIC "-//W3C//DTD SVG 1.1//EN" "http://www.w3.org/Graphics/SVG/1.1/DTD/svg11.dtd" [
	<!ENTITY st0 "fill:#FFB7D5;">
	<!ENTITY st1 "fill:#CA7358;">
	<!ENTITY st2 "fill:none;stroke:#FFB7D5;stroke-width:4;stroke-linecap:round;stroke-linejoin:round;">
	<!ENTITY st3 "fill:#F5EBDD;">
	<!ENTITY st4 "fill:#30242A;">
	<!ENTITY st5 "fill:#FFBE21;">
	<!ENTITY st6 "fill:#A15842;">
	<!ENTITY st7 "fill:none;stroke:#A15842;stroke-width:4;stroke-linecap:round;stroke-miterlimit:10;">
	<!ENTITY st8 "fill:none;stroke:#30242A;stroke-width:4;stroke-linecap:round;stroke-linejoin:round;">
	<!ENTITY st9 "fill:none;stroke:#A15842;stroke-width:4;stroke-miterlimit:10;">
	<!ENTITY st10 "fill:#4856DF;">
	<!ENTITY st11 "fill:#3EC1F3;">
	<!ENTITY st12 "fill:#4756DF;">
	<!ENTITY st13 "clip-path:url(#SVGID_00000059281077651114050730000004329002188778978188_);">
	<!ENTITY st14 "fill:none;">
	<!ENTITY st15 "fill:none;stroke:#30242A;stroke-width:8;stroke-linecap:round;stroke-linejoin:round;">
	<!ENTITY st16 "fill:none;stroke:#000000;stroke-width:4;stroke-linecap:round;stroke-miterlimit:10;">
	<!ENTITY st17 "fill:#F4E6D8;">
	<!ENTITY st18 "fill:none;stroke:#F5EBDD;stroke-width:4;stroke-linecap:round;stroke-linejoin:round;">
	<!ENTITY st19 "fill:none;stroke:#30242A;stroke-width:4;stroke-linecap:round;stroke-miterlimit:10;">
]>
<svg version="1.1" id="Layer_1" xmlns="http://www.w3.org/2000/svg" xmlns:xlink="http://www.w3.org/1999/xlink" x="0px" y="0px"
	 viewBox="0 0 1600 1200" style="enable-background:new 0 0 1600 1200;" xml:space="preserve">
<g id="Layer_6">
	<path style="&st0;" d="M835,163.9h11.5c90.7,0,164.3,73.6,164.3,164.3v313.5l0,0H670.6l0,0V328.2
		C670.6,237.5,744.2,163.9,835,163.9C835,163.9,835,163.9,835,163.9z"/>
	<path style="&st1;" d="M902.5,453v193.6H751.5V453H902.5 M906.5,449H747.5v201.6h158.9V449z"/>
	<rect x="747.5" y="449" style="&st1;" width="158.9" height="41.7"/>
	<path style="&st1;" d="M746.7,348.3v299.2h-90.8V348.3H746.7 M750.7,344.3h-98.8v307.2h98.8V344.3z"/>
	<path style="&st1;" d="M1027.2,287.8v358.8H907.3V287.8H1027.2 M1031.2,283.8H903.3v366.8h127.9V283.8z"/>
	<path style="&st1;" d="M955.3,332.7h1.2c9,0,16.4,7.3,16.4,16.4l0,0V386l0,0h-33.9l0,0v-36.9C938.9,340,946.3,332.7,955.3,332.7
		C955.3,332.7,955.3,332.7,955.3,332.7z"/>
	<line style="&st2;" x1="935.1" y1="361.8" x2="976.7" y2="361.8"/>
	<path style="&st3;" d="M955.3,428.3h1.2c9,0,16.4,7.3,16.4,16.4l0,0v36.9l0,0h-33.9l0,0v-36.9C938.9,435.7,946.3,428.3,955.3,428.3
		C955.3,428.3,955.3,428.3,955.3,428.3z"/>
	<line style="&st2;" x1="935.1" y1="457.4" x2="976.7" y2="457.4"/>
	<path style="&st3;" d="M955.3,523.9h1.2c9,0,16.4,7.3,16.4,16.4l0,0v36.9l0,0h-33.9l0,0v-36.9C938.9,531.3,946.3,523.9,955.3,523.9
		L955.3,523.9L955.3,523.9z"/>
	<line style="&st2;" x1="935.1" y1="553" x2="976.7" y2="553"/>
	<path style="&st4;" d="M955.3,619.6h1.2c9,0,16.4,7.3,16.4,16.4l0,0v33.9l0,0h-33.9l0,0v-33.9C938.9,626.9,946.3,619.6,955.3,619.6
		C955.3,619.6,955.3,619.6,955.3,619.6z"/>
	<rect x="903.3" y="283.8" style="&st1;" width="127.9" height="16"/>
	<rect x="651.8" y="336.6" style="&st1;" width="98.8" height="16"/>
	<rect x="776.1" y="528.5" style="&st3;" width="33.9" height="43.6"/>
	<line style="&st2;" x1="772.2" y1="547.8" x2="813.9" y2="547.8"/>
	<line style="&st2;" x1="793.1" y1="574" x2="793.1" y2="547.8"/>
	<rect x="776.1" y="607.2" style="&st1;" width="33.9" height="43.6"/>
	<line style="&st2;" x1="772.2" y1="626.6" x2="813.9" y2="626.6"/>
	<line style="&st2;" x1="793.1" y1="652.8" x2="793.1" y2="626.6"/>
	<rect x="840.1" y="528.5" style="&st4;" width="33.9" height="43.6"/>
	<line style="&st2;" x1="836.2" y1="547.8" x2="877.9" y2="547.8"/>
	<line style="&st2;" x1="857" y1="574" x2="857" y2="547.8"/>
	<rect x="840.1" y="607.2" style="&st3;" width="33.9" height="43.6"/>
	<line style="&st2;" x1="836.2" y1="626.6" x2="877.9" y2="626.6"/>
	<line style="&st2;" x1="857" y1="652.8" x2="857" y2="626.6"/>
	<circle style="&st3;" cx="770.1" cy="257.1" r="25.2"/>
	<rect x="627" y="641.8" style="&st3;" width="427.4" height="29.1"/>
	<path style="&st3;" d="M847.5,135H834c-106.3,0-192.4,86.1-192.4,192.4v343.5h398.3V327.4C1039.9,221.1,953.7,135,847.5,135z
		 M826.2,641.8H670.6V399.6h155.5V641.8z M826.2,370.5H670.6v-42.1c0-87.3,68.3-159.4,155.5-164.1V370.5z M1010.8,641.8H855.3V399.6
		h155.5V641.8z M1010.8,370.5H855.3V164.3c87.2,4.7,155.5,76.7,155.5,164.1V370.5z"/>
	<circle style="&st0;" cx="313.6" cy="1015" r="38.8"/>
	<path style="&st5;" d="M1178.1,699c0,1.1-0.2,2.1-0.6,3.1c-3,6.8-15.8,7.8-28.6,2.2c-10.7-4.7-17.9-12.5-18.2-18.9l0,0v85.3h47.5
		L1178.1,699L1178.1,699z"/>
	<path style="&st6;" d="M1159.8,679.7c-12.8-5.6-25.6-4.6-28.6,2.2c-0.5,1.1-0.7,2.3-0.6,3.6c0.3,6.4,7.6,14.2,18.2,18.9
		c12.8,5.6,25.6,4.6,28.6-2.2c0.4-1,0.6-2,0.6-3.1C1178.1,692.5,1170.7,684.4,1159.8,679.7z"/>
	<path style="&st5;" d="M1214.5,727.1c-0.3,6.4-7.6,14.2-18.2,18.9c-12.8,5.6-25.6,4.6-28.6-2.3c-0.4-1-0.6-2-0.6-3.1l0,0v30h47.5
		L1214.5,727.1L1214.5,727.1z"/>
	<path style="&st6;" d="M1213.8,723.6c-3-6.8-15.8-7.8-28.6-2.2c-10.9,4.8-18.3,12.9-18.3,19.4c0,1.1,0.2,2.1,0.6,3.1
		c3,6.8,15.8,7.8,28.6,2.3c10.7-4.7,17.9-12.5,18.2-18.9C1214.5,725.9,1214.3,724.7,1213.8,723.6z"/>
	<line style="&st7;" x1="1168.4" y1="770.7" x2="1168.4" y2="741.7"/>
	<line style="&st8;" x1="1154.3" y1="673.3" x2="1154.3" y2="689.8"/>
	<line style="&st8;" x1="1190.7" y1="715" x2="1190.7" y2="732.5"/>
	<path style="&st4;" d="M951,1054L951,1054c-4.2,0-7.7-3.4-7.7-7.7c0-0.8,0.1-1.6,0.4-2.4l24-73.1c1-3.1,4-5.3,7.3-5.3h16.8
		c4.2,0,7.7,3.4,7.7,7.7c0,1.3-0.3,2.6-1,3.7l-40.9,73.1C956.3,1052.5,953.8,1054,951,1054z"/>
	<path style="&st4;" d="M1272.5,1054L1272.5,1054c4.2,0,7.7-3.4,7.7-7.7c0-0.8-0.1-1.6-0.4-2.4l-24-73.1c-1-3.1-4-5.3-7.3-5.3h-16.8
		c-4.2,0-7.7,3.4-7.7,7.7c0,1.3,0.3,2.6,1,3.7l40.9,73.1C1267.2,1052.5,1269.8,1054,1272.5,1054z"/>
	<rect x="915.2" y="770.7" style="&st6;" width="394.4" height="225.8"/>
	<rect x="944.3" y="799.8" style="&st0;" width="336.3" height="167.7"/>
	<line style="&st9;" x1="1112.1" y1="796.9" x2="1112.1" y2="970.4"/>
	<circle style="&st4;" cx="1151.7" cy="883.6" r="10.2"/>
	<circle style="&st4;" cx="1073.1" cy="883.6" r="10.2"/>
	<rect x="430.8" y="960" style="&st6;" width="142.5" height="16.5"/>
	<path style="&st5;" d="M596.7,1045.5l-35.3-211.8H583c4.8,0,8.7-3.9,8.7-8.7c0-4.8-3.9-8.7-8.7-8.7H421.2c-4.8,0-8.7,3.9-8.7,8.7
		c0,4.8,3.9,8.7,8.7,8.7h21.4l-35.3,211.8c-0.7,4,2,7.8,6,8.4c0.4,0.1,0.8,0.1,1.2,0.1l0,0c3.4,0,6.4-2.4,7.1-5.8l46.8-214.5h67.1
		l46.8,214.5c0.7,3.4,3.7,5.8,7.2,5.8l0,0c4,0,7.3-3.3,7.3-7.3C596.8,1046.3,596.8,1045.9,596.7,1045.5z"/>
	<path style="&st6;" d="M583,833.7c4.8,0,8.7-3.9,8.7-8.7c0-4.8-3.9-8.7-8.7-8.7H421.2c-4.8,0-8.7,3.9-8.7,8.7
		c0,4.8,3.9,8.7,8.7,8.7h21.4v0.3h25.8l0.1-0.3h67.1l0.1,0.3h25.8v-0.3H583z"/>
	<path style="&st10;" d="M592.6,959.7h103c1.3-21.9,5.8-50.9,9.6-90.1c3.4-34.8,6.3-63.9,6.1-88c-0.3-40.1-103,8.4-103,8.4
		c0,8.8,1.8,17.2,1.8,25.3c0.1,21.2-10.6,39.2-18.3,64.8c-11.6,38.8-1.9,79.5-1.9,79.5H592.6z"/>
	<path style="&st11;" d="M701.1,1043.1h-90.2c-2.9,0.9-4.5,4-3.6,6.9c0.7,2.3,2.8,3.8,5.2,3.8l132.7,0.2c1.2-12.9-6.2-22.6-26.8-37
		C706.6,1027.2,701.1,1043.1,701.1,1043.1z"/>
	<path style="&st6;" d="M713.8,1013.9c-4.3-2.8-8-6.3-10.9-10.5c-7-10.3-8.5-24.1-7.3-43.6h-89.3c0.2,14.6,1.2,29.1,3.2,43.6
		c2.3,16.4,5.4,27.6,7.8,39.5h-4.7c-0.6,0-1.1,0.1-1.7,0.3h90.2c0,0,5.5-15.8,17.3-26C716.9,1016,715.4,1015,713.8,1013.9z"/>
	<path style="&st8;" d="M696.6,942.2c-5.5-11-9.3-22.8-11.2-34.9c-6.5-45.4-2.7-68.6-21.1-89h-53.9"/>
	<path style="&st10;" d="M730.2,963.6l0.1,0.2l79.5-37.2c-6.2-18.5-12.7-43.2-23.3-75.4c-10-30.2-16.5-52.7-22.8-70.2
		c-19.3,13.9-46.3,9.5-60.2-9.8c-12.2-16.9-10.5-40,3.9-55C665,697,514.2,684.5,514.2,684.5l-85.3-12.6c-4.5,7.4-8.3,19.2-10.4,33
		h29.8v31.9c0,13.4-10.9,24.3-24.3,24.3h-1.7c-0.4,0-0.8,0-1.2,0c8.1,30,29.1,55.3,71.8,55.3h172.5c18.4,20.3,14.5,43.6,21.1,89
		c5.3,37.1,30.7,64.5,30.7,64.5L730.2,963.6z"/>
	<path style="&st11;" d="M851.4,1006.2l-79.2,35.9c-3,2.1-3.7,6.1-1.6,9.1c1.8,2.6,5.3,3.5,8.1,2.2l120.2-56
		c-4.7-13-16.8-18-45.5-23l-1.2-0.2C849.8,984.7,849.5,995.6,851.4,1006.2z"/>
	<path style="&st6;" d="M852.1,974.1c-8.3-1.6-14.7-4.3-20.1-8.5c-9.9-7.7-15.9-20.2-22.2-39l-79.5,37.2c6.7,15.5,16.2,31.8,25.2,46
		c7.9,12.4,15.4,23.2,20.4,30.4l-2.9,1.4c-0.3,0.2-0.6,0.3-0.9,0.6l79.2-35.9C849.5,995.6,849.7,984.7,852.1,974.1z"/>
	<path style="&st11;" d="M738.6,789.2c9,0,17.9-2.8,25.2-8.2c-12.4-34.9-23.2-49.4-55.7-64.5l-0.6-0.3c-16.5,17.2-15.9,44.5,1.3,61
		C716.8,784.8,727.5,789.1,738.6,789.2L738.6,789.2z"/>
	<path style="&st11;" d="M424,761c13.4,0,24.3-10.9,24.4-24.3v-31.9h-29.8c-2.6,17.3-2.5,37.6,2.6,56.2c0.4,0,0.8,0,1.2,0L424,761z"
		/>
	<line style="&st8;" x1="664" y1="818.7" x2="693" y2="818.7"/>
	<path style="&st8;" d="M789,510.5c0,0-52.3-60.1-114.2-81.9"/>
	<path style="&st12;" d="M624.9,452.1c-1.9-4.6,4.4-11.8,15-17.9c-14.3-3.6-24.5-10.2-23.4-15.8s12.9-8.2,27.5-6.5
		c-7.7-9.4-11.1-18.4-7.7-22c4.3-4.6,18.1,1.2,30.7,13c11,10.3,17.5,21.8,16.1,27.6c-0.8,5.9-10.9,14.4-24.8,20.1
		C642.2,457.4,627.3,458,624.9,452.1z"/>
	<g>
		<defs>
			<path id="SVGID_1_" d="M624.9,452.1c-1.9-4.6,4.4-11.8,15-17.9c-14.3-3.6-24.5-10.2-23.4-15.8s12.9-8.2,27.5-6.5
				c-7.7-9.4-11.1-18.4-7.7-22c4.3-4.6,18.1,1.2,30.7,13c11,10.3,17.5,21.8,16.1,27.6c-0.8,5.9-10.9,14.4-24.8,20.1
				C642.2,457.4,627.3,458,624.9,452.1z"/>
		</defs>
		<clipPath id="SVGID_00000103965393893826110070000014320131451993964479_">
			<use xlink:href="#SVGID_1_"  style="overflow:visible;"/>
		</clipPath>
		<g style="clip-path:url(#SVGID_00000103965393893826110070000014320131451993964479_);">
			<circle style="&st4;" cx="683.5" cy="431" r="18.3"/>
		</g>
	</g>
	
		<ellipse transform="matrix(0.9375 -0.3481 0.3481 0.9375 -100.6595 272.4249)" style="&st4;" cx="707.8" cy="416.4" rx="9.7" ry="40.7"/>
	<path style="&st8;" d="M721.1,458.2c0,0,7.8,21.3,3.9,43.6"/>
	<path style="&st14;" d="M460.9,665.1L554,667c0,0,2.3-3.4,5.8-8.5l-109-2.7L460.9,665.1z"/>
	<path style="&st6;" d="M579.6,373.3c-16.5,18.6-34.1,22.7-34.1,22.7c-11.4-12.4-32-12.4-35.1,5.2C506.9,420.6,531,426,531,426
		s6.1,25.1-3.2,37.5c-8.2,11-18.8,12.8-40.4,15.2c28.2,47.7,57,43.9,66.6,43.9c23,0,29.5-26.7,31.3-40.5c-5.2-1.8-10.6-3.3-16-4.5
		l-3.1-18.6c0,0,14.5,5.2,26.9-2.1s15.5-20.7,11.4-41.4c-2.5-12.2-2.4-27.4-4.5-40.9C591.7,376.1,579.6,373.3,579.6,373.3z"/>
	<path style="&st6;" d="M751.7,477.1c-4.4-17.6-38.8-27.1-38.8-27.1s2.1-39.4-6.8-40.7c-6.8-1-13.6,15.5-19.4,47.5
		c-6.5,35.7-2.9,101.8-2.9,101.8s-7.2-6.5-17.4-15.6c-2.1,4.2-6.3,6.9-11,7c4.3,5.5,3.4,13.4-2.1,17.7c-2.2,1.7-4.8,2.6-7.5,2.7
		c4.3,5.5,3.4,13.4-2.1,17.7c-2.2,1.7-4.8,2.6-7.5,2.7c4.3,5.5,3.4,13.4-2.1,17.7c-2.5,2-5.7,2.9-8.9,2.7
		c21.2,13.8,50.1,29.9,69.3,29.9C795.3,640.9,754.6,488.7,751.7,477.1z"/>
	<path style="&st5;" d="M637.6,603.8c2-4.3,1.5-9.4-1.5-13.2c6.9-0.1,12.5-5.9,12.3-12.8c-0.1-2.7-1-5.4-2.7-7.5
		c6.9-0.1,12.5-5.9,12.3-12.8c-0.1-2.7-1-5.4-2.7-7.5c4.7-0.1,8.9-2.8,11-7c-17.6-15.7-44.1-38.9-58.2-49.3c-6.8-5-15.5-8.8-23-11.4
		c-1.8,13.8-8.2,40.5-31.2,40.5c-9.5,0-38.4,3.8-66.6-43.9l-9.1,1c-31.2,3.5-45.4,20.3-53.8,40.3c-5.2,12.4-9.3,35.2-9.3,35.2
		c-3.2,20.8-4.9,41.9-4.9,63l40.6,37.5l108.9,2.7c8.7-12.9,24.7-36.6,30-45.7c6.8-11.6,7.8-21.3,7.8-21.3s11.6,9.1,27.6,19.5
		C630.4,611.4,635.4,608.5,637.6,603.8z"/>
	<path style="&st4;" d="M591,350.5c-12.4-15.5-46.5-25.8-73.4-6.2s-24.8,51.7-23.8,64.1c0,0-28.9-9.3-49.6,12.4
		c-12.2,12.6-17.2,30.5-13.4,47.6c0,0-38.1-1.1-45.5,34.1c-4.2,20,3.6,33.3,12.4,41.6c5.1,4.8,11.1,8.6,17.6,11.2
		c0,0,4.1-22.7,9.3-35.2c8.4-20.1,22.6-36.9,53.8-40.3l9.1-1c21.6-2.4,32.2-4.3,40.4-15.2c9.3-12.4,3.2-37.5,3.2-37.5
		s-24.1-5.4-20.7-24.8c3.1-17.6,23.8-17.6,35.2-5.2c0,0,17.6-4.1,34.1-22.7c0,0,12.1,2.8,20.3,1.5C598.5,365.4,596,356.9,591,350.5z
		"/>
	<path style="&st15;" d="M753.8,490.9c-2.9-1.4-4.7-4.8-4.2-11.2c0,0-6.1,7.6-12.5,4.2s-3.9-10.7-3.9-10.7s-5.8,3.9-10.7-1
		c-4.4-4.4-1-11.6-1-11.6s-6.4,2.6-8.7-1.9c-2.9-5.7,0.6-11.7,4.4-16.3"/>
	<path style="&st16;" d="M428.9,469.2c1.1,5.2,3.1,10.1,5.8,14.6"/>
	<line style="&st8;" x1="681.9" y1="559.8" x2="684.3" y2="590"/>
	<path style="&st8;" d="M594.2,558c6.3,11.4,6.2,25.1,5.4,33.2"/>
	<line style="&st8;" x1="537" y1="590" x2="506" y2="591"/>
	<path style="&st8;" d="M565.6,461c-4.3-1.7-8.6-3.7-12.7-5.9"/>
	<line style="&st8;" x1="573.3" y1="489.7" x2="571.7" y2="479"/>
	<line style="&st16;" x1="491.7" y1="408.8" x2="493.9" y2="426.7"/>
	<path style="&st8;" d="M594.2,430.1c-2.2,1.4-9.5,1.9-12.9-4.4"/>
	<line style="&st8;" x1="536" y1="409.7" x2="526.3" y2="404.9"/>
	<path style="&st8;" d="M580.8,405.5c-1.5,2.1-8.9,6.2-14.4,1.5"/>
	<path style="&st8;" d="M604.3,402.4c-2.3,0.5-4.8,0-6.8-1.3"/>
	<path style="&st8;" d="M591.2,406c1.1,2.5,2.2,5.3,2,6.3c-0.3,1.3-1.1,2.4-2.2,3.2"/>
	<path style="&st17;" d="M530.7,421.5l-13.2,12.5c-2.3,2.2-2.4,5.8-0.2,8.1c0.6,0.7,1.4,1.2,2.2,1.5l15.6,5.5c3,1.1,6.3-0.5,7.4-3.5
		c0.3-0.9,0.4-1.8,0.3-2.7l-2.4-18c-0.4-3.2-3.3-5.4-6.5-4.9C532.7,420.1,531.6,420.6,530.7,421.5z"/>
	<path style="&st6;" d="M720.7,424.8c0,0,6.8-3.9,12.6-1.9c9,3,7.7,11.4,7.7,11.4s12.6-4.5,15.1,8.8c0,0,11.4,2.5,8.8,13.9
		c0,0,9.2,0.5,7.4,12.6s-9.9,22.1-14.7,22.1c-5,0-8.5-3.1-7.8-12c0,0-6.1,7.6-12.5,4.2s-3.9-10.7-3.9-10.7s-5.8,3.9-10.7-1
		c-4.4-4.4-1-11.6-1-11.6s-6.4,2.6-8.7-1.9c-4.8-9.7,8.5-20.1,10.7-23.2L720.7,424.8z"/>
	<path style="&st8;" d="M717.8,464c6.7-6.1,18-17.6,23.4-29.7"/>
	<path style="&st8;" d="M730,478c11.1-9.4,20.1-21,26.5-34"/>
	<path style="&st8;" d="M747.1,485.2c3-3.7,13.5-16.8,18.7-27.2"/>
	<path style="&st4;" d="M745.2,707.8H577.4l38.2-120.5c2.3-7.3,9.1-12.2,16.7-12.2h141.8c9.7,0,17.5,7.8,17.5,17.5
		c0,1.8-0.3,3.6-0.8,5.3l-31.5,99.7C757.3,703.6,751.7,707.7,745.2,707.8z"/>
	<path style="&st4;" d="M480,694.2c-1.7,5.5,1.3,11.3,6.8,13.1c1,0.3,2.1,0.5,3.1,0.5h255.3c6.4,0,12.1-4.2,14-10.3l1-3.3H480z"/>
	<path style="&st5;" d="M719.5,631c-3.9-5.3-21.6,8.8-22.9,9.9c-0.7-1.2-9.9-15.3-16.7-9.9c-5.9,4.6,7,25.3,10.5,30.6
		c0.6,0.6,1.5,0.7,2.2,0.1c0,0,0.1-0.1,0.1-0.1C699,656.2,722.9,635.6,719.5,631z"/>
	
		<ellipse transform="matrix(0.2974 -0.9548 0.9548 0.2974 -105.7537 1109.0769)" style="&st5;" cx="700.7" cy="626.4" rx="8.6" ry="2.8"/>
	<path style="&st5;" d="M383.8,598.5c4.4,1.7,9.5,0.8,13-2.4c0.6,6.9,6.7,12,13.6,11.4c2.7-0.2,5.3-1.4,7.4-3.2
		c0.6,6.9,6.7,12,13.7,11.4c2.7-0.2,5.3-1.4,7.3-3.2c0.6,6.9,6.7,12,13.6,11.4c0.8-0.1,1.6-0.2,2.3-0.4l15.1-40.6
		c5.8-15.6,8.6-32.2,8.1-48.8l-1.5-54c0,0-34.9,2.9-55.2,28.1c-10.4,12.9-30.9,47.1-44.1,84.2C378.5,595.1,380.9,597.3,383.8,598.5z
		"/>
	<path style="&st6;" d="M446.8,623c-4.5-1.7-7.6-5.8-8-10.6c-5.1,4.7-13.1,4.3-17.8-0.8c-1.8-2-3-4.6-3.2-7.3
		c-5.1,4.7-13.1,4.3-17.8-0.8c-1.9-2-3-4.6-3.2-7.4c-5.1,4.7-13.1,4.3-17.8-0.8c-0.8-0.9-1.4-1.8-2-2.9
		c-11.4,32.2-17.2,66.6-6.2,91.4c23.7,53.4,94.9,34.6,111.7,29.7s49.4-21.8,71.2-18.8s46.5,13.8,50.4,0c0,0,13.3-0.3,9.1-13
		c0,0,6.7-0.8,7.7-5.8c2-9.9-21.8-18.8-21.8-18.8s18.8,3,22.7-1c5-5,0.1-13.1-30.5-20.5c-33.7-8.2-78.2-3.2-144.4,8.6l7.8-20.8
		C452.1,624.1,449.3,624,446.8,623z"/>
	<line style="&st8;" x1="470.1" y1="577.4" x2="448" y2="642"/>
	<path style="&st8;" d="M605.2,657.8c-10.7-4.1-28.6-10.3-42.5-12.6"/>
	<path style="&st8;" d="M613.6,681.1c-13.8-6.2-40.2-17.5-54.3-19.6"/>
	<path style="&st8;" d="M447.1,642.1c-7.4,1.2-19.1,3.2-30.8,5.5"/>
	<path style="&st8;" d="M603.8,696c-10.3-5.3-32.2-15.8-47.5-18.7"/>
	<path style="&st11;" d="M1067,568.4c0,0-7.9,17.7-28.5,17.7s-28.5-17.7-28.5-17.7s-58,132.6-1,202.3h58.9
		C1124.9,701,1067,568.4,1067,568.4z"/>
	<path style="&st4;" d="M1038.5,586.1c20.6,0,28.5-17.7,28.5-17.7h-57C1009.9,568.4,1017.8,586.1,1038.5,586.1z"/>
	<path style="&st18;" d="M1091.7,686.5c-32.1,0.6-70,12.2-99.2,53"/>
	<path style="&st18;" d="M987.4,654c21.5-5.2,62.3-10.2,101.8-0.8"/>
	<path style="&st18;" d="M1089,720.5c-14.3,0.2-40.8,16.4-37.9,49.2"/>
	<path style="&st19;" d="M1034.9,580.2c-0.6-14.2-4.4-70.9-26.9-104.1"/>
	
		<ellipse transform="matrix(0.5081 -0.8613 0.8613 0.5081 45.132 1106.006)" style="&st4;" cx="990.9" cy="513.5" rx="10.2" ry="45.6"/>
	
		<ellipse transform="matrix(0.8687 -0.4953 0.4953 0.8687 -52.4612 548.9161)" style="&st4;" cx="1009.3" cy="373.4" rx="8.8" ry="25.2"/>
	<path style="&st12;" d="M947.5,446.6c2.3-5,13-5.4,25.9-1.5c-8-14.3-10.5-27.6-5.2-31s16.5,4.2,26.3,17.3c1.7-13.4,6.4-23,12-23.1
		c7.1,0,12.8,15.6,12.9,34.8c0,5.5-0.4,11-1.5,16.4c-10.2-4.7-22.3-0.2-26.9,10c-1.2,2.6-1.8,5.4-1.8,8.2c-5.2-1.3-10.2-3-15.1-5.2
		C956.5,464.7,944.6,453.1,947.5,446.6z"/>
	<path style="&st4;" d="M998.4,461c5.8-3.8,13.2-4.3,19.5-1.4c-1.7,9-4.8,15.6-8.6,17.8c-3.6,2.6-11.1,2.7-20.2,0.5
		C989.2,471,992.7,464.7,998.4,461z"/>
	<path style="&st19;" d="M1042.4,579.3c2.8-15.7,17.1-92.9,40.1-136.6"/>
	
		<ellipse transform="matrix(0.3082 -0.9513 0.9513 0.3082 259.5475 1422.4299)" style="&st4;" cx="1107.8" cy="532.8" rx="9.7" ry="55"/>
	<path style="&st12;" d="M1078.2,375.1c5.5-0.5,11.1,8.6,14.1,21.8c8.5-14,18.9-22.7,24.5-19.7s4.4,16.4-2.2,31.4
		c12.6-5.1,23.2-5.7,26-0.9c3.5,6.1-7.3,18.8-24,28.3c-4.8,2.7-9.8,5-15,6.8c-0.9-11.2-10.8-19.5-22-18.5c-2.8,0.2-5.5,1.1-8,2.4
		c-1.4-5.1-2.4-10.4-2.8-15.7C1066.8,391.8,1071.1,375.8,1078.2,375.1z"/>
	<path style="&st4;" d="M1090.6,426.5c6.2,3.2,10.2,9.4,10.8,16.3c-8.7,2.9-16,3.4-19.7,1.2c-4-1.8-7.8-8.4-10.3-17.4
		C1077.4,423.4,1084.6,423.4,1090.6,426.5z"/>
	<path style="&st12;" d="M1137.8,466.7L1137.8,466.7c-10.4,4.4-15.3,16.3-11.1,26.6c3.8,9.1,13.5,14.2,23.2,12.1v0.1
		c-26.3,8.3-50.4,6.2-53.8-4.5S1111.4,474.9,1137.8,466.7z"/>
	<path style="&st0;" d="M1131.5,500.3c5.1-2,7.5-7.8,5.5-12.8c-1.8-4.5-6.7-7.1-11.4-5.9c1.3-6.7,5.9-12.2,12.2-14.8l12.1,38.7
		C1143.3,506.9,1136.4,505,1131.5,500.3z"/>
	<path style="&st4;" d="M1137.2,488.2c1.5,4.9-0.9,10.2-5.7,12.1c-5.1-4.8-7.3-11.9-5.9-18.8
		C1130.6,480.4,1135.7,483.3,1137.2,488.2z"/>
</g>
</svg>
