<?xml version="1.0" encoding="utf-8"?>
<!-- Generator: Adobe Illustrator 26.3.1, SVG Export Plug-In . SVG Version: 6.00 Build 0)  -->
<svg version="1.1" id="Слой_1" xmlns="http://www.w3.org/2000/svg" xmlns:xlink="http://www.w3.org/1999/xlink" x="0px" y="0px"
	 viewBox="0 0 5000 3500" style="enable-background:new 0 0 5000 3500;" xml:space="preserve">
<style type="text/css">
	.st0{fill:none;}
	.st1{fill:#E0F1F0;}
	.st2{fill:none;stroke:#573240;stroke-width:5;stroke-linecap:round;stroke-miterlimit:10;}
	.st3{fill:#FFFFFF;stroke:#573240;stroke-width:5;stroke-linecap:round;stroke-miterlimit:10;}
	.st4{fill:#B2DDDA;}
	.st5{fill:#F1B104;}
	.st6{fill:#FF6E00;}
	.st7{fill:#FCD4D0;}
	.st8{fill:#F6ACC1;}
	.st9{fill:none;stroke:#FFFFFF;stroke-width:5;stroke-linecap:round;stroke-miterlimit:10;}
	.st10{fill:none;stroke:#573240;stroke-width:4;stroke-linecap:round;stroke-miterlimit:10;}
	.st11{fill:#573240;}
	.st12{fill:#FFFFFF;}
	.st13{fill:none;stroke:#F1B104;stroke-width:5;stroke-miterlimit:10;}
	.st14{fill:#96CFCE;}
	.st15{fill:none;stroke:#F1B104;stroke-width:4;stroke-miterlimit:10;}
	.st16{fill:#FFFFFF;stroke:#573240;stroke-width:5;stroke-linecap:round;stroke-linejoin:round;stroke-miterlimit:10;}
	.st17{fill:none;stroke:#573240;stroke-width:6;stroke-linecap:round;stroke-miterlimit:10;}
	.st18{fill:none;stroke:#573240;stroke-width:5;stroke-linecap:round;stroke-linejoin:round;stroke-miterlimit:10;}
</style>
<path class="st0" d="M424.2,614c40.9-12.1,81.4-25.3,121.6-39.5c90.1-31.8,178.6-68.2,265.5-107.8c78.5-35.7,155.8-74.2,231.5-115.4
	c-34.4,2.1-68.3,8.9-101.5,18.4c-76.1,21.8-147.9,56.4-220,88.7c-52.4,23.5-105.8,46.9-161.1,63.2
	C513.8,550.8,468.3,581.4,424.2,614z"/>
<path class="st0" d="M0,0v3500h5000V0H0z"/>
<g id="WINDOW">
	<path class="st1" d="M3675.2,405.8v481.1c0,7.8-9.5,11.8-15,6.2l-345.7-345.6c-11.8-11.8-10.9-31.4,2.1-41.9
		c90.9-73.6,204.5-120.3,328.6-128C3661.5,376.6,3675.2,389.6,3675.2,405.8z"/>
	<path class="st1" d="M4048,546.8l-344.8,344.8c-5.5,5.5-15,1.6-15-6.2V405.8c0-16.3,13.7-29.3,30-28.2
		c66.8,4.1,130.6,19.6,189.5,44.5c50,21.1,96.4,49.1,138,82.7C4058.8,515.3,4059.9,534.9,4048,546.8z"/>
	<path class="st1" d="M4229.6,915.5h-510.7c-7.8,0-11.8-9.5-6.2-15l346.7-346.7c11.2-11.2,29.4-11,40.4,0.4
		c84.6,87.8,141.8,202.2,157.8,329.4C4259.8,900.5,4246.7,915.5,4229.6,915.5z"/>
	<path class="st1" d="M3643,915.5h-509.1c-17.1,0-30.2-15-28.1-31.9c16-126.8,72.9-240.9,157-328.5c11-11.5,29.2-11.7,40.5-0.4
		l345.9,345.9C3654.7,906.1,3650.8,915.5,3643,915.5z"/>
	<path class="st1" d="M3675.2,955.6v1760.5c0,17.4-14.1,31.5-31.5,31.5h-511.1c-17.4,0-31.5-14.1-31.5-31.5V957l0-0.3
		c0-15.5,12.6-28.2,28.2-28.2h518.8C3663.1,928.5,3675.2,940.6,3675.2,955.6z"/>
	<path class="st1" d="M4262.2,957v1759.1c0,17.4-14.1,31.5-31.5,31.5h-511.1c-17.4,0-31.5-14.1-31.5-31.5V955.6
		c0-15,12.1-27.1,27.1-27.1h518.8c15.5,0,28.2,12.6,28.2,28.2V957z"/>
</g>
<g id="WOMAN">
	<g id="CHAIR_1_">
		<path class="st2" d="M1979.1,3172.8l115.3-677.4c8.6-50.3,42.9-86.1,82.6-86.1h389c39.7,0,74,35.8,82.6,86.1l115.3,677.4"/>
		<path class="st3" d="M2179.3,2408.7c-41.2-4-77.8-29.4-95.7-67.4l-79.4-168.1c-19.1-40.4,10.4-86.9,55.1-86.9h4.8
			c26.1,0,46.3-22.8,43.1-48.7l-22.2-186.9c-6.3-52.8,35-99.3,88.2-99.3h405.7c53.2,0,94.5,46.5,88.2,99.3l-22.2,186.9
			c-3.2,25.9,17,48.7,43.1,48.7h4.8c44.7,0,74.2,46.5,55.1,86.9l-79.4,168.1c-17.9,38-54.5,63.4-95.7,67.4H2179.3z"/>
	</g>
	<path id="DRESS_1_" class="st4" d="M2621.3,1541c12.4,9.2,29.8,15.6,53.9,16l27,159.2c6.9,40.8-17.6,80.3-57.2,92.1l-20.5,6.2
		l-24.4,147.1l246.2,98.8l-11.2,310.4h-467.4c-241.9,0-182.4-314.1-47.5-380.7l10-457L2621.3,1541z"/>
	<g id="LEGS_5_">
		<g id="RIGHT_2_">
			<path class="st5" d="M2818.6,2056.6c97.5,0,131.6,126.3-3.9,448.6c-146.1,347.5-237.9,539.8-156.2,667.6h-75.4
				c-41.6,0-75-34.3-74-75.9c1.7-67.2,4-160.2,4-196.5C2513.2,2840.7,2523,2056.6,2818.6,2056.6z"/>
			<g>
				<g>
					<path class="st6" d="M2658.5,3175.8h-75.4c-1.7,0-3-1.3-3-3s1.3-3,3-3h75.4c1.7,0,3,1.3,3,3S2660.2,3175.8,2658.5,3175.8z"/>
				</g>
				<path class="st6" d="M2630.7,3016.9c-0.6,4.8-1.1,9.6-1.5,14.3h-118.4c0.1-4.2,0.2-8.4,0.3-12.5c0-0.6,0-1.2,0-1.8H2630.7z"/>
				<path class="st6" d="M2530.7,3151c25.2-19,83.3-25.9,108-19.7c-2.4-7.1-4.3-14.4-5.9-21.9c-44.2-11.2-94.7-1.2-121.8,6.1
					C2511,3115.3,2515.2,3139,2530.7,3151z"/>
			</g>
		</g>
		<g id="LEFT_1_">
			<path class="st5" d="M2396.1,3016.9c0,0-188.5-960.2,163.2-960.2c273.8,0-53.5,772.4-47.7,962.2c3.4,109.5,70.3,154,70.3,154
				h-109.8c-14.3,0-27.1-9.2-31.6-22.8L2396.1,3016.9z"/>
			<path class="st6" d="M2584.9,3172.8c0,1.7-1.3,3-3,3h-109.8c-15.6,0-29.5-10-34.4-24.8l-24.8-74.2v88c0,4.4-3.6,8-8,8h-43.4
				c-4.1,0-7.5-3-8-7.1c-12.8-101.3,42.6-148.9,42.6-148.9h115.8l1,14.3H2404l38.9,116.5c9.4-8.5,45.3-38.2,90.4-37.3
				c5.4,11.1,11.3,21.6,17,29.6c-0.9,0.1-1.7,0.1-2.6,0.2c-27.7,3.1-50.4,17-65.7,29.5h99.9
				C2583.5,3169.8,2584.9,3171.1,2584.9,3172.8z"/>
		</g>
		<path id="CONTOUR" class="st2" d="M2665.6,2155.3c23.7,226.1-161.3,721.2-156.9,863.6c3.4,109.5,74.3,155,74.3,155"/>
	</g>
	<g id="MENU_1_">
		<polygon class="st7" points="2782.8,1990.6 2490.1,1990.6 2687.1,1526.7 2979.8,1526.7 		"/>
		<polygon class="st8" points="3075.8,1990.6 2783.1,1990.6 2980.1,1526.7 3272.8,1526.7 		"/>
		<polyline class="st9" points="2980.8,1525.7 2782.8,1990.6 2490.1,1990.6 2688.1,1525.7 		"/>
		<line class="st9" x1="2991.7" y1="1668.1" x2="3139.1" y2="1668.1"/>
		<line class="st9" x1="2981.7" y1="1699.1" x2="3129.1" y2="1699.1"/>
	</g>
	<g id="HAND">
		<path class="st5" d="M2335.5,1533L2335.5,1533c-31.1,0-58.5,20.5-67.2,50.3l-78.6,268.2c-20.4,69.5,31.7,139.1,104.2,139.1h0
			c32.3,0,62.9-14.4,83.5-39.3l151.2-182.4c17.6-21.2,43.8-33.5,71.4-33.5h47.1c20.7,0,39.9-10.9,50.5-28.7l38.1-64
			c2-3.3-0.4-7.5-4.3-7.5h-81.1c-6.4,0-10.6-6.5-8.1-12.3l3.7-8.7h-76.9c-28,0-55.2,9-77.7,25.8l-99.5,74.2L2405,1612
			C2410.4,1570.1,2377.7,1533,2335.5,1533z"/>
		<path class="st2" d="M2622,1710.4h47.1c9.4,0,18.5-2.3,26.7-6.4"/>
		<path class="st2" d="M2632,1686.4h51.1c9.4,0,18.5-2.3,26.7-6.4"/>
		<path class="st2" d="M2641,1662.4h57.1c9.4,0,18.5-2.3,26.7-6.4"/>
		<line class="st2" x1="2408.2" y1="1702.1" x2="2305.6" y2="1768"/>
	</g>
	<g id="HEAD_2_">
		<path class="st6" d="M2350.7,1534.7c-4.9-1.1-10-1.7-15.2-1.7c-31.1,0-58.5,20.5-67.2,50.3l-48.4,165.2
			c-54-13.9-109.1-40.9-116.8-93.4c-18.6-127,120.8-120.1,169.3-136c48.5-15.9,30.8-59.8,68-96.2c43.9-42.9,103.6-16.4,137.1-30.2
			c33.8-13.9,38.8-58.8,75.7-67.7c27.4-6.6,48.3,6.4,61.4,19c5.6-3,12-4.8,18.8-4.8c21,0,38.1,16.4,38.1,36.7
			c0,19.5-15.7,35.4-35.6,36.6c1.3,80.8,81.8,99.6,39.5,144.4c-84.1-0.3-116.4-94.9-121.2-119.2c-5.7,39.8-22.5,92.6-70.6,109.2
			c-43.8,15.1-87.5,4.8-117-6.8L2350.7,1534.7z"/>
		<path id="HEAD__x26__NECK" class="st5" d="M2621.3,1541c0.1,1.2,0.1,2.3,0.1,3.4c0,33-26.5,60.3-59.9,60.9l-56.7,1
			c-30.7,0.5-56.9-21.8-61.4-52c13.1-0.5,26.5-2.8,40-7.4c42.1-14.5,60.2-56.7,67.9-93.7c0-0.2,0.1-0.4,0.1-0.6
			c1.3-6.3,2.3-12.5,3.1-18.4l-16.3-3.2c-11.4-2.2-18.7-13.3-16.3-24.6l0.7-3.1c2.4-11,13.1-18.1,24.1-16l12.1,3.3l6.8,3.2
			c7.5,2.6,19.1,5,33.1,2c15-3.2,28.7-13.6,31.1-32.3c4.4,6.3,6.5,16,6.5,26.9c0,32.1-8.9,78.5-33.5,78.5c-4.1,0-8.4-0.5-12.7-1.4
			C2589.8,1477.8,2590.5,1518.1,2621.3,1541z"/>
		<g id="FACE_1_">
			<path class="st2" d="M2589.2,1469.3c-33.6-7-35.4-32.6-35.4-32.6"/>
			<path class="st10" d="M2611.2,1442.6c-13.1,0.1-15.9-7.4-15.9-7.4l-4.2,1.8"/>
			<path class="st10" d="M2636.2,1398.9c-2.9-3.1-9.4-3-14-0.7c-9.2,4.6-10.2,31.4-10.2,31.4"/>
			
				<ellipse transform="matrix(5.636630e-02 -0.9984 0.9984 5.636630e-02 1065.3628 3956.229)" class="st11" cx="2625.6" cy="1414.5" rx="4.9" ry="3.1"/>
			
				<ellipse transform="matrix(5.636630e-02 -0.9984 0.9984 5.636630e-02 1033.875 3919.0264)" class="st11" cx="2590.2" cy="1412.6" rx="4.9" ry="3.1"/>
			<path class="st2" d="M2553.7,1411.6c0.8-7-4.2-13.4-11.2-14.3"/>
		</g>
		<circle class="st12" cx="2546.8" cy="1439.1" r="10.2"/>
	</g>
</g>
<g id="TABLE">
	<g>
		<path class="st13" d="M2529.2,1990.8c-61.8,0-115.4,55.4-128.7,133.3l-179.8,1048.7"/>
		<path class="st13" d="M3292.3,1990.1c61.9,0,115.5,55.5,128.9,133.5l180.1,1050.2"/>
	</g>
	<line class="st2" x1="2171.2" y1="1990.8" x2="3650.9" y2="1990.8"/>
</g>
<g id="LAMP">
	<g>
		<path class="st2" d="M2610.4,328.7v233.9c0,82.8,67.1,149.9,149.9,149.9h0c60,0,111.7-35.2,135.7-86.1"/>
		<path class="st2" d="M2609.7,317.5v245c0,82.8-67.1,149.9-149.9,149.9h0c-60,0-111.7-35.2-135.7-86.1"/>
	</g>
	<path class="st2" d="M2753,623.1c-7.4,64.8-68.6,115.3-143,115.3c-73.9,0-134.8-49.9-142.8-114"/>
	<circle class="st5" cx="2321" cy="595" r="13.9"/>
	<circle class="st5" cx="2465.8" cy="595" r="13.9"/>
	<circle class="st5" cx="2754.4" cy="595" r="13.9"/>
	<circle class="st5" cx="2507" cy="741" r="13.9"/>
	<circle class="st5" cx="2714.3" cy="741" r="13.9"/>
	<circle class="st2" cx="2609.5" cy="753.2" r="13.9"/>
	<circle class="st3" cx="2609.5" cy="372.2" r="13.9"/>
	<circle class="st5" cx="2900.3" cy="595" r="13.9"/>
</g>
<g id="VASE">
	<g id="FLOWERS">
		<g>
			<path class="st14" d="M625.8,2265.1c0,0-24.2-79.5-119.6-94.8c0,0,7.9,80.1,73.4,94.8H625.8z"/>
			<path class="st14" d="M766.7,2264.9c0,0,42.5-64.5,128.1-69.9c0,0-15.4,46.3-54.8,69.9H766.7z"/>
			<path class="st14" d="M668.3,2264.9c0,0-121.3-92.3-118.6-285.7c0,0,183.3,121.5,171.4,285.7H668.3z"/>
			<path class="st14" d="M738.5,2264.9c0,0-2.1-129,140.2-182.8c0,0-13.3,106.6-112,182.8H738.5z"/>
			<path class="st14" d="M699.1,2070c0,0-4.2-51,103.6-76.3c0,0-1.5,92.6-103.6,129.3V2070z"/>
		</g>
		<g>
			<circle class="st10" cx="886.5" cy="2166" r="13.8"/>
			<circle class="st10" cx="533.2" cy="2233.7" r="13.8"/>
			<circle class="st10" cx="800.3" cy="2021.3" r="10"/>
		</g>
		<g>
			<line class="st15" x1="699" y1="2263.1" x2="699" y2="2066.4"/>
			<circle class="st5" cx="699.1" cy="2022.8" r="49.2"/>
			<path class="st2" d="M705.9,2022.1c-14.5,3.5-29.1-5.3-32.7-19.8c-2.8-11.6,4.3-23.3,15.9-26.1c9.3-2.3,18.6,3.4,20.9,12.7
				c1.8,7.4-2.7,14.9-10.2,16.7c-5.9,1.5-11.9-2.2-13.4-8.1c-1.2-4.8,1.7-9.5,6.5-10.7"/>
			<path class="st2" d="M699.1,2070c0,0,0-44.1,47-44.1"/>
		</g>
		<g>
			<g>
				<g>
					<g>
						<g>
							<path class="st10" d="M791.6,2189.9c-4.9,5.4-12.4,10.4-21.2,13.7c-13.8,5.1-26.9,4.3-33.2-1c-7-4.6-11.4-16.9-10.4-31.6
								c0.6-9.1,3-17.4,6.6-23.6"/>
						</g>
					</g>
				</g>
				<path class="st10" d="M762.7,2161c0,0-34,25.2-34,102.1"/>
			</g>
			<circle class="st6" cx="733.9" cy="2139.1" r="11.5"/>
			<circle class="st6" cx="767.2" cy="2153.8" r="12"/>
			<circle class="st6" cx="795.8" cy="2182.5" r="11.5"/>
		</g>
		<g>
			<g>
				<g>
					<path class="st2" d="M581.2,2067.1c6.9,4.9,13.4,14.7,17.1,27c4.7,15.8,3.4,31.8-2.8,38.7c-4.6,6.4-12.9,11.5-22.9,15.6
						c-10,4.1-19.9,5.3-27.6,4.1"/>
				</g>
				<path class="st2" d="M553.4,2106.7c0,0,97.8,31,104.5,156.1"/>
			</g>
			<circle class="st6" cx="536.9" cy="2149" r="12.5"/>
			<circle class="st6" cx="542.4" cy="2101.1" r="13"/>
			<circle class="st6" cx="580.5" cy="2067.1" r="12.5"/>
		</g>
		<g>
			<circle class="st5" cx="642.3" cy="2218.7" r="49.2"/>
			<path class="st2" d="M649.1,2218.1c-14.5,3.5-29.1-5.3-32.7-19.8c-2.8-11.6,4.3-23.3,15.9-26.1c9.3-2.3,18.6,3.4,20.9,12.7
				c1.8,7.4-2.7,14.9-10.2,16.7c-5.9,1.5-11.9-2.2-13.4-8.1c-1.2-4.8,1.7-9.5,6.5-10.7"/>
		</g>
	</g>
	<g id="VASE_1_">
		<path class="st1" d="M823.5,3182.5H566.4c-6.6,0-11.9-5.3-11.9-11.9v-2.5c0-6.6,5.3-11.9,11.9-11.9h257.2
			c6.6,0,11.9,5.3,11.9,11.9v2.5C835.4,3177.1,830.1,3182.5,823.5,3182.5z"/>
		<path class="st1" d="M591,3140.6c0-38.1,32.1-69,71.6-69h64.7c39.6,0,71.6,30.9,71.6,69H591z"/>
		<path class="st1" d="M919.8,2680.5c0,129.1-26.3,245.5-68.4,328.1c-15.5,30.3-52.4,50-93.3,50H639.8c-40.9,0-77.8-19.7-93.3-50
			c-42.2-82.6-68.4-199-68.4-328.1c0-130.4,26.8-248,69.8-330.8c15.6-30.1,52.4-49.6,93-49.6h116c40.7,0,77.4,19.5,93.1,49.6
			C892.9,2432.5,919.8,2550.1,919.8,2680.5z"/>
		<path class="st1" d="M848.6,2289.4H541.3c-6.6,0-11.9-5.3-11.9-11.9v-2.5c0-6.6,5.3-11.9,11.9-11.9h307.3
			c6.6,0,11.9,5.3,11.9,11.9v2.5C860.5,2284.1,855.2,2289.4,848.6,2289.4z"/>
	</g>
</g>
<g id="MAN">
	<g id="MENU_2_">
		<polygon class="st11" points="3927.8,2050.6 3896.8,2050.6 3748.7,1701.8 3336.1,1603.9 3742.1,1603.9 		"/>
		<polygon class="st7" points="3748.7,1701.8 3896.8,2050.6 3525.8,2050.6 3336.1,1603.9 		"/>
	</g>
	<g id="LEGS_6_">
		<path class="st11" d="M2661.3,2688.4l411.9-622.8c30.9-46.8,83.3-74.9,139.4-74.9l692.4,0.2l130.6,425.8H3784
			c-57,0-113.8-5.9-169.6-17.5l-318.6-66.5c0,0-100,245.6-409.2,505.9L2661.3,2688.4z"/>
		<path class="st11" d="M3515.2,2376.4l-218.6-89.5c-60.6-24.8-127,19.7-127,85.2v685.3h237.6
			C3407.2,3057.3,3530,2724.9,3515.2,2376.4z"/>
		<path class="st9" d="M3522.2,2382.4l-228.6-95.5c-60.6-24.8-127,19.7-127,85.2v185.3"/>
	</g>
	<path id="JACKET" class="st6" d="M4510.7,1734.6l-100.5,411.9c-40.1,164-207.1,268.4-376,268.4l-70.9-227.4l-350.1-59.2
		c18.9,0,34.1-47.5,34.1-108.2c0-60.6-15.3-109.7-34.1-109.8h229.3c50.1,0,96.9-25.1,124.6-66.9l108.6-164
		c51.8-78.3,139.5-125.4,233.3-125.4h60C4463.5,1554,4533.1,1642.7,4510.7,1734.6z"/>
	<g id="ARM">
		<path class="st5" d="M3534.8,1955.9c0-2.1-1.1-4-3-5.1l-28.6-15.5c-4.6-2.5-8.3-6.1-10.9-10.5c-2.6-4.3-4-9.3-4-14.5h124.8
			c18.8,0.1,34.1,49.2,34.1,109.8c0,60.7-15.3,108.2-34.1,108.2l-6.5-1.9l-145.1-43.1c-20.1-6-33.9-24.4-33.9-45.4v-118.3
			c0-12.9,10.5-23.4,23.4-23.4h9l18.2,43L3534.8,1955.9z"/>
		<g>
			<path class="st2" d="M3510.9,2063.9l-52.5-15.6c-20.1-6-33.9-24.4-33.9-45.4"/>
			<path class="st2" d="M3515,1989.1l-56.5-16.8c-14-4.2-25-14.4-30.3-27.3"/>
			<path class="st2" d="M3512.6,2027.3l-54.1-16.1c-14-4.2-25-14.4-30.3-27.3"/>
		</g>
		<path class="st12" d="M3677.2,2140.3c19.7-0.6,35.7-50.5,35.7-114.1c0-64-16.1-115.8-36-115.9h-61.3c17.2,6.2,30.5,53,30.5,109.8
			c0,49.5-10.1,90.3-24,103.9c-3.3,3.2-6.7,4.9-10.3,4.9L3677.2,2140.3z"/>
	</g>
	<g id="HEAD_3_">
		<g id="NECK_1_">
			<path class="st5" d="M4428.8,1529c-82.8-11.4-169.7-0.6-175.3,0.1v-30.8l115-71.4L4428.8,1529z"/>
			<path class="st16" d="M4253.2,1529.1c0,0,87.5-11.9,173.3,0l42.9,63.6c0,0-36-37.7-106.3-38.7s-111.9,5.9-111.9,5.9
				L4253.2,1529.1z"/>
		</g>
		<path id="HAIR_1_" class="st11" d="M4335.2,1419.5c-7.2-0.8-13.7,4.6-14.1,11.9l-2.2,41.8c-0.9,18.9-15.6,34.2-34.5,35.9
			l-53.2,4.6c-11.8,1-21.1-9.7-18.6-21.2l8.7-39.7l9.6-0.8c11.5-1,22.9,2.8,31.5,10.4l11,9.8c3.9,3.5,9,5.2,14.2,4.7l0,0
			c9.4-0.8,16.8-8.4,17.4-17.8l3.6-60.5c0.6-11-9.3-19.6-20.1-17.5c-25.3,5-63.9,8.4-64.7-17.9c-1.2-39,41.6-30.6,54.4-25.5
			c7.5,2.9,64.5,28,80.1,34.9c3.2,1.4,6,3.7,7.9,6.7c4.7,7.2,10.9,22,3.2,44.2L4335.2,1419.5z"/>
		<g id="EAR">
			<path class="st5" d="M4348.9,1461.8l-29.9-0.9l2.7-37.7c0.4-8.4,7.4-15,15.9-14.7l12.9,0.4c13.4,0.4,24,11.5,23.8,24.9l0,3.8
				C4374.1,1451.3,4362.6,1462.2,4348.9,1461.8z"/>
			<path class="st2" d="M4333.4,1436.6c0.4-8.4,7.4-15,15.9-14.7"/>
			<path class="st2" d="M4374.1,1435.6c-0.2,13.8-11.6,24.7-25.4,24.3l-28.9-0.9"/>
		</g>
		<g id="FACE_2_">
			<path class="st5" d="M4308.6,1398.5l-3.5,60.5c-0.3,4.7-2.3,9-5.4,12.1c-3.1,3.2-7.3,5.3-12,5.7c-5.2,0.4-10.3-1.3-14.2-4.7
				l-11-9.8c-8.6-7.7-20-11.4-31.5-10.4l-9.6,0.8c-15.2,0.9-21.3-9.3-21.3-9.3c29.5-25.9,40.2-61,40.2-61l0,0
				c13.7,4,33.3,1.6,48.3-1.4C4299.3,1378.9,4309.2,1387.5,4308.6,1398.5z"/>
			<path class="st17" d="M4251.1,1405c0,0,11.5-1.2,20.7,4.8"/>
			
				<ellipse transform="matrix(0.9963 -8.592155e-02 8.592155e-02 0.9963 -106.5727 371.16)" class="st11" cx="4258.5" cy="1423.6" rx="3.9" ry="6.4"/>
		</g>
	</g>
	<g id="SHOES_2_">
		<g id="SOCKS">
			<g>
				<path class="st7" d="M3169.7,3057.3v25.7c0,0,127.2,20.3,219.6,7v-32.7H3169.7z"/>
				<g>
					<g>
						<path class="st8" d="M3192.1,3057.3v28.8c-1.8-0.2-3.4-0.4-5-0.7v-28.1H3192.1z"/>
					</g>
					<g>
						<path class="st8" d="M3214.4,3057.3v31.3c-1.7-0.2-3.4-0.4-5-0.5v-30.8H3214.4z"/>
					</g>
					<g>
						<path class="st8" d="M3236.6,3057.3v33.5c-1.7-0.1-3.3-0.3-5-0.4v-33H3236.6z"/>
					</g>
					<g>
						<path class="st8" d="M3258.9,3057.3v35.1c-1.7-0.1-3.3-0.2-5-0.3v-34.8H3258.9z"/>
					</g>
					<g>
						<path class="st8" d="M3281.1,3057.3v36.4c-1.7-0.1-3.3-0.1-5-0.2v-36.1H3281.1z"/>
					</g>
					<g>
						<path class="st8" d="M3303.4,3057.3v37.1c-1.7,0-3.3-0.1-5-0.1v-36.9H3303.4z"/>
					</g>
					<g>
						<path class="st8" d="M3325.6,3057.3v37.1c-1.7,0-3.3,0-5,0v-37.2H3325.6z"/>
					</g>
					<g>
						<path class="st8" d="M3347.9,3057.3v36.4c-1.7,0.1-3.3,0.2-5,0.2v-36.7H3347.9z"/>
					</g>
					<g>
						<path class="st8" d="M3370.1,3057.3v34.9c-1.7,0.2-3.3,0.3-5,0.4v-35.3H3370.1z"/>
					</g>
				</g>
			</g>
			<g>
				<g>
					<path class="st7" d="M2661.3,2688.4l-16.1,20.8c0,0,97.3,89,181.6,129.3l19.6-26.6L2661.3,2688.4z"/>
				</g>
				<g>
					<g>
						<path class="st8" d="M2680,2700.8l-16.5,24.4c-1.3-1.1-2.6-2.2-3.8-3.3l16.1-23.9L2680,2700.8z"/>
					</g>
					<g>
						<path class="st8" d="M2698.5,2713.2l-17.8,26.5c-1.3-1.1-2.6-2.2-3.9-3.2l17.6-26L2698.5,2713.2z"/>
					</g>
					<g>
						<path class="st8" d="M2717,2725.5l-19,28.1c-1.3-1.1-2.6-2.1-3.9-3.1l18.7-27.8L2717,2725.5z"/>
					</g>
					<g>
						<path class="st8" d="M2735.5,2737.9l-19.9,29.5c-1.3-1-2.7-2-4-3l19.7-29.2L2735.5,2737.9z"/>
					</g>
					<g>
						<path class="st8" d="M2754,2750.2l-20.5,30.5c-1.3-1-2.7-2-4-3l20.4-30.3L2754,2750.2z"/>
					</g>
					<g>
						<path class="st8" d="M2772.5,2762.6l-20.9,31c-1.4-0.9-2.8-1.9-4.1-2.9l20.9-30.9L2772.5,2762.6z"/>
					</g>
					<g>
						<path class="st8" d="M2791,2774.9l-21,31.1c-1.4-0.9-2.8-1.8-4.2-2.8l21-31.1L2791,2774.9z"/>
					</g>
					<g>
						<path class="st8" d="M2809.5,2787.3l-20.6,30.6c-1.4-0.9-2.8-1.7-4.3-2.6l20.7-30.7L2809.5,2787.3z"/>
					</g>
					<g>
						<path class="st8" d="M2828,2799.6l-19.8,29.3c-1.5-0.8-2.9-1.6-4.4-2.4l20-29.7L2828,2799.6z"/>
					</g>
				</g>
			</g>
		</g>
		<g id="SHOES_4_">
			<g>
				<path class="st6" d="M3406,3172.8h-68.3c-1.4-8.1-7.8-14.3-15.4-14.3c-7.7,0-14.1,6.2-15.4,14.3h-202c-7,0-9.7-9.1-3.8-12.9
					c26.6-17.3,68.6-49.1,68.6-76.9c0,0,127.1,20.3,219.6,7C3389.3,3090,3412.2,3094.5,3406,3172.8z"/>
				<path class="st2" d="M3406,3172.8h-68.3c-1.4-8.1-7.8-14.3-15.4-14.3c-7.7,0-14.1,6.2-15.4,14.3h-209"/>
				<path class="st2" d="M3186.3,3122.4c0,0-53.4-1.3-53.8-20.9c-0.3-19.6,41.5-2.3,9.6,28.9"/>
			</g>
			<g>
				<path class="st6" d="M2794.7,2916.6l-56.8-37.9c3.4-7.5,1.5-16.2-4.9-20.4c-6.4-4.3-15.1-2.7-20.8,3.3l-166.7-111.3
					c-6.5-4.3-3.4-14.4,4.3-14.4c31.3-0.2,80.4-4.2,95.4-26.6c0,0,97.3,89,181.6,129.3C2826.8,2838.5,2843.4,2855,2794.7,2916.6z"/>
				<path class="st2" d="M2793.7,2915.6l-56.8-37.9c3.4-7.5,1.5-16.2-4.9-20.4c-6.4-4.3-15.1-2.7-20.8,3.3l-166.7-111.3"/>
				<path class="st2" d="M2643.7,2748.2c0,0-44.3-27.8-34.1-44.5c10.2-16.7,37.8,19.1-7.4,26.5"/>
			</g>
		</g>
	</g>
	<g id="CHAIR_2_">
		<path class="st2" d="M4066.2,2414.5c39.7,0,74,35.6,82.6,85.5l115.3,672.7"/>
		<path class="st3" d="M3658.3,2414.8H4172c116.2,0,217.8-78.5,247.1-190.9l102.8-394.4H4427c-94.8,0-181.6,53.2-224.7,137.7
			l-50.1,98.3c-38.1,74.8-115,122-199,122h-68C3759.7,2187.5,3658.1,2289.4,3658.3,2414.8L3658.3,2414.8z"/>
		<path class="st2" d="M3638.3,3172.8l115.3-672.7c8.6-50,42.9-85.5,82.6-85.5h391c39.7,0,74,35.6,82.6,85.5l115.3,672.7"/>
		<path class="st2" d="M4175,2653c15-31.4,45.5-52.8,80.7-52.8c34.4,0,64.3,20.5,79.6,50.6"/>
	</g>
</g>
<g id="WAITER">
	<g id="SHOES_1_">
		<g>
			<path class="st7" d="M1189.9,3173.9h202c7,0,9.7-9.1,3.8-12.9c-26.6-17.3-57.5-40.7-67.8-72.4l-210.5-0.5c0,0-22.9,7.5-16.7,85.8
				h58.3v-9.4h30.9V3173.9z"/>
			<polyline class="st18" points="1100.7,3173.9 1159,3173.9 1159,3164.5 1189.9,3164.5 1189.9,3173.9 1398.9,3173.9 			"/>
			<path class="st18" d="M1302,3118.9c5-6.3,14.4-10.6,25.1-10.6c6.4,0,12.4,1.5,17.2,4.1"/>
			<path class="st18" d="M1312,3134.9c5.3-6.3,15.1-10.6,26.4-10.6c8.4,0,16.1,2.4,21.6,6.2"/>
		</g>
		<g>
			<path class="st7" d="M1671.9,3173.9h202c7,0,9.7-9.1,3.8-12.9c-26.6-17.3-57.5-40.7-67.8-72.4l-220.5-0.5c0,0-22.9,7.5-16.7,85.8
				h68.3v-9.4h30.9V3173.9z"/>
			<polyline class="st18" points="1572.7,3173.9 1641,3173.9 1641,3164.5 1671.9,3164.5 1671.9,3173.9 1880.9,3173.9 			"/>
			<path class="st18" d="M1784,3118.9c5-6.3,14.4-10.6,25.1-10.6c6.4,0,12.4,1.5,17.2,4.1"/>
			<path class="st18" d="M1794,3134.9c5.3-6.3,15.1-10.6,26.4-10.6c8.4,0,16.1,2.4,21.6,6.2"/>
		</g>
	</g>
	<path id="LEGS" class="st11" d="M1810.1,2215.9c0,0-39,724.5-0.1,872.7h-220.2c-72.8-211.7-168.4-541.3-46.9-839.3
		c0,0-6.7-78-15.1-178.9l-35.6,132.2c-49.6,206.1-164.2,886-164.2,886h-212.2c0,0-110.7-531.3,84.9-864.4c0,0,81.2-533.2,81.6-596.9
		h507.9C1790.1,1627.3,1806.1,1806.1,1810.1,2215.9z"/>
	<g id="APRON">
		<path class="st5" d="M1282.2,1626.3h527.9l51.2,509.1c4.2,41.7-28.5,77.9-70.4,77.9h-292.7c-68.1,0-124.9-51.8-131.3-119.6
			l-36.5-391.5c-2.3-24.7-23-43.6-47.8-43.6h-3.1L1282.2,1626.3z"/>
		<polygon class="st6" points="1813.3,1658.3 1279.4,1658.3 1282.2,1626.3 1810.1,1626.3 		"/>
	</g>
	<g id="SHIRT">
		<path class="st4" d="M2045.8,1406.3L1889,1027.1c-17.6-42.5-53.9-74.4-98.3-86.4l-206.2-55.6l-137.4-43.5l-24.5,35.2l-272.1,46.5
			c-48.3,8.2-88.8,40.9-107.1,86.3l-135.4,335c-59,145.9,73.8,296.5,225.9,256.2l140.4-37.1l7.9,63.8h615.8
			C2011.9,1627.3,2089.3,1511.6,2045.8,1406.3z M1190.9,1308.1l26-81.2c2.6-8.2,14.6-7.1,15.7,1.5l9.9,79.8H1190.9z"/>
		<g>
			<line class="st10" x1="1382.6" y1="1534.9" x2="1274.2" y2="1563.6"/>
			<line class="st10" x1="1190.9" y1="1310.1" x2="1408.9" y2="1310.1"/>
			<g>
				<circle class="st2" cx="1552.2" cy="943.2" r="10.5"/>
				<circle class="st2" cx="1552.2" cy="1041.6" r="10.5"/>
				<circle class="st2" cx="1552.2" cy="1139.9" r="10.5"/>
				<circle class="st2" cx="1552.2" cy="1238.2" r="10.5"/>
				<circle class="st2" cx="1552.2" cy="1330.2" r="10.5"/>
			</g>
			<path class="st10" d="M1817.1,1126.3c0,0-9.4,100.9-28,218.3"/>
		</g>
	</g>
	<g id="HANDS">
		<g id="LEFT">
			<ellipse class="st11" cx="1406.6" cy="1412.6" rx="35.9" ry="104.5"/>
			<g>
				<path class="st6" d="M1590.6,1387.1c0,0-56.3-144-79.6-141.1c-23.2,2.9,48.1,130,48.1,130L1590.6,1387.1z"/>
				<path class="st8" d="M1591.1,1412.3v85.3h-205.4c-9.1-19-15-50-15-85c0-36.9,6.6-69.3,16.5-87.9h76.5c7.6,0,15.2,1.7,22.3,5
					l78.8,36.3C1580.6,1373.2,1591.1,1391.7,1591.1,1412.3z"/>
				<path class="st2" d="M1509.5,1376l59.5,27.4c12,5.5,19.9,19.4,19.9,35v37.6"/>
				<path class="st2" d="M1509.5,1411.6l59.5,27.4c12,5.5,19.9,19.4,19.9,35v22.4"/>
				<path class="st2" d="M1512.5,1450.6l59.5,27.4c7.5,3.5,13.4,10.2,16.8,18.6"/>
			</g>
		</g>
		<g id="NOTEBOOK">
			<path class="st12" d="M1767.2,1627.3h-265.9l85.5-268.8c2.7-8.3,10.4-14,19.1-14h209.3c20.7,0,35.5,20.2,29.2,39.9L1767.2,1627.3
				z"/>
			<path class="st7" d="M1627.3,1372.5l-81.1,254.8h-45l85.2-267.8c2.8-8.9,11.1-14.9,20.4-14.9l0,0
				C1621.4,1344.6,1631.7,1358.7,1627.3,1372.5z"/>
			<path class="st9" d="M1501.8,1625.2l84.6-263.7c2.8-8.9,11.1-14.9,20.4-14.9h215.8"/>
			<path class="st10" d="M1630.1,1343.5l0-0.2c2.3-8.9,9-14.9,16.6-14.9l0,0c11.8,0,20.1,14.1,16.6,27.9l0,0.2
				c-2.3,8.9-9,14.9-16.6,14.9l0,0"/>
			<path class="st10" d="M1683.1,1343.5l0-0.2c2.3-8.9,9-14.9,16.6-14.9l0,0c11.8,0,20.1,14.1,16.6,27.9l0,0.2
				c-2.3,8.9-9,14.9-16.6,14.9l0,0"/>
			<path class="st10" d="M1736.1,1343.5l0-0.2c2.3-8.9,9-14.9,16.6-14.9l0,0c11.8,0,20.1,14.1,16.6,27.9l0,0.2
				c-2.3,8.9-9,14.9-16.6,14.9l0,0"/>
			<path class="st10" d="M1789.1,1343.5l0-0.2c2.3-8.9,9-14.9,16.6-14.9l0,0c11.8,0,20.1,14.1,16.6,27.9l0,0.2
				c-2.3,8.9-9,14.9-16.6,14.9l0,0"/>
		</g>
		<g id="RIGHT">
			<path class="st8" d="M1829.4,1432.1h36c15.4,0,29.8,7.5,38.6,20l5.2,7.4c31.9,45.3,29,106.4-7,148.5l-1.9,2.2
				c-9.3,10.8-22.8,17.1-37.1,17.1h-135.8c-39.9,0-71.3-33.9-68.2-73.7l4.8-61.5c0.8-10.5,9.5-18.5,20-18.5h111.2
				c12.5,0,23.6-8.1,27.4-20.1L1829.4,1432.1z"/>
			<path class="st2" d="M1768.2,1591.3h-49.4c-23.6,0-44.1-11.1-57.3-28"/>
			<path class="st2" d="M1770.2,1559.3h-49.4c-23.6,0-44.1-11.1-57.3-28"/>
			<path class="st2" d="M1773.2,1522.3h-49.4c-23.6,0-44.1-11.1-57.3-28"/>
		</g>
	</g>
	<g id="HEAD">
		<polygon id="NECK" class="st8" points="1584.4,797.8 1584.4,885.1 1447.6,841.8 1476.3,797.8 		"/>
		<path id="HEAD_1_" class="st8" d="M1606.7,740.8v76.3c0,15.1-12.3,27.4-27.4,27.4h-42.8c-14,0-25.4-11.4-25.4-25.4v-20.5h-31.4
			c-8.7,0-15.8-7.1-15.8-15.8V771c0-8.7,7.1-15.8,15.8-15.8h13.6c9.8,0,17.8,8,17.8,17.8v-29.4c0-11.5,9.3-20.8,20.8-20.8h56.8
			C1598.7,722.8,1606.7,730.8,1606.7,740.8z"/>
		<path id="HAIR" class="st6" d="M1622.4,706c0,18.7-15.9,33.9-35.5,33.9c-6.2,0-12-1.5-17-4.2l-24-10.2c-2.1-0.9-4.2-1.6-6.4-2
			c-2.2-0.5-4.4-0.7-6.7-0.7c-11.9,0-21.6,9.7-21.6,21.6V772h0c-0.5-9.4-8.3-16.8-17.8-16.8h-2.2v-27.2c0-13.1,10.6-23.7,23.7-23.7
			h36.6c0.9-17.9,16.4-32.2,35.4-32.2C1606.5,672,1622.4,687.2,1622.4,706z"/>
		<path id="BOW-TIE" class="st11" d="M1608.4,870.2v30c0,5.5-5.8,9-10.7,6.5l-40.9-21.1c-0.6,3.2-3.4,5.7-6.8,5.7h-4.7
			c-3.4,0-6.2-2.4-6.8-5.7l-40.8,21c-4.9,2.5-10.7-1-10.7-6.5v-30c0-5,4.8-8.5,9.6-7l41.8,13.3c0.1-3.8,3.2-6.8,7-6.8h4.7
			c3.8,0,6.9,3,6.9,6.8l41.9-13.4C1603.6,861.7,1608.4,865.2,1608.4,870.2z"/>
		<g id="FACE">
			<path class="st2" d="M1500.8,778.5c0-7.2-5.8-13-13-13"/>
			<path class="st2" d="M1576.8,813.4c-7.8,3-16.1,0-18.7-6.7l-4.9,3.9"/>
			<path class="st6" d="M1556.7,758h-20.1c-2.2,0-4.1-1.8-4.1-4.1v-0.9c0-2.2,1.8-4.1,4.1-4.1h20.1c2.2,0,4.1,1.8,4.1,4.1v0.9
				C1560.8,756.2,1559,758,1556.7,758z"/>
			<path class="st2" d="M1586,753.5V791c0,3.6-2.9,6.6-6.6,6.6h-7"/>
			<ellipse class="st11" cx="1547.5" cy="772.8" rx="4" ry="5.7"/>
			<ellipse class="st11" cx="1597.5" cy="772.8" rx="3.5" ry="5"/>
			<path class="st6" d="M1607.7,758h-20.1c-2.2,0-4.1-1.8-4.1-4.1v-0.9c0-2.2,1.8-4.1,4.1-4.1h20.1c2.2,0,4.1,1.8,4.1,4.1v0.9
				C1611.8,756.2,1610,758,1607.7,758z"/>
			<path class="st2" d="M1583.4,846.5h-45.8c-14,0-25.4-11.4-25.4-25.4"/>
		</g>
	</g>
</g>
</svg>
