<svg id="Capa_1" data-name="Capa 1" xmlns="http://www.w3.org/2000/svg" viewBox="0 0 2122 2122"><defs><style>.cls-1{fill:#3a3a44;}.cls-2{fill:#1e1e2b;}.cls-3{fill:#f9c9c6;}.cls-4{fill:#f4b2b0;}.cls-5{fill:#e0a14f;}.cls-6{fill:#d69444;}.cls-7{fill:#f5b1b1;}.cls-8{fill:#773b3a;}.cls-9{fill:#efa5a5;}.cls-10{fill:#e99292;}.cls-11{fill:#f5a9aa;}.cls-12{fill:#393a44;}.cls-13{fill:#21212d;}.cls-14{fill:#fbc786;}.cls-15{fill:#e29096;}.cls-16{fill:#181823;}.cls-17{fill:#c4a2cc;}.cls-18{fill:#f6f8e8;}</style></defs><path class="cls-1" d="M581.05,811.51c-8.86-36.24-43.15-42.2-40-88.87.16-2.39,7.88-23.63,15.35-44.23-6.92-.23-13.8-4.77-14-13.66,0-.58,0-1.17,0-1.75-6.79,40.32-14.67,80.34-30,118.47-1.79,4.46-9.08,2.5-7.27-2,18.49-46.12,25.91-95.37,33.78-144.14,2.23-13.77,4.62-27.49,7.28-41.14.44-3.41.81-6.83,1.31-10.24,10.66-71.71,38.71-140.64,80.48-199.84,38.6-61.58,89.53-119.55,157.78-147.58,4.49-1.85,6.43,5.45,2,7.27-.37.15-.73.34-1.11.5a15.76,15.76,0,0,1,6,5.6,14.2,14.2,0,0,1,1.75,9,395.45,395.45,0,0,1,34.42-47.33c3.16-3.7,8.46,1.65,5.33,5.33-21.12,24.84-38.68,52.44-53.33,81.52a444,444,0,0,1,41.92-18.09,205.63,205.63,0,0,1,26.6-63.76c2.6-4.1,9.12-.31,6.51,3.8a199.84,199.84,0,0,0-24.57,56.87q14.37-5.08,29.16-9.4,4.93-15.14,10.73-30c1.75-4.48,9-2.52,7.27,2-3.3,8.43-6.35,16.94-9.24,25.51q17.36-4.77,35.06-8.61c1.8-8.82,3.79-17.6,6.08-26.3,1.85-7,12.76-4,10.91,3-1.81,6.89-3.42,13.83-4.93,20.79,12.72-2.54,25.5-4.73,38.26-6.63.08-8.33.35-16.66.91-25,.32-4.82,7.86-4.84,7.53,0-.52,8-.77,15.91-.87,23.86q18.58-2.61,37-4.41c-1.58-5.9-3.09-11.82-4.46-17.77-1.09-4.73,6.18-6.73,7.27-2,1.47,6.38,3.08,12.73,4.79,19,13.09-1.21,26-2.13,38.75-2.84-.56-2.39-1.1-4.79-1.57-7.22-1.37-7.12,9.53-10.15,10.91-3,.62,3.25,1.34,6.46,2.14,9.65,5.73-.26,11.42-.49,17-.66,8-.24,16.16-.44,24.42-.6-2.23-3.9-4.39-7.85-6.41-11.9-3.24-6.5,6.52-12.23,9.77-5.71,3,6,6.22,11.77,9.65,17.43,19.45-.21,39.44-.07,59.66.67l-48.19-36.32c-3.84-2.89-.07-9.43,3.8-6.51l57.57,43.39a756.24,756.24,0,0,1,88.79,9.26c-38-18.2-77.45-34.8-108.72-63.78-3.57-3.3,1.78-8.63,5.33-5.33,20.62,19.11,45.24,32.79,70.36,45,20.15,9.83,40.47,19.21,60.43,29.39,43.87,9.73,85.24,24.94,120.36,48.32,59.4,39.56,109.38,100.16,140.5,165,45.06,58.63,80.59,124.58,103,195.06a17.25,17.25,0,0,1,4.76,1.66,10.86,10.86,0,0,1,4,3.66A14.67,14.67,0,0,1,1674,681.7l-.32.62c-.16.52-.31,1-.43,1.56s0,1.11,0,1.66l0,.21a14.27,14.27,0,0,1,.05,7.11c.15.57.32,1.14.46,1.71.71,2.82-1.6,4.62-3.83,4.65a16,16,0,0,1-6.6,4,10.8,10.8,0,0,1-5.66.26,10.53,10.53,0,0,1-5.27-1.69,15.79,15.79,0,0,1-6.53-8.48,20.86,20.86,0,0,1-.41-2.09c-.27-1.82-.58-3.67-.68-5.52a39.67,39.67,0,0,1,.66-7.52,21.5,21.5,0,0,1,1-4,40,40,0,0,1,3-6.78,14.28,14.28,0,0,1,7-5.91A609.46,609.46,0,0,0,1605.75,546c-10.43-18.35-21.81-36.11-34-53.32,10,35,11.18,79,14.12,116.23,35.67,57.61,61.82,120.95,71.73,188.36.7,4.76-6.57,6.79-7.27,2-8.19-55.7-27.52-109.07-54.44-158.39-2.74-5-5.57-9.94-8.44-14.85.29,2.65.59,5.28.92,7.81.66,4.73-.5,37.56,0,42.29,2.82,24.38-3.71,47.66-2.06,72q1.27,18.69,1.4,37.13c3.52,8.28,6.93,17.36.52,25a5.56,5.56,0,0,1-.92.9c-.12,3.27-.2,6.54-.36,9.8a185.3,185.3,0,0,1,27.2-5.34,154.53,154.53,0,0,1,64.64,6.32c1-6.67,1.63-13.42,2.61-19.95,6.2-41.43,13.5-82.7,19.53-124.15a434,434,0,0,1,.3-60.44c4-55.13,14.1-113.67-8.68-166.26-1.91-4.41,4.59-8.25,6.51-3.8A178.53,178.53,0,0,1,1711,487.64c-.44-5.09-.88-10.19-1.48-15.28a421.06,421.06,0,0,0-19.89-88.14c-38.25-110.49-128.72-201.07-238.88-240.06-116.56-41.25-252.08-20.37-352.65,50.91-4.75,3.36-9.37,6.9-13.93,10.52q-3.45,4.51-6.52,9.33c.05.24.12.48.18.73,1.12,1,2.29,1.83,3.38,2.84,3.58,3.3-1.76,8.62-5.33,5.33l-.74-.65a3.73,3.73,0,0,1-1.49-.12,4.06,4.06,0,0,1-1,.4c-.46.85-1,1.67-1.41,2.53-2.22,4.33-8.72.51-6.51-3.8.73-1.42,1.55-2.75,2.32-4.13-.43-.89-.88-1.77-1.33-2.65a136.54,136.54,0,0,0-25.83-14.89c-110.73-33.77-235.17-15.21-332.26,48.36C604.56,316.3,536.42,427,514.41,547.27c-.18,1-.32,2-.49,2.94,2.1-1.4,5.9-.43,6.14,3,2.83,38.74-6.33,76.88-21.19,112.45-.33.79-.68,1.56-1,2.34-2.33,16.36-5,32.66-8.49,48.84-8,37.16-18.59,74.17-33.79,109.12A124,124,0,0,1,477,814.31C510,800.4,547.41,799.83,581.05,811.51Zm699.42-670.93c40.66,2.19,81.2,8.07,120.57,18.59,66.56,17.78,129.76,49,181.38,95,47.56,42.39,84.65,96.7,103.33,157.83,2.14,7-8.78,9.95-10.9,3a322.37,322.37,0,0,0-46.71-93.51c-79.65-111-215-162.44-347.67-169.59C1273.21,151.5,1273.19,140.19,1280.47,140.58Zm-66.14,17.84c20.1,12.73,42.93,19.17,65.89,24.54,21.2,4.95,42.38,9.65,63.17,16.17a579.78,579.78,0,0,1,285.67,200.93,15,15,0,0,1,8.67-7c7.85-2.16,14.79,2.73,17.46,9.91a496.17,496.17,0,0,1,30,202.25c-.47,7.68-6.12,14.19-14.19,14.19-7.34,0-14.66-6.53-14.2-14.19a475,475,0,0,0-28.69-193.91q-15.48-21-32.84-40.53a576.57,576.57,0,0,0-171.17-130.95A552.65,552.65,0,0,0,1323.15,201c-37.92-10.43-78.75-14.64-112.63-36.1C1206.43,162.34,1210.22,155.82,1214.33,158.42Z"/><path class="cls-1" d="M374.17,1265.85c30.34-10.61,55.85-31.44,77.59-55.4,3.54-7.09,7.18-14,10.82-20.79,2.31-4.27,8.82-.46,6.51,3.81-16.81,31.17-34,66.69-40.72,102.75a158.11,158.11,0,0,0,11.41,62.11c7.45,18.22,19,35.72,36.28,45.11,26,14.12,58.7,6.72,85.09-6.71a211,211,0,0,0,81.31-73.85c2.75-9.46,6.37-18.56,12.87-26.32,3.12-3.73,8.44,1.64,5.33,5.33-10.44,12.45-12.89,30.18-16.66,45.49-4,16.38-7.93,32.81-11.24,49.36-.2,1-.37,2-.57,3,.07.9.11,1.8.2,2.7,3.85,36.69,32.32,73.56,69.21,73.46,17,0,33.2-7.75,47.34-17.27a186.86,186.86,0,0,0,71.33-92.93c-6.63,34.62.51,71.52,17.78,102.81,6.23-6.44,12.69-12.65,19.53-18.44,12.59-10.65,26.64-19.83,42.24-25.36-1.4-17.29-3.3-34.62-9.05-51A98.39,98.39,0,0,0,870,1339.66q-.57,6.94-1.12,13.87c-1.79,22.27-6,46.12-.35,68.1,1.22,4.71-6.05,6.7-7.27,2-5.71-22-1.92-45.33-.12-67.64q.93-11.65,1.88-23.33a164.41,164.41,0,0,0-23-17.58c-5.87-3.76-11.9-7.22-18-10.55a310.71,310.71,0,0,0-3.2,38.33c-.09,4.85-7.63,4.85-7.54,0a317,317,0,0,1,3.73-42.08c-17.64-9.15-35.94-17-54-25.29a687.81,687.81,0,0,1-11.09,141.83c-.88,4.77-8.14,2.74-7.27-2A677.65,677.65,0,0,0,753.36,1272c-1.89-.88-3.8-1.75-5.69-2.64-10.83-5.14-21.46-10.68-31.78-16.72-7.08,60.72-33.29,120.24-20.29,181.55,1,4.74-6.27,6.75-7.27,2-13.51-63.7,14.36-124.94,20.55-187.8a286.34,286.34,0,0,1-34.07-24.4c-.35,2.48-.69,5-1.1,7.44-.33,2-2.84,3.13-4.64,2.64a3.88,3.88,0,0,1-2.63-4.64q.93-5.67,1.66-11.37c-1-.94-2.11-1.83-3.13-2.79a253.81,253.81,0,0,1-53.49-72.81,157.23,157.23,0,0,1-11.59-30.78,133.49,133.49,0,0,1-45.54-1.38c-95.23-19.54-177.45-140-123.88-231.25a18.72,18.72,0,0,1-2.28-2.18c-20,29.54-44.74,54.53-71.86,79a392.57,392.57,0,0,0-99.65,141.78c-20,48.87-27.4,111.54,9.85,149C293.65,1273.86,337.88,1278.55,374.17,1265.85Zm192.55,99.7a604.6,604.6,0,0,0,40.55-210.26c.06-4.85,7.6-4.85,7.55,0A610.77,610.77,0,0,1,574,1367.56C572.26,1372.05,565,1370.09,566.72,1365.55Zm-7-224.2a895.31,895.31,0,0,1-43.34,225.74c-1.52,4.59-8.79,2.61-7.27-2a887.72,887.72,0,0,0,43.07-223.73C552.51,1136.52,560.05,1136.5,559.75,1141.35Zm-30.63-28.5c2.16-4.35,8.66-.53,6.51,3.81a540.87,540.87,0,0,0-56.15,246.52c.06,4.86-7.48,4.85-7.54,0A549.09,549.09,0,0,1,529.12,1112.85Zm-112.2,41.57q13.36-32.42,26.74-64.81c1.83-4.43,9.12-2.48,7.27,2l-26.73,64.81C422.37,1160.85,415.08,1158.9,416.92,1154.42Zm-23.75-116.57a415,415,0,0,0-60.51,213.25c0,4.85-7.57,4.85-7.54,0A422.81,422.81,0,0,1,386.65,1034C389.18,1029.9,395.69,1033.69,393.17,1037.85ZM282.52,1142.4c27.71-71.22,82.67-126.78,116.53-194.67,2.16-4.35,8.67-.53,6.51,3.8-41.85,83.92-121.34,153.92-130.12,251.84-.44,4.8-8,4.83-7.54,0A222.79,222.79,0,0,1,282.52,1142.4Z"/><path class="cls-1" d="M787.47,269.32l-21.53,13.86c-.07.08-.08.18-.16.27A553.79,553.79,0,0,0,729,329.68a337.13,337.13,0,0,1,40.66-25.58q8.7-18.18,18.84-35.57C788.16,268.79,787.84,269.08,787.47,269.32Z"/><path class="cls-1" d="M512.69,557.51c-4.25,25.4-7.25,51-10.38,76.58C509.91,609.39,514,583.84,512.69,557.51Z"/><path class="cls-1" d="M1593.36,1110.25a132.47,132.47,0,0,1-33.06,2.53,367.28,367.28,0,0,1-34.66,61.62c-3.55,5.09-7.28,10-11.13,14.9A1563.11,1563.11,0,0,0,1551,1362.39c1.27,4.7-6,6.68-7.28,2A1568.21,1568.21,0,0,1,1508.16,1197a229.94,229.94,0,0,1-42.81,39.42c-4.34,3-8.79,5.91-13.27,8.71,1.17,4.34,2.36,8.67,3.63,13a601.13,601.13,0,0,0,104.75,202.2c3,3.77-2.32,9.14-5.33,5.33a616.6,616.6,0,0,1-37.55-52.83,609.12,609.12,0,0,1-72.16-163.58c-15.91,9.49-32.47,17.91-48.79,26.7a480.23,480.23,0,0,0,53.2,136.9c2.44,4.21-4.07,8-6.5,3.8a486.08,486.08,0,0,1-53.58-137l-2.63,1.43c-19.37,10.74-38.26,22.6-54.52,37.55l1.32,2.27q14.4,24.72,30.28,48.53a949.42,949.42,0,0,0,70,92.12c3.15,3.67-2.16,9-5.33,5.34a967.83,967.83,0,0,1-71.14-93.65q-16.1-24.13-30.66-49.23c-3,3-5.93,6.13-8.7,9.4a161.2,161.2,0,0,0-23.18,37c28.49,55.28,77.23,101.56,118.2,146.87,3.25,3.59-2.07,8.94-5.33,5.33-14.9-16.48-30.27-32.52-45.29-48.89-26.43-28.82-52.42-60.15-71.18-94.79a208.38,208.38,0,0,0-10,33c-1.26,5.81-2.21,11.69-3,17.59a137.88,137.88,0,0,1,14.92,10.93,997,997,0,0,1,119,114.74c.93,1.06,1.85,2.14,2.78,3.21,25.55-29.92,38.28-71,35.47-110.84-.64-.84-1.33-1.65-2-2.51-2.87-3.92,3.68-7.68,6.51-3.8a250.19,250.19,0,0,0,23.66,27.68c24.54,17.37,55.87,26.59,81.32,12.35,31.61-17.69,36.92-60.78,33.79-96.87a420.21,420.21,0,0,0-20.86-99,171.32,171.32,0,0,1-13.24-23c-2.06-4.37,4.45-8.2,6.52-3.81,16.4,34.82,45.79,62.13,71.42,91.43,12.82,8,26.79,13.57,42.12,15.45,50,6.14,100.35-37,102-87.32.72-22.22-6.61-43.06-18-62.25l.77.64c16.76,13.21,39.67,20.54,59.85,13.59,24.77-8.53,38.78-37,36.71-63.1a80.61,80.61,0,0,0-2.14-13.07c-5.17-20.88-18.19-39.69-33.45-55.18-18.39-18.65-40.21-33.53-60-50.65-5.73-5-11.28-10.16-16.66-15.54-6.71-3.85-13.53-7.52-20.49-10.92-4.37-2.14-.54-8.64,3.8-6.52l.9.47q-6.11-7.09-11.76-14.57C1698.65,1054.37,1648.15,1099,1593.36,1110.25Zm85.1,225.75a378.39,378.39,0,0,1-109.55-192.07c-1.06-4.73,6.21-6.74,7.27-2a371.38,371.38,0,0,0,107.61,188.74C1687.33,1334,1682,1339.32,1678.46,1336Zm49.74-38.43a1015.39,1015.39,0,0,1-96.1-184.44c-1.8-4.52,5.5-6.46,7.27-2a1005.92,1005.92,0,0,0,95.34,182.64C1737.4,1297.83,1730.86,1301.6,1728.2,1297.57Zm-1.48-243.5c22.09,56.22,67.54,98.42,111.86,137.53,3.64,3.22-1.71,8.54-5.34,5.34-45.44-40.11-91.16-83.27-113.79-140.87C1717.67,1051.55,1725,1049.6,1726.72,1054.07Zm-40.67,28.38a525.13,525.13,0,0,0,74.15,129.61c3,3.78-2.35,9.15-5.34,5.33a537.59,537.59,0,0,1-76.08-132.93C1677,1079.94,1684.29,1078,1686.05,1082.45Z"/><path class="cls-1" d="M741.79,293.11c-3.62-.82-6.52-3.49-8.48-6.52a14.36,14.36,0,0,1-1.55-10.2A342,342,0,0,0,684,321.27c-2.15,2.43-4.24,4.92-6.34,7.39,11.26-1.51,22.33,13.61,12.2,24.3A422.21,422.21,0,0,0,643,412.11a443.56,443.56,0,0,0-70.76,203.73C583.8,514,629.56,413.57,709.37,345.27a567.67,567.67,0,0,1,38-51.78A17,17,0,0,1,741.79,293.11Z"/><path class="cls-2" d="M914.49,1418.78c21.24-35.25,38.61-72.19,46.68-112.4h0c.54-2.72.93-5.49,1.39-8.23-2.38-.87-4.76-1.78-7.14-2.64-36.56-13.12-73.56-25.14-109.51-39.82-35.39-14.43-70-31.07-101-53.64a349.51,349.51,0,0,1-79.74-81.4c-3.92-5.59-7.74-11.22-11.36-17-1.48-2.34-2.89-4.72-4.32-7.1-15.92,7.3-32.45,12.72-49.59,15.08a157.23,157.23,0,0,0,11.59,30.78A253.81,253.81,0,0,0,665,1215.22c1,1,2.09,1.85,3.13,2.79a325.39,325.39,0,0,0,2.54-33c.14-4.85,7.68-4.86,7.55,0a338.51,338.51,0,0,1-3.38,38.94,286.34,286.34,0,0,0,34.07,24.4,216.46,216.46,0,0,0,.77-35.57c-.31-4.85,7.23-4.82,7.55,0a220.58,220.58,0,0,1-1.31,39.82c10.32,6,21,11.58,31.78,16.72,1.89.89,3.8,1.76,5.69,2.64-.39-12.87-1.07-25.73-2.19-38.57-.43-4.84,7.12-4.8,7.54,0,1.23,14,2,28.06,2.31,42.11,18.1,8.24,36.4,16.14,54,25.29,1.5-9.83,3.35-19.61,5.76-29.26,1.18-4.71,8.45-2.7,7.28,2a307.43,307.43,0,0,0-6,31c6.1,3.33,12.13,6.79,18,10.55a164.41,164.41,0,0,1,23,17.58q2-24.63,4-49.25c.39-4.82,7.93-4.84,7.54,0L870,1339.66a98.39,98.39,0,0,1,20.73,34.11c5.75,16.35,7.65,33.68,9.05,51l.86-.31C905,1421.57,909.63,1419.31,914.49,1418.78Zm6.68-119.67c.19-4.84,7.73-4.85,7.54,0q-1.53,39.08-3.07,78.15c-.19,4.85-7.73,4.86-7.54,0Q919.63,1338.19,921.17,1299.11Z"/><path class="cls-2" d="M1499.79,1112.24h0c-2.26,3.44-4.54,6.88-7,10.22a348.27,348.27,0,0,1-50.57,56.71c-58.48,52.64-132.89,80.85-206.1,106.34q-18.92,6.6-37.81,13.23c.38,2.16.69,4.33,1.12,6.48.16.81.34,1.62.51,2.42,1,4.57,2,9.11,3.23,13.62.09.35.19.7.29,1,1.25,4.59,2.6,9.15,4.08,13.68.09.28.17.56.26.84,1.51,4.61,3.15,9.18,4.87,13.72l.59,1.53q2.63,6.86,5.55,13.59c.09.22.19.44.29.66,4.13,9.45,8.64,18.75,13.46,27.87q5,9.38,10.26,18.51c1.19,2,2.43,4,3.63,6,.44,0,.87-.07,1.31-.07h.22a20.8,20.8,0,0,1,3.26.3l.16,0a23.43,23.43,0,0,1,3.25.82l.39.14c.91.31,1.82.67,2.71,1.07l.34.14c3.92,1.83,8.26,2.32,12.32,4a59.68,59.68,0,0,1,8.1,4.29c.76-5.9,1.71-11.78,3-17.59a208.38,208.38,0,0,1,10-33c-15.42-28.48-26-59.19-27.74-92.62-.26-4.85,7.29-4.82,7.54,0,1.61,30.55,10.51,58.3,23.8,84.1a161.2,161.2,0,0,1,23.18-37c2.77-3.27,5.7-6.38,8.7-9.4-.25-.43-.53-.85-.78-1.28-9.23-16-18.37-32.32-21.33-50.75-.76-4.76,6.51-6.79,7.28-2,2.83,17.72,11.5,33.34,20.4,48.66,16.26-15,35.15-26.81,54.52-37.55l2.63-1.43c-2.67-11.83-5-23.75-6.8-35.77-.7-4.75,6.56-6.79,7.27-2,1.69,11.43,3.91,22.76,6.41,34,16.32-8.79,32.88-17.21,48.79-26.7q-7.11-25.86-12-52.28c-.86-4.75,6.41-6.77,7.27-2q4.6,25.33,11.34,50.2c4.48-2.8,8.93-5.66,13.27-8.71a229.94,229.94,0,0,0,42.81-39.42q-5.57-35.57-9.57-71.36c-.53-4.82,7-4.77,7.55,0q3.51,31.92,8.37,63.65c3.85-4.85,7.58-9.81,11.13-14.9a367.28,367.28,0,0,0,34.66-61.62c-18.33-.87-36-5.42-53-12.3q-2.83,4.63-5.8,9.2C1501,1110.55,1500.36,1111.38,1499.79,1112.24Z"/><path class="cls-3" d="M1418.82,1940c-.46.27-.93.52-1.39.78C1417.89,1940.55,1418.36,1940.3,1418.82,1940Z"/><path class="cls-3" d="M744.85,1941.33c-1.36-.77-2.71-1.57-4.06-2.37,1.34.8,2.7,1.59,4.06,2.37q17.07,9.75,34.72,18.4Q788.24,1964,797,1968q-8.79-4-17.45-8.24C767.83,1954,756.21,1947.82,744.85,1941.33Z"/><path class="cls-3" d="M1386.86,1956.89l-3.3,1.65Z"/><path class="cls-3" d="M844.86,1987.3a630.51,630.51,0,0,0,80.28,23.11c4.56,1,9.13,1.9,13.71,2.79-4.57-.89-9.15-1.8-13.7-2.79A634.9,634.9,0,0,1,844.86,1987.3Z"/><path class="cls-3" d="M1125.15,2024.37c-2.77.1-5.55.16-8.32.23C1119.6,2024.53,1122.38,2024.47,1125.15,2024.37Z"/><path class="cls-3" d="M1418.93,1940c1.73-1,3.41-2.08,5.06-3.18h0C1422.34,1937.89,1420.66,1939,1418.93,1940Z"/><path class="cls-3" d="M1256.83,2005.41q19.56-5,38.78-11.12a644.12,644.12,0,0,0,66.13-25.51,654.5,654.5,0,0,1-66.14,25.5Q1276.4,2000.48,1256.83,2005.41Z"/><path class="cls-3" d="M1402.27,1948.89l.34-.18c2.43-1.31,5-2.61,7.5-3.94-2.55,1.33-5.08,2.64-7.52,4Z"/><path class="cls-3" d="M1199.47,1305.22c.16.81.34,1.62.51,2.42C1199.81,1306.84,1199.63,1306,1199.47,1305.22Z"/><path class="cls-3" d="M1203.21,1321.26c.09.35.19.7.29,1C1203.4,1322,1203.3,1321.61,1203.21,1321.26Z"/><path class="cls-3" d="M1242.86,1412.71q-5.31-9.14-10.26-18.51v0a657,657,0,0,1-96.94-14.14c-31.89-7.07-63.78-15.82-94.2-27.81-25-9.86-49.36-22.25-70.91-38.39q-4.8-3.6-9.39-7.51c-8.07,40.21-25.44,77.15-46.68,112.4l.59,0c.31,0,.62,0,.94,0s.73,0,1.1,0a15.86,15.86,0,0,1,2.17.17l.09,0a19.58,19.58,0,0,1,2.18.45l.07,0a16.76,16.76,0,0,1,1.69.58l.57.19h0c5.57,2.34,8.27,7,9,12.19,0,.06,0,.11,0,.16.09.64.14,1.29.17,2,0,.11,0,.22,0,.34s0,0,0,.08a24.59,24.59,0,0,1-.1,2.84c0,.29-.06.58-.1.87-.09.74-.21,1.47-.36,2.21-.05.27-.1.54-.16.81-.2.84-.44,1.67-.71,2.49-.09.27-.18.55-.28.82-.32.9-.66,1.79-1,2.64a54.4,54.4,0,0,1-5.49,9c1.18,1.58,2.33,3.18,3.55,4.73h0a183.54,183.54,0,0,0,14.92,17,198.78,198.78,0,0,0,25.44,21.42,207.5,207.5,0,0,0,67.32,31.73c35.25,9.35,72.61,8.89,107.3-2.57a303.31,303.31,0,0,0,52.38-22.83,251.35,251.35,0,0,0,52.2-38.16c-1.08-1.47-2.13-3-3.22-4.43-3.81-5.11-8-10.05-10.64-15.88-4.74-10.26-4.38-24.6,8.74-28.18.48-.13,1-.25,1.44-.34l.32,0a16.83,16.83,0,0,1,1.86-.22C1245.29,1416.72,1244.05,1414.73,1242.86,1412.71Z"/><path class="cls-3" d="M1207.58,1336c.09.28.17.56.26.84C1207.75,1336.55,1207.67,1336.27,1207.58,1336Z"/><path class="cls-3" d="M1218.85,1365.67c.09.22.19.44.29.66C1219,1366.11,1218.94,1365.89,1218.85,1365.67Z"/><path class="cls-3" d="M1212.71,1350.55l.59,1.53Z"/><path class="cls-4" d="M1041.47,1352.28c30.42,12,62.31,20.74,94.2,27.81a657,657,0,0,0,96.94,14.14v0c-4.82-9.12-9.33-18.42-13.46-27.87-.1-.22-.2-.44-.29-.66q-2.92-6.74-5.55-13.59l-.59-1.53c-1.72-4.54-3.36-9.11-4.87-13.72-.09-.28-.17-.56-.26-.84-1.48-4.53-2.83-9.09-4.08-13.68-.1-.35-.2-.7-.29-1-1.21-4.51-2.27-9-3.23-13.62-.17-.8-.35-1.61-.51-2.42-.43-2.15-.74-4.32-1.12-6.48-5.53,2-11.06,3.88-16.58,5.87-14.44,5.18-28.75,11.75-43.37,16.65l-1.88.63c-2.94.95-5.88,1.85-8.85,2.63-30.77,8.1-64,5.33-94.83-.75-9.55-1.91-17.09-4.73-26.14-8.55-14.55-6.15-29.33-11.69-44.14-17.07-.46,2.74-.85,5.51-1.39,8.23h0q4.59,3.91,9.39,7.51C992.11,1330,1016.46,1342.42,1041.47,1352.28Z"/><path class="cls-5" d="M997.15,1749.47a1105.67,1105.67,0,0,1-117.61-21.09,340,340,0,0,0-3.83,50c0,4.16.16,8.33.38,12.49,104.1,19.71,210.25,28.85,316.08,22.51A990.58,990.58,0,0,0,1394,1780.54q-3.53-14.41-7.52-28.71c-1.4.08-2.79.23-4.19.29a247.33,247.33,0,0,1-42.23-1.84c.25-4.32.37-8.64.42-13A1093,1093,0,0,1,997.15,1749.47Z"/><path class="cls-5" d="M1037.37,1663.09a1112.65,1112.65,0,0,1-140.31-17.75c-.27,1.11-.53,2.22-.8,3.32-4.08,16.6-8.11,33.34-11.52,50.19a1072,1072,0,0,0,313.77,26.54,1049,1049,0,0,0,140.87-18.52q-.57-7-1.41-14a460.16,460.16,0,0,0-9.15-50.22A1115.09,1115.09,0,0,1,1037.37,1663.09Z"/><path class="cls-5" d="M983.52,1910.71q-30.88-2.42-61.82-5.81a226,226,0,0,0,63,49.89c84.06,10.46,169.09,12.13,253.43,1.78A824.42,824.42,0,0,0,1418.05,1914c-2.28-11-3.92-22.2-5.47-33.15q-13.07,3.24-26.23,6.18C1254.42,1916,1118,1921.32,983.52,1910.71Z"/><path class="cls-5" d="M978.59,1836.9q-49.49-5.73-98.56-14.65a179.55,179.55,0,0,0,4.77,18.55,168.94,168.94,0,0,0,13.52,31.09c36.47,4.69,73.12,8.09,109.74,10.42a1479.49,1479.49,0,0,0,198.64-.06c67.8-4.75,135.44-14.92,201.41-31.41q-3.3-20.53-7.48-40.9c-14.76,4-29.6,7.74-44.55,11C1232.34,1848.27,1104.24,1851.38,978.59,1836.9Z"/><path class="cls-5" d="M1026,1593.91q-57.16-3.33-113.76-12.36l-1.26,5.3q-3.44,14.65-6.87,29.32A1089.29,1089.29,0,0,0,1229.93,1628q45.91-5.19,91.32-14.42c-3.88-13.66-8.1-27.22-12.53-40.7C1216.05,1592.81,1120.56,1599.44,1026,1593.91Z"/><path class="cls-5" d="M928.73,1490.93c2.9.71,5.78,1.45,8.68,2.12q15.63,3.63,31.38,6.59a198.78,198.78,0,0,1-25.44-21.42,183.54,183.54,0,0,1-14.92-17A192.34,192.34,0,0,1,928.73,1490.93Z"/><path class="cls-5" d="M1283.37,1519.73a747.82,747.82,0,0,1-234.44,20.53,756,756,0,0,1-123.67-19.33c-.33,2-.67,4.08-1,6.1-1.51,8.45-3.31,16.84-5.19,25.2a1082.64,1082.64,0,0,0,268.16,9,955.79,955.79,0,0,0,111.07-16.9c-2.13-3.63-4.23-7.28-6.41-10.88-1-1.55-2-3.1-2.91-4.69Q1286.19,1524.21,1283.37,1519.73Z"/><path class="cls-5" d="M1198.36,1505.62q34-4.66,67.49-12.6c-3-4.37-6-8.75-9-13.07-2.89-4.08-5.86-8.11-8.83-12.14a251.35,251.35,0,0,1-52.2,38.16C1196.65,1505.88,1197.5,1505.72,1198.36,1505.62Z"/><path class="cls-6" d="M796.06,1804.61c-3.24-.77-6.49-1.51-9.73-2.3-6.57-1.61-13.13-3.32-19.69-5.06q-5.32,24-9.34,48.21,21,5.61,42.28,10A227.26,227.26,0,0,1,796.06,1804.61Z"/><path class="cls-6" d="M824.8,1831.15q.32,4,.77,7.92c.08.69.47,5.13.21,1.7.08,1.21.35,2.43.54,3.63.84,5.24,1.9,10.45,3.11,15.61a12.16,12.16,0,0,1,.19,1.33q34.18,6.15,68.7,10.55a168.94,168.94,0,0,1-13.52-31.09,179.55,179.55,0,0,1-4.77-18.55q-28-5.09-55.8-11.2C824.12,1817.75,824.28,1824.46,824.8,1831.15Z"/><path class="cls-6" d="M921.7,1904.9c-46.71-5.12-93.31-12.09-139.09-22.14q-15-3.29-30-7.2c-1.31,9.22-2.61,18.63-4.24,28,30.69,9.23,61.65,17.65,92.86,25.06,4.28,1,8.58,2,12.86,2.94.15-.16.25-.36.41-.52l2.87-2.22a10.49,10.49,0,0,1,5.28-1.68,12.73,12.73,0,0,1,10.48,2.79,10.78,10.78,0,0,1,3.66,4l1.81,3c35.09,7.35,70.48,13.39,106.05,17.82A226,226,0,0,1,921.7,1904.9Z"/><path class="cls-6" d="M876.09,1790.86c-.22-4.16-.37-8.33-.38-12.49a340,340,0,0,1,3.83-50q-32.68-7.7-64.83-17.35a285.21,285.21,0,0,0,.08,40.82c-11.65-1.94-23.19-4.54-34.59-7.62q-3.42,11.79-6.52,23.68c14.29,3.8,28.67,7.29,43,10.57Q846.26,1785.25,876.09,1790.86Z"/><path class="cls-6" d="M884.74,1698.85c3.41-16.85,7.44-33.59,11.52-50.19.27-1.1.53-2.21.8-3.32q-33.59-6.42-66.7-14.95a362.42,362.42,0,0,0-12.14,50.34c9.64,3,19.31,5.86,29,8.56C859.7,1692.72,872.2,1695.88,884.74,1698.85Z"/><path class="cls-6" d="M1019.87,1989a1307.86,1307.86,0,0,1-144.09-21.86,10.39,10.39,0,0,1-1.85.33,10.8,10.8,0,0,1-5.66-.25,10.67,10.67,0,0,1-4.82-2.55,2.43,2.43,0,0,1-.25-.2c-40.92-8.86-81.46-19.45-121.58-31.46-.55,1.82-1.1,3.64-1.72,5.44l.89.52c1.35.8,2.7,1.6,4.06,2.37,11.36,6.49,23,12.62,34.74,18.4Q788.26,1964,797,1968q23.49,10.65,47.82,19.33a634.9,634.9,0,0,0,80.29,23.11c4.55,1,9.13,1.9,13.7,2.79a626.49,626.49,0,0,0,119.33,11.69c19.54,0,39.11.18,58.65-.29,2.77-.07,5.55-.13,8.32-.23,6.34-.23,12.68-.5,19-.94a638.45,638.45,0,0,0,112.67-18q19.56-5,38.77-11.13a654.5,654.5,0,0,0,66.14-25.5c1.9-.84,3.81-1.65,5.7-2.51,5.42-2.51,10.78-5.09,16.12-7.73l3.3-1.65c1.58-.8,3.18-1.57,4.77-2.39C1271.86,1991.51,1144.41,2000.61,1019.87,1989Z"/><path class="cls-6" d="M904.07,1616.17q3.45-14.65,6.87-29.32l1.26-5.3c-10.15-1.61-20.29-3.32-30.39-5.19-9.17-1.71-18.4-3.47-27.63-5.35-2,4.15-4,8.32-5.87,12.53-2.74,6.09-5.29,12.26-7.77,18.46q23.49,6,47.2,11C893.17,1614.09,898.62,1615.13,904.07,1616.17Z"/><path class="cls-6" d="M919,1552.23c1.88-8.36,3.68-16.75,5.19-25.2.36-2,.7-4.06,1-6.1q-18.82-4.56-37.41-10.09c-4.17,6.62-8.27,13.28-12.22,20q-3.58,6.12-7,12.32,20.52,4.17,41.19,7.57C912.88,1551.28,916,1551.75,919,1552.23Z"/><path class="cls-6" d="M928.73,1490.93a192.34,192.34,0,0,0-.3-29.7h0c-1.22-1.55-2.37-3.15-3.55-4.73-1.68,2.32-3.44,4.59-5.16,6.88q-6.11,8.22-12,16.57c-1.09,1.54-1.95,3.12-2.85,4.69Q916.72,1488,928.73,1490.93Z"/><path class="cls-3" d="M610.76,1012.7c-2.1-6.24-4-12.48-5.83-18.73-.53-1.79-1-3.59-1.53-5.38q-2.13-7.62-4-15.27c-.32-1.29-.67-2.58-1-3.88-1.41-6-2.68-12-3.87-18-.42-2.13-.8-4.26-1.2-6.39-.78-4.23-1.5-8.45-2.18-12.69-.36-2.24-.74-4.49-1.08-6.74q-1.23-8.34-2.22-16.69c-.34-2.86-.62-5.72-.92-8.59-.19-1.83-.42-3.66-.59-5.49-.14-1.4-.23-2.8-.36-4.19-.27-3-.53-6-.76-9-.06-.75-.14-1.5-.19-2.25-.1-1.28-.13-2.57-.21-3.85q-.65-9.68-1.05-19.37c0-1-.1-2-.14-2.94-1.07-.54-2.11-1.15-3.19-1.66-.83-.39-3.6-1.62-4-1.8s-3.24-1.22-4.08-1.53a137,137,0,0,0-24-6.42l-2.19-.32-1-.1c-1.82-.16-3.65-.33-5.48-.43q-5.5-.31-11-.15-3.22.09-6.43.35l-2.74.25-1.16.12c-.48.07-1,.14-1.1.16l-2.71.46q-3.15.57-6.27,1.31-5.77,1.37-11.39,3.28c-1.73.58-3.43,1.22-5.12,1.87l-.23.09-1.93.88a109,109,0,0,0-10.34,5.53c-1.54.93-3.06,1.91-4.55,2.92-.47.32-2.22,1.57-2.61,1.83a90.54,90.54,0,0,0-8.73,7.87c-1.26,1.29-2.49,2.62-3.67,4-.54.62-3.29,4.07-1.61,1.85-6.16,8.15-16.13,12.42-25.79,6.76a17.61,17.61,0,0,1-1.88-1.4c-53.57,91.26,28.65,211.71,123.88,231.25a133.49,133.49,0,0,0,45.54,1.38c17.14-2.36,33.67-7.78,49.59-15.08A430.14,430.14,0,0,1,610.76,1012.7Zm-55.39,28.07a295.37,295.37,0,0,0-7.78-51.84,220.18,220.18,0,0,0-53.14-14.56c-3-.43-4.68-4.31-3.95-7,.88-3.21,3.94-4.38,7-3.95a219.88,219.88,0,0,1,46.34,12c-8-25.34-20.44-49-39.36-68.28-5.11-5.21,2.89-13.21,8-8,36.88,37.56,50.94,90.39,54.24,141.62C567.15,1048.05,555.83,1048,555.37,1040.77Z"/><path class="cls-3" d="M1664.77,856.94a102.3,102.3,0,0,0-23.55-4.29,141.41,141.41,0,0,0-27,.63c-1.32.16-1.33.16,0,0-1.34.2-2.67.42-4,.66q-3,.54-6,1.2c-4.61,1-9.19,2.25-13.7,3.68-2.61.83-4.85,1.58-6.93,2.32-6.32,54.39-19.76,107.82-39.32,161.24-.52,1.47-1.07,2.94-1.61,4.41s-1,2.9-1.6,4.35c-.11.31-.25.6-.37.91q-3.48,9.15-7.37,18.1l-1.17,2.68q-3.95,9-8.29,17.69l-1.14,2.24q-4.52,8.94-9.47,17.66c-.27.46-.55.92-.81,1.38-1.68,2.91-3.38,5.8-5.14,8.67,17,6.88,34.63,11.43,53,12.3a132.47,132.47,0,0,0,33.06-2.53c54.79-11.24,105.29-55.88,128.11-109.15,15.94-37.21,18.29-78.62-.78-115.8a20.75,20.75,0,0,1-13.12-5.33C1695.84,869.46,1680.57,861.39,1664.77,856.94Zm9,117.43a220.23,220.23,0,0,0-53.13,14.56,294.43,294.43,0,0,0-7.78,51.84c-.46,7.24-11.78,7.27-11.31,0,3.3-51.23,17.36-104.06,54.24-141.62,5.11-5.21,13.1,2.8,8,8-18.93,19.27-31.4,42.94-39.36,68.28a219.72,219.72,0,0,1,46.34-12c3-.43,6.06.7,7,3.95C1678.45,970.09,1676.79,973.94,1673.76,974.37Z"/><path class="cls-3" d="M1253,748.21c-4.23-.94-8.44.67-11.93,3-10,6.65-17.11,17.68-24.24,27.12a149.57,149.57,0,0,1-11.39,14c-4.86,5-11.11,8.7-17.18,12.08-14.69,8.18-30.8,13.56-47.24,16.92-32.35,6.62-68.33,6.55-100-3.26-30.7-9.49-56.82-29.19-78-53a265.71,265.71,0,0,1-30.43-41.56c-.49-.83-.89-1.69-1.36-2.52a192.71,192.71,0,0,0,13.88,29.38c2.46,4.22-4.07,8-6.54,3.82-13.79-23.67-21.84-49.35-26.49-75.85-.72-1.92-1.46-3.83-2.16-5.75q-2.48-6.74-5-13.46a422.88,422.88,0,0,0,5.66,70.67c.8,4.73-6.44,6.79-7.24,2a433.09,433.09,0,0,1-5.67-87,2.41,2.41,0,0,0-2.49,1.3c-11,20.26-27.42,38.78-50,45.84-11.45,3.58-24.63,4.49-36.31,1.43-11.06-2.91-20.3-9.77-28.72-17.27-2.33-2.08-4.63-4.2-6.92-6.33a280.26,280.26,0,0,0,17.58,32.39c2.61,4.12-3.93,7.9-6.54,3.82A286.84,286.84,0,0,1,760,658c-2.66-2.18-5.38-4.29-8.25-6.22-2.12-1.45-4.53.93-4,3.12a71.36,71.36,0,0,1,1.52,15.92,463.22,463.22,0,0,0,24.52,97c1.71,4.58-5.58,6.54-7.29,2A468.52,468.52,0,0,1,745.57,695a159.16,159.16,0,0,1-11.19,28.31,257.19,257.19,0,0,1-20,33.1c-6.17,19.43-11.92,38.91-15.51,58.7-.85,4.78-8.14,2.72-7.24-2a377.48,377.48,0,0,1,9.64-39.43q-5.44,6.72-11.15,13.19a357.6,357.6,0,0,1-26.5,27,2.84,2.84,0,0,0,0,3.91,186.3,186.3,0,0,1,18,27.39A216.5,216.5,0,0,1,709,817.14a25.89,25.89,0,0,1,5.47-5.6,196.74,196.74,0,0,1,17.86-11.86c.55-.36,1.08-.77,1.64-1.13a14.58,14.58,0,0,1,1.59-.77c1.43-.82,2.8-1.73,4.26-2.51,36.68-19.6,79.67-28.95,121.15-24.45a216.24,216.24,0,0,1,111.56,46c32.48,25.71,58,62.5,68,102.92a165.85,165.85,0,0,1,4.65,45.31,210.21,210.21,0,0,1,38.82-6.53q.63-9.53,2-19c1-7.2,11.91-4.12,10.9,3-.72,5.15-1.24,10.32-1.62,15.5a219.43,219.43,0,0,1,38,2.35,178.76,178.76,0,0,1,16.5-74.39c12.22-26.32,30.88-49.79,53.06-68.79a25.85,25.85,0,0,1,5.46-5.6,198.14,198.14,0,0,1,17.86-11.86c.56-.36,1.09-.77,1.65-1.13a15.36,15.36,0,0,1,1.58-.77c1.43-.82,2.81-1.73,4.27-2.51A218.82,218.82,0,0,1,1277,777.75c-4.41-7.23-8.65-14.58-13.74-21.29C1260.61,752.93,1257.52,749.21,1253,748.21Zm-188.09,202c-4.86,0-4.85-7.54,0-7.54S1069.76,950.25,1064.91,950.25Z"/><path class="cls-3" d="M907.26,821c-1.56-.71-.7-.3,0,0Z"/><path class="cls-3" d="M1172.94,988.37q1.14,6.27,2.67,12.46a211.6,211.6,0,0,0,8.87,27.34c1,2.63,3.08,7,5.09,11.08,1.9,3.82,3.92,7.6,6,11.31a231.26,231.26,0,0,0,15,22.79c9.78,12.88,23.55,26.5,36.62,34.9,15.17,9.75,28.45,14.63,46.51,18.69,16.66,3.74,33.28,5,52.07,3.92,16.41-.92,33-4.3,48.2-11.91,16.33-8.18,33.09-17.68,45.46-28.72a193.91,193.91,0,0,0,19.61-20.41,180.33,180.33,0,0,0,14.26-19.76c1.69-2.66,3.25-5.42,4.82-8.16-2.62-13.35-4.33-26.9-4-40.52.35-15.82,2.15-31.73.7-47.53-.6-6.54-1.73-13.09-4.41-19.12-2.82-6.36-7.93-11-13.71-14.67-6.68-4.25-14.07-7.23-21.17-10.66-8-3.85-15.64-8.47-23.4-12.71-32.56-17.79-65.6-36.29-92.06-62.72a231.32,231.32,0,0,1-19.89-23.09l-1.44.3a197,197,0,0,0-26,7.52,101.77,101.77,0,0,0-10.86,4.48q-6.12,2.87-12,6.14c-1.46.81-2.84,1.74-4.28,2.59-3.3,2.15-6.54,4.36-9.73,6.66-.88.63-1.11.78-1.17.81a12.49,12.49,0,0,1-1.1.93c-1.5,1.22-3,2.45-4.47,3.71a199.23,199.23,0,0,0-19,18.54,135,135,0,0,0-14.18,18.19c-10.24,15.3-16.35,27.73-20.9,44.57-1.19,4.39-2.09,8.83-2.91,13.3,0,0-.13.84-.22,1.42s-.22,1.67-.21,1.62q-.39,3.69-.65,7.4a176.82,176.82,0,0,0,.34,27.52A98.75,98.75,0,0,0,1172.94,988.37ZM1465,1014.92c7.28,0,7.27,11.31,0,11.31S1457.73,1014.92,1465,1014.92ZM1403,1054c-4.87,0-4.86-7.54,0-7.54S1407.81,1054,1403,1054Zm46.3-68.67c4.86,0,4.85,7.55,0,7.55S1444.41,985.31,1449.26,985.31Zm-32.42-26.89c7.29,0,7.28,11.32,0,11.32S1409.57,958.42,1416.84,958.42Zm-4.63,50c7.3,0,7.29,11.31,0,11.31S1404.93,1008.43,1412.21,1008.43Zm-39.82-10.15c4.86,0,4.85,7.54,0,7.54S1367.54,998.28,1372.39,998.28Zm-50.63-108.56a44.64,44.64,0,0,1,24.74-6.59,7.7,7.7,0,0,1,7.54,7.54,7.6,7.6,0,0,1-7.54,7.54,38.12,38.12,0,0,0-5.34.25,38.88,38.88,0,0,0-7.41,2,38.44,38.44,0,0,0-4.37,2.26c-3.59,2.22-8.15.66-10.32-2.7S1318.41,891.79,1321.76,889.72Zm-16.21,63.09a29.87,29.87,0,0,1,4.5-14.76c4.68-7.2,14.21-12.39,22.84-9.91,9.72,2.8,14.75,12.17,16.39,21.58,1.5,8.61,0,18-2.74,26.25-2.62,7.85-8.75,15.24-17.58,15.71-9.92.53-18.07-6.86-21.21-15.82A49.78,49.78,0,0,1,1305.55,952.81Zm23.69,54.15a70.07,70.07,0,0,1,19.83,5.56c26.78,11.78,49.65,39.55,33.46,68.42-14.89,26.55-50,36.51-78.59,32.74-30.21-4-68.17-27.29-58-63.07a52.31,52.31,0,0,1,2.23-6.22C1261.18,1014.61,1299.32,1003.5,1329.24,1007Zm-74.47-34.61c4.86,0,4.85,7.54,0,7.54S1249.92,972.35,1254.77,972.35Zm-11.37,38,.89-1.14a4.2,4.2,0,0,1,1.82-1.18,5.78,5.78,0,0,1,6.18,1.18l.92.92a5.71,5.71,0,0,1,1.46,2.5c.07.5.13,1,.2,1.5a5.59,5.59,0,0,1-.77,2.85l-.89,1.15a5.79,5.79,0,0,1-8,0l-.93-.93a5.62,5.62,0,0,1-1.46-2.49c-.06-.5-.13-1-.2-1.51A5.59,5.59,0,0,1,1243.4,1010.31Zm-22.89,48.33c-7.3,0-7.28-11.31,0-11.31S1227.78,1058.64,1220.51,1058.64Zm-4.64-38.13c4.86,0,4.86,7.54,0,7.54S1211,1020.51,1215.87,1020.51Zm-10.19-26c7.3,0,7.28,11.31,0,11.31S1198.41,994.54,1205.68,994.54Z"/><path class="cls-3" d="M727.92,1039.45a3.72,3.72,0,0,1,1.73-.42c4.86,0,4.85,7.54,0,7.54-.08,0-.14,0-.22,0a346.49,346.49,0,0,0,18,57.54c2,1.49,4,2.91,6,4.18,15.17,9.75,28.46,14.63,46.51,18.69a185,185,0,0,0,52.07,3.92c16.41-.92,33-4.3,48.2-11.91,16.34-8.18,33.09-17.68,45.46-28.72a191.9,191.9,0,0,0,19.61-20.41,179,179,0,0,0,14.26-19.76,212.28,212.28,0,0,0,13.05-23.81,165.36,165.36,0,0,0,8.77-23.72c9.79-33.53,8.43-68.53-6.92-99.75a157.56,157.56,0,0,0-30.27-42.86A159.76,159.76,0,0,0,926,830.44Q920,827,913.8,824c-1.77-.86-3.56-1.68-5.36-2.5l-1.05-.49c-.86-.36-1.74-.71-2.61-1a191.55,191.55,0,0,0-24.39-7.78q-6.69-1.65-13.49-2.81l-4.14-.64-2.84-.31-3.11-.3a190.25,190.25,0,0,0-27-.35A133.08,133.08,0,0,0,805,811.18a197,197,0,0,0-26,7.52,102.63,102.63,0,0,0-10.86,4.48q-6.12,2.87-12,6.14c-1.47.81-2.85,1.74-4.29,2.59q-4.93,3.21-9.73,6.66c-.88.63-1.11.78-1.16.81a14.47,14.47,0,0,1-1.11.93c-1.5,1.22-3,2.45-4.47,3.71a198,198,0,0,0-19,18.54,135,135,0,0,0-14.18,18.19c-1.17,1.74-2.27,3.43-3.33,5.11,13.84,43.17,17.8,90.23,25.44,134.58C725.36,1026.81,726.6,1033.14,727.92,1039.45Zm33.22,35.86c-7.29,0-7.28-11.31,0-11.31S768.42,1075.31,761.14,1075.31Zm167.63-15.77c-4.86,0-4.85-7.54,0-7.54S933.62,1059.54,928.77,1059.54ZM976,992.72c4.85,0,4.85,7.54,0,7.54S971.15,992.72,976,992.72Zm-17.6,27.75c7.29,0,7.28,11.32,0,11.32S951.13,1020.47,958.41,1020.47Zm-12-63c7.29,0,7.28,11.31,0,11.31S939.09,957.5,946.37,957.5Zm-23.16,33.34c7.3,0,7.28,11.31,0,11.31S915.93,990.84,923.21,990.84Zm-63-62.7c9.73,2.8,14.76,12.17,16.4,21.58,1.49,8.61,0,18-2.74,26.25-2.62,7.85-8.76,15.24-17.59,15.71-9.92.53-18.07-6.86-21.2-15.82a49.78,49.78,0,0,1-2.21-23.05,29.88,29.88,0,0,1,4.51-14.76C842.08,930.85,851.61,925.66,860.24,928.14Zm-31.35-38.07a8.1,8.1,0,0,1,5.33-2.21A47.2,47.2,0,0,1,852.35,890a7.54,7.54,0,1,1-4,14.54,33.7,33.7,0,0,0-14.12-1.6,7.43,7.43,0,0,1-5.33-2.21,7.57,7.57,0,0,1,0-10.67Zm11.3,117a3.41,3.41,0,0,1,3.37-2.33,3.36,3.36,0,0,1,3.07,1.77,97,97,0,0,1,16.24.43,70,70,0,0,1,19.84,5.56c26.78,11.78,49.65,39.55,33.46,68.42-14.9,26.55-50,36.51-78.59,32.74-30.21-4-68.17-27.29-58-63.07a50.6,50.6,0,0,1,2.23-6.22C791.67,1021.81,816,1010,840.19,1007.09Zm-51.27-16.25c7.3,0,7.28,11.31,0,11.31S781.64,990.84,788.92,990.84Zm-32.41,19.45c7.29,0,7.28,11.31,0,11.31S749.23,1010.29,756.51,1010.29Zm-16.67-38.87c4.86,0,4.85,7.54,0,7.54S735,971.42,739.84,971.42Z"/><path class="cls-3" d="M972.53,1286.41c36.52,12.44,73.8,22.15,112.08,27.29a534.1,534.1,0,0,0,62.14,4.61c-2.77,1-5.56,2-8.35,3,14.62-4.9,28.93-11.47,43.37-16.65,5.52-2,11-3.92,16.58-5.87q18.89-6.66,37.81-13.23c73.21-25.49,147.62-53.7,206.1-106.34a348.27,348.27,0,0,0,50.57-56.71c2.42-3.34,4.7-6.78,7-10.22-3-7.37-5.74-14.81-8.37-22.3-15,19.06-33.11,35.7-53.63,47.77-18.67,11-38.19,22.28-59.62,26.76a216.55,216.55,0,0,1-61.59,3.72c-42.84-3.5-83.54-18.22-114.89-48.34-30.48-29.3-52.74-69-62.69-110-.85-3.5-1.58-7-2.25-10.54a173.27,173.27,0,0,0-41.35-3.71c.34,4,.81,7.93,1.35,11.88,12.68-1.92,25.12,11.12,21,24.66-5.62,18.59-28.89,20.17-41,7.11-4.94-5.34,3-13.35,8-8,5.88,6.34,17.47,8.46,21.68-1,3.26-7.33-4.56-14.81-11.4-10.08-2.79,1.93-7.73.09-8.3-3.38q-1.69-10.34-2.52-20.68c-4,.33-7.4.71-9.79,1.13-5,.88-9.9,1.79-14.81,3a192.33,192.33,0,0,0-20.51,6.23,222.14,222.14,0,0,1-13.56,37.9c-17.25,37.46-45.76,72.34-81.52,93.38-18.68,11-38.2,22.28-59.63,26.76a216.53,216.53,0,0,1-61.59,3.72,219.44,219.44,0,0,1-43.37-7.87,276.94,276.94,0,0,0,30,34.14C854.93,1238.37,913.26,1266.22,972.53,1286.41Zm152.58-277.94c4.86,0,4.85,7.54,0,7.54S1120.26,1008.47,1125.11,1008.47Zm-56.49-4.63c4.86,0,4.85,7.54,0,7.54S1063.77,1003.84,1068.62,1003.84Zm-15.75,17.59c4.87,0,4.86,7.55,0,7.55S1048,1021.43,1052.87,1021.43Zm-18.21,33.7c.47-7.24,11.78-7.27,11.31,0-1,15.32,1,31.15,9.21,44.44,7.3,11.86,20.27,20.54,34.42,21,33.25,1.12,45.73-44,46.79-70,.3-7.26,11.61-7.28,11.32,0a119.52,119.52,0,0,1-13.3,50.8c-6.3,12-15.57,22.9-28.48,27.88-12.18,4.71-25.93,2.82-37.48-2.76C1041.93,1113.68,1032.89,1082.54,1034.66,1055.13Z"/><path class="cls-3" d="M1127.67,1324.52c3-.78,5.91-1.68,8.85-2.63C1133.59,1322.84,1130.64,1323.74,1127.67,1324.52Z"/><path class="cls-7" d="M901.83,603.41v0Z"/><path class="cls-7" d="M663.65,813.94a357.6,357.6,0,0,0,26.5-27q5.72-6.45,11.15-13.19c13.1-44.56,31.4-88.42,34-134.45C711.62,708,684.83,776,642.37,835.38a5.88,5.88,0,0,1-7.19,2q.55,2.75,1.1,5.49a232,232,0,0,1,28.21,27,202.32,202.32,0,0,1,17.18-24.61,186.3,186.3,0,0,0-18-27.39A2.84,2.84,0,0,1,663.65,813.94Z"/><path class="cls-7" d="M744.7,611.76a468.52,468.52,0,0,0,4.54,59.06,71.36,71.36,0,0,0-1.52-15.92c-.48-2.19,1.93-4.57,4-3.12,2.87,1.93,5.59,4,8.25,6.22a290,290,0,0,1-13-42.39C746.18,614.35,745.41,613.07,744.7,611.76Z"/><path class="cls-7" d="M808.15,651.6c-18.35-2-36.5-9.83-49.88-22.38a282.12,282.12,0,0,0,15,40.52c2.29,2.13,4.59,4.25,6.92,6.33,8.42,7.5,17.66,14.36,28.72,17.27,11.68,3.06,24.86,2.15,36.31-1.43,22.62-7.06,39-25.58,50-45.84a2.41,2.41,0,0,1,2.49-1.3c.28-8.31.75-16.62,1.52-24.9C873.09,639.63,841.43,655.22,808.15,651.6Z"/><path class="cls-7" d="M714.41,756.45a257.19,257.19,0,0,0,20-33.1A159.16,159.16,0,0,0,745.57,695c-2.08-10.82-3.82-21.69-5.14-32.63C735.35,694.28,724.32,725.29,714.41,756.45Z"/><path class="cls-7" d="M1401,821c-1.57-.71-.7-.3,0,0Z"/><path class="cls-7" d="M1292.93,755.73a193.89,193.89,0,0,1-29.36-31.58,178.35,178.35,0,0,0,20,35.7c2.86,3.92-3.67,7.69-6.53,3.77a179.78,179.78,0,0,1-23.77-45.31,126.84,126.84,0,0,1-64.54,63.37c-31.24,13.47-66.34,12-99,4.73A250.51,250.51,0,0,1,1007,751.14a263.12,263.12,0,0,1-80.52-83.24,208.7,208.7,0,0,0,93.09,103.36c4.27,2.32.46,8.85-3.82,6.54a216.66,216.66,0,0,1-97.89-110.91,256.35,256.35,0,0,0,13.37,54c.47.83.87,1.69,1.36,2.52A265.71,265.71,0,0,0,963,765c21.13,23.83,47.25,43.53,78,53,31.72,9.81,67.7,9.88,100,3.26,16.44-3.36,32.55-8.74,47.24-16.92,6.07-3.38,12.32-7,17.18-12.08a149.57,149.57,0,0,0,11.39-14c7.13-9.44,14.21-20.47,24.24-27.12,3.49-2.31,7.7-3.92,11.93-3,4.52,1,7.61,4.72,10.28,8.25,5.09,6.71,9.33,14.06,13.74,21.29a211.19,211.19,0,0,1,47.11-7.79c-8.34-5.54-16.58-11.2-24.67-17.07C1299.44,755.63,1295.69,758.14,1292.93,755.73Z"/><path class="cls-7" d="M1412.09,896.69c7.76,4.24,15.43,8.86,23.4,12.71,7.1,3.43,14.49,6.41,21.17,10.66,5.78,3.68,10.89,8.31,13.71,14.67,2.68,6,3.81,12.58,4.41,19.12,1.45,15.8-.35,31.71-.7,47.53-.31,13.62,1.4,27.17,4,40.52,2.93-5.11,5.73-10.31,8.23-15.65a166.57,166.57,0,0,0,8.77-23.72c1.27-4.36,2.35-8.76,3.24-13.16.74-11.32,1.72-22.6,2.86-33.85q-.23-6.66-1.1-13.27c-10.28-21.88-21.87-43.13-35.72-62.94-4-5.73-8.3-11.17-12.71-16.47-15.26-15.38-32-28.86-49.55-41.38l-1-.45c-.87-.36-1.74-.71-2.62-1a190.9,190.9,0,0,0-24.38-7.78q-6.71-1.65-13.5-2.81l-4.13-.64-2.85-.31c-1-.11-2.07-.21-3.1-.3a190.25,190.25,0,0,0-27-.35,130.21,130.21,0,0,0-23.41,3.11A231.32,231.32,0,0,0,1320,834C1346.49,860.4,1379.53,878.9,1412.09,896.69ZM1485.38,952c4.86,0,4.85,7.54,0,7.54S1480.53,952,1485.38,952Z"/><path class="cls-7" d="M679.2,988.37c0,.32.14.64.2,1a5.08,5.08,0,0,1,4.87-3.13c7.29,0,7.28,11.31,0,11.31a5.17,5.17,0,0,1-3.37-1.22c.33,1.5.6,3,1,4.53a211.56,211.56,0,0,0,8.86,27.34c1,2.63,3.08,7,5.1,11.08,1.9,3.82,3.91,7.6,6,11.31a229.47,229.47,0,0,0,14.95,22.79,163.24,163.24,0,0,0,30.64,30.72,346.49,346.49,0,0,1-18-57.54c-3.95-.22-4.45-5.55-1.51-7.08-1.32-6.31-2.56-12.64-3.65-19-7.64-44.35-11.6-91.41-25.44-134.58a135.34,135.34,0,0,0-17.58,39.46c-1.18,4.39-2.09,8.83-2.91,13.3,0,0-.12.84-.22,1.42s-.21,1.67-.21,1.62c-.25,2.46-.48,4.93-.64,7.4a178.06,178.06,0,0,0,.33,27.52A98.86,98.86,0,0,0,679.2,988.37Z"/><path class="cls-7" d="M901.82,603.39l-.07.08h0Z"/><path class="cls-7" d="M906.24,626.46c-.85,10.84-1.25,21.72-1.28,32.6q2.49,6.74,5,13.46c.7,1.92,1.44,3.83,2.16,5.75a402.44,402.44,0,0,1-5.23-48.64C906.65,628.57,906.45,627.52,906.24,626.46Z"/><path class="cls-7" d="M653.8,1103.65c3.62,5.78,7.44,11.41,11.36,17a349.51,349.51,0,0,0,79.74,81.4c31,22.57,65.62,39.21,101,53.64,36,14.68,73,26.7,109.51,39.82,2.38.86,4.76,1.77,7.14,2.64,14.81,5.38,29.59,10.92,44.14,17.07,9,3.82,16.59,6.64,26.14,8.55,30.82,6.08,64.06,8.85,94.83.75,3-.78,5.92-1.68,8.85-2.63l1.88-.63c2.79-.94,5.58-1.92,8.35-3a534.1,534.1,0,0,1-62.14-4.61c-38.28-5.14-75.56-14.85-112.08-27.29-59.27-20.19-117.6-48-163.1-92a276.94,276.94,0,0,1-30-34.14c-26.49-7.69-51-20.77-71.51-40.47-21.19-20.37-38.39-45.77-50.26-73.13A525.71,525.71,0,0,1,653.8,1103.65Z"/><path class="cls-7" d="M1499.79,1112.24h0c.57-.86,1.19-1.69,1.75-2.56-1.37-9.7-2.31-19.45-3.07-29.22q-3.4,4.83-7,9.48C1494.05,1097.43,1496.82,1104.87,1499.79,1112.24Z"/><path class="cls-7" d="M586.38,894.9c.17,1.83.4,3.66.59,5.49-.2-1.84-.37-3.69-.54-5.54Z"/><path class="cls-7" d="M584.86,875.61c.08,1.28.11,2.57.21,3.85l0-.05C585,878.15,584.94,876.88,584.86,875.61Z"/><path class="cls-7" d="M583.7,853.31h0c0,1,.1,2,.14,2.94C583.77,855.27,583.73,854.29,583.7,853.31Z"/><path class="cls-7" d="M603.4,988.59q-2.13-7.62-4-15.27Q601.27,981,603.4,988.59Z"/><path class="cls-7" d="M610.76,1012.7c-2.11-6.24-4-12.48-5.83-18.73C606.75,1000.22,608.66,1006.46,610.76,1012.7Z"/><path class="cls-7" d="M593.37,945.1q-1.17-6.35-2.18-12.69C591.87,936.65,592.59,940.87,593.37,945.1Z"/><path class="cls-7" d="M598.44,969.44c-1.41-6-2.68-12-3.87-18C595.76,957.48,597,963.47,598.44,969.44Z"/><path class="cls-7" d="M590.11,925.67q-1.23-8.34-2.22-16.69Q588.88,917.33,590.11,925.67Z"/><path class="cls-7" d="M1523.9,1070.53c-.37.75-.76,1.49-1.14,2.24Z"/><path class="cls-7" d="M1533.36,1050.16l-1.17,2.68Z"/><path class="cls-7" d="M1513.29,1090.43c-.27.46-.55.92-.81,1.38C1512.74,1091.35,1513,1090.89,1513.29,1090.43Z"/><path class="cls-7" d="M1540.73,1032.06c.12-.31.26-.6.37-.91h0C1541,1031.45,1540.85,1031.76,1540.73,1032.06Z"/><path class="cls-8" d="M837.41,938.05a29.88,29.88,0,0,0-4.51,14.76,49.78,49.78,0,0,0,2.21,23.05c3.13,9,11.28,16.35,21.2,15.82,8.83-.47,15-7.86,17.59-15.71,2.75-8.23,4.23-17.64,2.74-26.25-1.64-9.41-6.67-18.78-16.4-21.58C851.61,925.66,842.08,930.85,837.41,938.05Z"/><path class="cls-8" d="M1329,991.68c8.83-.47,15-7.86,17.58-15.71,2.75-8.23,4.24-17.64,2.74-26.25-1.64-9.41-6.67-18.78-16.39-21.58-8.63-2.48-18.16,2.71-22.84,9.91a29.87,29.87,0,0,0-4.5,14.76,49.78,49.78,0,0,0,2.2,23.05C1310.89,984.82,1319,992.21,1329,991.68Z"/><path class="cls-9" d="M1095.06,1020.16c6.84-4.73,14.66,2.75,11.4,10.08-4.21,9.44-15.8,7.32-21.68,1-5-5.35-12.94,2.66-8,8,12.11,13.06,35.38,11.48,41-7.11,4.09-13.54-8.35-26.58-21-24.66-.54-4-1-7.91-1.35-11.88-3.26.08-6.52.16-9.9.42l-1.26.11q.84,10.35,2.52,20.68C1087.33,1020.25,1092.27,1022.09,1095.06,1020.16Z"/><path class="cls-9" d="M1085.92,939.47q-1.35,9.53-2,19,5.63-.42,11.26-.55c.38-5.18.9-10.35,1.62-15.5C1097.83,935.35,1086.93,932.27,1085.92,939.47Z"/><path class="cls-10" d="M1068.45,1126.47c11.55,5.58,25.3,7.47,37.48,2.76,12.91-5,22.18-15.88,28.48-27.88a119.52,119.52,0,0,0,13.3-50.8c.29-7.28-11-7.26-11.32,0-1.06,26.08-13.54,71.16-46.79,70-14.15-.48-27.12-9.16-34.42-21-8.17-13.29-10.2-29.12-9.21-44.44.47-7.27-10.84-7.24-11.31,0C1032.89,1082.54,1041.93,1113.68,1068.45,1126.47Z"/><path class="cls-11" d="M781.83,1044.39a50.6,50.6,0,0,0-2.23,6.22c-10.19,35.78,27.77,59.09,58,63.07,28.55,3.77,63.69-6.19,78.59-32.74,16.19-28.87-6.68-56.64-33.46-68.42a70,70,0,0,0-19.84-5.56,97,97,0,0,0-16.24-.43c1.27,2.23.28,5.77-3.07,5.77-3.06,0-4.18-3-3.37-5.21C816,1010,791.67,1021.81,781.83,1044.39Zm33.95,15.18c-7.29,0-7.28-11.31,0-11.31S823.06,1059.57,815.78,1059.57Zm52.79-34.47c7.29,0,7.28,11.32,0,11.32S861.29,1025.1,868.57,1025.1Z"/><path class="cls-11" d="M1248.19,1044.39a52.31,52.31,0,0,0-2.23,6.22c-10.19,35.78,27.77,59.09,58,63.07,28.55,3.77,63.7-6.19,78.59-32.74,16.19-28.87-6.68-56.64-33.46-68.42a70.07,70.07,0,0,0-19.83-5.56C1299.32,1003.5,1261.18,1014.61,1248.19,1044.39ZM1303,1078a3.77,3.77,0,0,1-.51,1.91l-.59.76a3.73,3.73,0,0,1-1.66,1l-1,.13a2.8,2.8,0,0,1-1.45-.32,2.75,2.75,0,0,1-1.21-.78,2.81,2.81,0,0,1-.78-1.21,2.93,2.93,0,0,1-.33-1.46v-1.85a3.85,3.85,0,0,1,.52-1.9l.59-.77a3.9,3.9,0,0,1,1.67-1l1-.13a2.9,2.9,0,0,1,1.46.32,2.94,2.94,0,0,1,1.21.78,2.84,2.84,0,0,1,.78,1.22,2.78,2.78,0,0,1,.32,1.45Zm34.21,18.63c-7.29,0-7.28-11.32,0-11.32S1344.48,1096.62,1337.2,1096.62Zm13-65c7.29,0,7.28,11.31,0,11.31S1342.88,1031.59,1350.16,1031.59Zm-44.45-10.19c7.29,0,7.28,11.31,0,11.31S1298.43,1021.4,1305.71,1021.4Z"/><path class="cls-8" d="M834.22,903a33.7,33.7,0,0,1,14.12,1.6,7.54,7.54,0,1,0,4-14.54,47.2,47.2,0,0,0-18.13-2.15,8.1,8.1,0,0,0-5.33,2.21,7.57,7.57,0,0,0,0,10.67A7.43,7.43,0,0,0,834.22,903Z"/><path class="cls-8" d="M1329.38,902.74a38.44,38.44,0,0,1,4.37-2.26,38.88,38.88,0,0,1,7.41-2,38.12,38.12,0,0,1,5.34-.25,7.6,7.6,0,0,0,7.54-7.54,7.7,7.7,0,0,0-7.54-7.54,44.64,44.64,0,0,0-24.74,6.59c-3.35,2.07-5,6.83-2.7,10.32S1325.79,905,1329.38,902.74Z"/><path class="cls-9" d="M1613,985.25c-.88-3.21,1.14-5.78,4-7,2.47-1,5-1.92,7.49-2.86,8-25.34,20.43-49,39.36-68.28,5.1-5.2-2.89-13.21-8-8-36.88,37.56-50.94,90.39-54.24,141.62-.47,7.27,10.85,7.24,11.31,0a294.43,294.43,0,0,1,7.78-51.84c-.23.1-.47.17-.7.27C1617.1,990.38,1613.71,987.91,1613,985.25Z"/><path class="cls-9" d="M1670.76,963.46a219.72,219.72,0,0,0-46.34,12c-2.5.94-5,1.83-7.49,2.86-2.82,1.18-4.84,3.75-4,7,.74,2.66,4.13,5.13,7,4,.23-.1.47-.17.7-.27a220.23,220.23,0,0,1,53.13-14.56c3-.43,4.69-4.28,4-7C1676.82,964.16,1673.79,963,1670.76,963.46Z"/><path class="cls-9" d="M504.44,907.15c18.92,19.27,31.39,42.94,39.36,68.28,2.5.94,5,1.83,7.49,2.86,2.83,1.18,4.85,3.7,4,7-.74,2.68-4.14,5.13-7,4l-.69-.27a295.37,295.37,0,0,1,7.78,51.84c.46,7.23,11.78,7.28,11.31,0-3.3-51.23-17.36-104.06-54.24-141.62C507.33,893.94,499.33,901.94,504.44,907.15Z"/><path class="cls-9" d="M555.24,985.25c.9-3.26-1.12-5.78-4-7-2.47-1-5-1.92-7.49-2.86a219.88,219.88,0,0,0-46.34-12c-3-.43-6.08.74-7,3.95-.73,2.65.91,6.53,3.95,7a220.18,220.18,0,0,1,53.14,14.56l.69.27C551.1,990.38,554.5,987.93,555.24,985.25Z"/><path class="cls-1" d="M586,890.71c-.27-3-.54-6-.76-9C585.49,884.71,585.75,887.71,586,890.71Z"/><path class="cls-1" d="M584.86,875.61c.08,1.27.16,2.54.25,3.8,4.56-5.21,9-10.47,13.33-15.79-.44-.92-.85-1.85-1.29-2.78-1.81-1.13-3.59-2.32-5.45-3.38-2.61-1.49-5.31-2.81-8-4.15,0,1,.07,2,.11,2.93Q584.2,865.93,584.86,875.61Z"/><path class="cls-1" d="M633.33,836.23l-2,2.72c1.67,1.27,3.3,2.58,4.93,3.9q-.54-2.75-1.1-5.49A6.34,6.34,0,0,1,633.33,836.23Z"/><path class="cls-1" d="M609.86,886.25c-2-3.82-4-7.64-5.94-11.51-5.48,6.58-11,13-16.69,19.4l-.8.71c.17,1.85.34,3.7.54,5.54.3,2.87.58,5.73.92,8.59q1,8.35,2.22,16.69c.34,2.25.72,4.5,1.08,6.74q1,6.35,2.18,12.69c.4,2.13.78,4.26,1.2,6.39,1.19,6,2.46,12,3.87,18,.3,1.3.65,2.59,1,3.88q1.86,7.65,4,15.27c.5,1.79,1,3.59,1.53,5.38,1.82,6.25,3.72,12.49,5.83,18.73a430.14,430.14,0,0,0,38.72,83.85c1.43,2.38,2.84,4.76,4.32,7.1a525.71,525.71,0,0,0,3.89-56.93,228.5,228.5,0,0,1-12.44-36.9c-8.26-34-8-68.92,2.17-101.83-2.7-3.72-3.13-4.28-6.69-8.53q-4.76-5.65-9.87-11c-4.4-4.59-9.09-8.91-13.9-13.08.89,1.73,1.74,3.47,2.65,5.2C623,887,613.28,892.68,609.86,886.25Z"/><path class="cls-1" d="M1542.7,1026.8c.54-1.47,1.09-2.94,1.61-4.41Z"/><path class="cls-1" d="M1501.54,1109.68q3-4.56,5.8-9.2c1.76-2.87,3.46-5.76,5.14-8.67.26-.46.54-.92.81-1.38q5-8.7,9.47-17.66c.38-.75.77-1.49,1.14-2.24q4.35-8.73,8.29-17.69l1.17-2.68q3.89-9,7.37-18.1c.12-.3.23-.61.34-.91a5.73,5.73,0,0,1-6.3-4c-1.47-3.9-3-7.8-4.44-11.7a227.74,227.74,0,0,1-11,28.85,230.16,230.16,0,0,1-20.85,36.13C1499.23,1090.23,1500.17,1100,1501.54,1109.68Z"/><path class="cls-1" d="M1501.2,955.52c-1.14,11.25-2.12,22.53-2.86,33.85A145.71,145.71,0,0,0,1501.2,955.52Z"/><path class="cls-1" d="M973.06,350.09c16.47,71.67,50.78,138.72,100,193.43a441.63,441.63,0,0,0,151,109.06,358.17,358.17,0,0,0,19.09-33.13c4.86,17.2,15.16,32.79,25.82,46.87,6.18,8.16,12.74,16,19.47,23.75,6.53,7.5,13,15.18,20.54,21.64,30.1,25.61,70.74,31.35,103.75,51.9,18.72,11.66,35.53,26.89,50.46,43q5.57,6,10.79,12.36a683.52,683.52,0,0,0-67.39-142c-52.57-84-124.9-150.61-196.2-218.34-35.51-33.73-70.78-68-102.1-105.77-28-33.69-52.8-71.42-62.87-114.45-12.72.71-25.66,1.63-38.75,2.84a519.64,519.64,0,0,0,48.2,118.27,515.83,515.83,0,0,0,77.71,105.08c32.46,33.83,69.27,63,105.87,92.15,68.21,54.27,139.19,111.88,175.57,193.43,2,4.4-4.54,8.23-6.51,3.81-20.3-45.5-52.13-84.3-87.88-118.57-66.87-64.09-147.27-113-208.53-183.12A528.75,528.75,0,0,1,999.06,242q-18.37,1.83-37,4.41A438.28,438.28,0,0,0,973.06,350.09Z"/><path class="cls-1" d="M1541.87,441.43q10,11.83,19.37,24.13c-31.12-64.84-81.1-125.44-140.5-165-35.12-23.38-76.49-38.59-120.36-48.32,4.76,2.43,9.51,4.86,14.21,7.4C1400.34,306,1478.93,366.77,1541.87,441.43Z"/><path class="cls-1" d="M706,556.41c8.87-20.25,17.88-40.57,23.29-61.9,2.74,14.82,8.29,29.19,15.16,42.47a176,176,0,0,0,29.43,41.67A471.32,471.32,0,0,1,779,325.56c1.4-4.64,8.68-2.65,7.27,2a463.61,463.61,0,0,0-1.79,260.87c.45.38.87.79,1.33,1.16,15,12.17,33.75,20.79,53.42,18.1,17.65-2.41,32.36-13.51,44.28-26.14,13-13.75,23.42-29.61,34.5-44.89,12.62,63.52,48.47,124.16,103.13,160,24.05,15.77,52.57,27.3,81.6,29a400.48,400.48,0,0,1-58.82-41.15C983.62,633.6,938.81,565.54,915.1,490.38s-26.71-156.46-10.92-233.69q-17.67,3.84-35.06,8.61c-4.09,12.14-7.81,24.39-11,36.79A544.68,544.68,0,0,0,848.61,531c.82,4.75-6.44,6.78-7.27,2a548.51,548.51,0,0,1,19-265.19q-14.79,4.32-29.16,9.4c-1.1,4.24-2.11,8.5-2.93,12.82-.91,4.77-8.17,2.74-7.27-2,.49-2.59,1.06-5.16,1.66-7.73a444,444,0,0,0-41.92,18.09q-8.15,16.15-15.12,32.83C735.52,403.21,720.86,480.09,706,556.41Z"/><path class="cls-12" d="M1580.33,802.21c2.83-3.36-4.39-16.11-5.77-19.5q-4-9.74-8.36-19.3-8.43-18.52-18-36.48a726.56,726.56,0,0,0-42.53-69.49c-58-84.09-131.57-155.86-207.68-223.4-38.58-34.24-78.38-67.11-116.82-101.52-31.53-28.23-61.71-59-82.79-95.91-8.26.16-16.42.36-24.42.6-5.61.17-11.3.4-17,.66,12.2,48.95,43.77,90.24,77,127.33,65.52,73.22,142.78,134.82,208.33,208,65.15,72.74,115,157.74,145.39,250.62,1.24,3.79-1.46,6.38-4.53,6.84,1.16,1.55,2.3,3.12,3.42,4.69a201,201,0,0,1,22.43,27.76c22.82-19.64,49.31-34.31,78.15-42.21.16-3.26.24-6.53.36-9.8C1582.67,814.78,1576,807.4,1580.33,802.21Z"/><path class="cls-1" d="M622.37,762.9c7.87-14.64,15.77-29.15,22.49-44.36,6.5-14.72,12.28-29.75,17.74-44.89,10-27.91,19-56.26,29.66-84,11.55-57,20.93-114.57,36-170.8,10.52-39.24,23.83-78.1,41.39-114.79A337.13,337.13,0,0,0,729,329.68c-9.81,13.74-19.08,27.87-27.68,42.43C630.3,492.43,603.56,632.7,599.79,771c-.13,4.85-7.67,4.86-7.54,0a1126.5,1126.5,0,0,1,9.68-122.13c14.66-107.11,48.4-213,107.44-303.56C629.56,413.57,583.8,514,572.24,615.84a431.13,431.13,0,0,0-1.52,48.91c.25,9.38-7.08,13.9-14.35,13.66C548.9,699,541.18,720.25,541,722.64c-3.12,46.67,31.17,52.63,40,88.87,2.6.9,5.18,1.86,7.73,2.91,2.33,1,4.57,2,6.84,3.08C603.48,798.82,612.79,780.74,622.37,762.9Z"/><path class="cls-1" d="M1287.19,315.28c86.06,65,172.27,132,241.82,215.1a683.52,683.52,0,0,1,56.9,78.48c-2.94-37.2-4.15-81.26-14.12-116.23-43.84-62.11-98.25-116.57-159.33-161.91A849.28,849.28,0,0,0,1289,254.79c-5.31-2.69-10.67-5.29-16.06-7.87a756.24,756.24,0,0,0-88.79-9.26Q1235.71,276.45,1287.19,315.28Z"/><path class="cls-1" d="M1209.6,342.47c81.1,70.09,163.7,139.14,235,219.51,33.12,37.33,63.8,77,90.22,119.36A675.68,675.68,0,0,1,1571,747q7.93,16.61,14.88,33.68c.61,1.48,1.27,3,1.93,4.56q-.13-18.45-1.4-37.13c-1.65-24.38,4.88-47.66,2.06-72-.55-4.73.61-37.56,0-42.29-.33-2.53-.63-5.16-.92-7.81C1537.89,541.21,1468,470.61,1393,407.87c-41.7-34.89-85.11-67.66-128.53-100.37L1171,237.1c-20.22-.74-40.21-.88-59.66-.67C1136.52,277.83,1173.11,310.93,1209.6,342.47Z"/><path class="cls-1" d="M906.19,376.79c4.16,81.12,30.41,160.45,77.92,226.54,36.46,50.72,84.93,93.09,140.61,121.51,23.45-3.17,45-13.89,63-29.53a197.24,197.24,0,0,0,32.11-36.42,443.86,443.86,0,0,1-84.13-48.57c-58-42.65-105.51-99-136.78-163.88a449.75,449.75,0,0,1-44.4-198.89c-12.76,1.9-25.54,4.09-38.26,6.63A467.88,467.88,0,0,0,906.19,376.79Z"/><path class="cls-1" d="M1534.77,1027.18a5.73,5.73,0,0,0,6.3,4h0c.55-1.45,1.05-2.9,1.6-4.35l1.61-4.41c19.56-53.42,33-106.85,39.32-161.24a121.1,121.1,0,0,0-16.61,7.52,165.2,165.2,0,0,0-40,28.83,169.49,169.49,0,0,1,7.18,22.24c7.91,32,5.54,64.76-3.89,95.74C1531.8,1019.38,1533.3,1023.28,1534.77,1027.18Z"/><path class="cls-13" d="M1459.69,871.11c-2.6-2.85-5.32-5.55-8-8.27,4.41,5.3,8.69,10.74,12.71,16.47,13.85,19.81,25.44,41.06,35.72,62.94q-.76-5.67-2-11.27c-.1-.2-.22-.38-.31-.6C1489.05,908.36,1475.62,888.55,1459.69,871.11Z"/><path class="cls-13" d="M1463.18,806.66c-14.93-16.16-31.74-31.39-50.46-43-33-20.55-73.65-26.29-103.75-51.9-7.59-6.46-14-14.14-20.54-21.64-6.73-7.73-13.29-15.59-19.47-23.75-10.66-14.08-21-29.67-25.82-46.87a358.17,358.17,0,0,1-19.09,33.13c6,2.62,12,5.15,18.16,7.5,4.49,1.73,2.53,9-2,7.28-6.88-2.64-13.66-5.51-20.39-8.47a197.24,197.24,0,0,1-32.11,36.42c-18,15.64-39.53,26.36-63,29.53,10.53,5.38,21.3,10.32,32.32,14.66,6.71,2.64,3.77,13.57-3,10.91a390.6,390.6,0,0,1-51.33-24.78c-29-1.66-57.55-13.19-81.6-29-54.66-35.85-90.51-96.49-103.13-160-11.08,15.28-21.51,31.14-34.5,44.89-11.92,12.63-26.63,23.73-44.28,26.14-19.67,2.69-38.46-5.93-53.42-18.1-.46-.37-.88-.78-1.33-1.16.42,1.48.79,3,1.22,4.43,1.39,4.67-5.89,6.64-7.27,2q-2.4-8.07-4.5-16.21A176,176,0,0,1,744.47,537c-6.87-13.28-12.42-27.65-15.16-42.47-5.41,21.33-14.42,41.65-23.29,61.9q-2,10.49-4.09,21C687,653,672.6,735.1,621.31,795.75c-3.14,3.71-8.45-1.64-5.33-5.33,28.55-33.76,45.16-75.33,56.86-117.53,7.61-27.46,13.77-55.27,19.42-83.2-10.66,27.7-19.61,56-29.66,84-5.46,15.14-11.24,30.17-17.74,44.89-6.72,15.21-14.62,29.72-22.49,44.36-9.58,17.84-18.89,35.92-26.75,54.6A192.57,192.57,0,0,1,631.35,839l2-2.72a4.63,4.63,0,0,1-.73-6.56c50.74-70.95,78.85-154.19,106.22-236.14,1.68-5,9.54-5.71,10.91,0,6.65,27.72,34.48,45.24,61.86,47.06,33.75,2.25,65.2-16.14,90.16-37.12l.07-.08v0l.14-.11c3.2-2.7,8.2-1.85,9.45,2.49a235.4,235.4,0,0,0,44.37,84.32c35.55,43.31,85.42,74.83,140.48,86.15,31.29,6.43,65,7.08,94.11-7.79,25.56-13.08,46-35.49,55.88-62.55a5.83,5.83,0,0,1,7-3.68,5,5,0,0,1,5.67,1.32c18.45,19.06,39.38,35.34,61.24,50.31,8,5.44,16.11,10.81,24.34,16.15,3.41.19,6.82.43,10.22.8a216.21,216.21,0,0,1,111.55,46c3.39,2.68,6.65,5.56,9.88,8.47-.7-2.1-1.45-4.18-2.16-6.27Q1468.74,812.69,1463.18,806.66Z"/><path class="cls-13" d="M1481.86,830.74c1.55,1.52,3.09,3,4.6,4.62-1.12-1.57-2.26-3.14-3.42-4.69A6.68,6.68,0,0,1,1481.86,830.74Z"/><path class="cls-13" d="M585.11,879.41l0,.05c0,.75.13,1.5.19,2.25.22,3,.49,6,.76,9,.13,1.39.22,2.79.36,4.19l0,0,.8-.71c5.68-6.38,11.21-12.82,16.69-19.4,1.92,3.87,3.92,7.69,5.94,11.51,3.42,6.43,13.17.75,9.75-5.68-.91-1.73-1.76-3.47-2.65-5.2-2-1.76-4-3.57-6.13-5.24-.41-.29-3-2.25-3.53-2.63-1.59-1.14-3.19-2.26-4.82-3.35s-3.55-2.2-5.33-3.31c.44.93.85,1.86,1.29,2.78C594.08,868.94,589.67,874.2,585.11,879.41Z"/><path class="cls-14" d="M1198.36,1505.62c-.86.1-1.71.26-2.57.35a303.31,303.31,0,0,1-52.38,22.83c-34.69,11.46-72.05,11.92-107.3,2.57a207.5,207.5,0,0,1-67.32-31.73q-15.76-2.94-31.38-6.59c-2.9-.67-5.78-1.41-8.68-2.12q-12-3-23.9-6.29c-.45.78-.87,1.56-1.39,2.32q-2.09,3.07-4.14,6.16-4.12,6.18-8.13,12.44c-1.12,1.74-2.21,3.52-3.32,5.28q18.58,5.51,37.41,10.09a756,756,0,0,0,123.67,19.33,747.82,747.82,0,0,0,234.44-20.53l-.15-.24c-1.37-2.16-2.72-4.33-4.1-6.48q-3.54-5.49-7.17-10.93c-1.28-1.92-2.53-3.86-3.83-5.78-.74-1.1-1.52-2.18-2.27-3.28Q1232.43,1500.91,1198.36,1505.62Z"/><path class="cls-14" d="M1187.2,1561.18a1082.64,1082.64,0,0,1-268.16-9c-3.08-.48-6.16-1-9.23-1.46q-20.64-3.4-41.19-7.57Q861,1556.9,854.18,1571c9.23,1.88,18.46,3.64,27.63,5.35,10.1,1.87,20.24,3.58,30.39,5.19q56.52,8.94,113.76,12.36c94.6,5.53,190.09-1.1,282.76-21,0-.1-.07-.2-.1-.3-2.71-8.26-5.36-16.61-8.3-24.81-.67-1.17-1.37-2.32-2-3.49A955.79,955.79,0,0,1,1187.2,1561.18Z"/><path class="cls-14" d="M904.07,1616.17c-5.45-1-10.9-2.08-16.33-3.2q-23.7-4.93-47.2-11c-1.11,2.8-2.25,5.59-3.3,8.41q-3.71,9.88-6.88,20,33.1,8.52,66.7,14.95a1108.77,1108.77,0,0,0,431.76-2.72c-.82-3.46-1.63-6.93-2.5-10.38-1.59-6.24-3.31-12.46-5.07-18.66q-45.35,9.21-91.32,14.42A1089.29,1089.29,0,0,1,904.07,1616.17Z"/><path class="cls-14" d="M884.74,1698.85c-12.54-3-25-6.13-37.47-9.56-9.74-2.7-19.41-5.59-29-8.56q-2.49,15.07-3.51,30.3,32.12,9.71,64.83,17.35a1105.67,1105.67,0,0,0,117.61,21.09,1093,1093,0,0,0,343.29-12.15q.19-15.24-1.06-30.45a1049,1049,0,0,1-140.87,18.52A1072,1072,0,0,1,884.74,1698.85Z"/><path class="cls-14" d="M876.09,1790.86q-29.82-5.64-59.39-12.38c-14.35-3.28-28.73-6.77-43-10.57q-2.53,9.72-4.85,19.5c-.78,3.27-1.46,6.56-2.19,9.84,6.56,1.74,13.12,3.45,19.69,5.06,3.24.79,6.49,1.53,9.73,2.3.08-1.76.14-3.52.26-5.28.55-7.95,6.06-13.83,14.19-14.2,7.3-.32,14.71,6.77,14.19,14.2-.27,3.9-.4,7.81-.47,11.72q27.79,6.09,55.8,11.2,49,8.89,98.56,14.65c125.65,14.48,253.75,11.37,377.49-15.93,15-3.29,29.79-7,44.55-11q-2.33-11.3-5-22.53c-.54-2.3-1.15-4.58-1.71-6.87a990.58,990.58,0,0,1-201.79,32.83C1086.34,1819.71,980.19,1810.57,876.09,1790.86Z"/><path class="cls-14" d="M1008.06,1882.31c-36.62-2.33-73.27-5.73-109.74-10.42q-34.49-4.44-68.7-10.55a14.42,14.42,0,0,1-10.1,16.13c-7.1,2.3-15.75-2.68-17.46-9.91-.94-4-1.74-8-2.48-12.06q-21.27-4.44-42.28-10c-1.48,8.9-2.89,17.82-4.17,26.76-.16,1.11-.32,2.23-.47,3.34q14.93,3.9,30,7.2c45.78,10,92.38,17,139.09,22.14q30.91,3.39,61.82,5.81c134.44,10.61,270.9,5.28,402.83-23.73q13.17-2.93,26.23-6.18c-.4-2.87-.81-5.74-1.21-8.58q-1.53-10.71-3.26-21.38c-66,16.49-133.61,26.66-201.41,31.41A1479.49,1479.49,0,0,1,1008.06,1882.31Z"/><path class="cls-14" d="M1418.05,1914a824.42,824.42,0,0,1-179.92,42.62c-84.34,10.35-169.37,8.68-253.43-1.78-35.57-4.43-71-10.47-106.05-17.82l5.65,9.39a14.07,14.07,0,0,1,1.94,7.16l-.51,3.77a14.21,14.21,0,0,1-3.65,6.27l-2.87,2.22a10.82,10.82,0,0,1-3.43,1.35A1307.86,1307.86,0,0,0,1019.87,1989c124.54,11.62,252,2.52,371.76-34.49,3.56-1.8,7.12-3.7,10.64-5.61l.32-.17c2.44-1.31,5-2.62,7.52-4s4.89-2.59,7.32-4c.46-.26.93-.51,1.39-.78l.11-.06c1.73-1,3.41-2.08,5.06-3.18A208.53,208.53,0,0,1,1418.05,1914Z"/><path class="cls-14" d="M859.79,1960.68l-7.46-12.4a14.07,14.07,0,0,1-1.94-7.16l.51-3.78a14.06,14.06,0,0,1,3.24-5.74c-4.28-1-8.58-1.92-12.86-2.94-31.21-7.41-62.17-15.83-92.86-25.06a244.91,244.91,0,0,1-6.8,29.4c40.12,12,80.66,22.6,121.58,31.46A10.7,10.7,0,0,1,859.79,1960.68Z"/><path class="cls-3" d="M900.68,1424.43c.59-.2,1.16-.44,1.75-.63a54.33,54.33,0,0,0,6.14-2c1.33-.61,2.47-1.54,3.76-2.2a9.1,9.1,0,0,1,2.75-.87l-.59,0C909.63,1419.31,905,1421.57,900.68,1424.43Z"/><path class="cls-3" d="M923.91,1420.1c5.22,2.2,8.21,6.85,9,12.19C932.18,1427.05,929.48,1422.44,923.91,1420.1Z"/><path class="cls-3" d="M933.11,1434.4c0-.66-.08-1.31-.17-2C933,1433.09,933.08,1433.74,933.11,1434.4Z"/><path class="cls-3" d="M931.7,1444c.27-.82.51-1.65.71-2.49C932.21,1442.39,932,1443.22,931.7,1444Z"/><path class="cls-3" d="M932.57,1440.74c.15-.74.27-1.47.36-2.21C932.84,1439.27,932.72,1440,932.57,1440.74Z"/><path class="cls-3" d="M930.37,1447.5c.39-.85.73-1.74,1-2.64C931.1,1445.75,930.76,1446.64,930.37,1447.5Z"/><path class="cls-3" d="M921.56,1419.3c.61.18,1.2.38,1.76.6a16.76,16.76,0,0,0-1.69-.58Z"/><path class="cls-3" d="M916,1418.69a10,10,0,0,1,1.1,0C916.75,1418.65,916.38,1418.68,916,1418.69Z"/><path class="cls-3" d="M933.13,1434.82a24.43,24.43,0,0,1-.1,2.84A24.59,24.59,0,0,0,933.13,1434.82Z"/><path class="cls-3" d="M919.38,1418.85l-.09,0Z"/><path class="cls-3" d="M741.62,1933a244.91,244.91,0,0,0,6.8-29.4c1.63-9.41,2.93-18.82,4.24-28,.15-1.11.31-2.23.47-3.34,1.28-8.94,2.69-17.86,4.17-26.76q4.05-24.23,9.34-48.21c.73-3.28,1.41-6.57,2.19-9.84q2.31-9.78,4.85-19.5,3.09-11.88,6.52-23.68a359.75,359.75,0,0,1-77.62-31c-.9-.49-1.79-1-2.7-1.51-23.12,60.33-38.81,123.87-41.8,185.4-.75,15.49,0,31.16,3.4,46.31,2.5,11.07,7.17,22.45,15.5,30.44,8.17,7.84,19.95,11.29,30.81,7.2s18.88-13.82,24.2-23.94a131.16,131.16,0,0,0,7.91-18.71C740.52,1936.64,741.07,1934.82,741.62,1933Z"/><path class="cls-5" d="M780.2,1744.23c11.4,3.08,22.94,5.68,34.59,7.62a285.21,285.21,0,0,1-.08-40.82q1-15.21,3.51-30.3a362.42,362.42,0,0,1,12.14-50.34q3.18-10.08,6.88-20c1-2.82,2.19-5.61,3.3-8.41,2.48-6.2,5-12.37,7.77-18.46,1.89-4.21,3.86-8.38,5.87-12.53q6.81-14.12,14.44-27.81,3.43-6.2,7-12.32c4-6.76,8-13.42,12.22-20,1.11-1.76,2.2-3.54,3.32-5.28q4-6.25,8.13-12.44,2.06-3.09,4.14-6.16c.52-.76.94-1.54,1.39-2.32.9-1.57,1.76-3.15,2.85-4.69q5.93-8.35,12-16.57c1.72-2.29,3.48-4.56,5.16-6.88a54.4,54.4,0,0,0,5.49-9c.39-.86.73-1.75,1-2.64.1-.27.19-.55.28-.82.27-.82.51-1.65.71-2.49.06-.27.11-.54.16-.81.15-.73.27-1.47.36-2.21,0-.29.07-.58.1-.87a24.43,24.43,0,0,0,.1-2.84s0,0,0-.08,0-.23,0-.34c0-.66-.08-1.31-.17-2,0,0,0-.1,0-.16-.8-5.34-3.79-10-9-12.19h0l-.57-.19c-.56-.22-1.15-.42-1.76-.6a19.58,19.58,0,0,0-2.18-.45l-.09,0a15.86,15.86,0,0,0-2.17-.17,10,10,0,0,0-1.1,0c-.32,0-.63,0-.94,0a9.1,9.1,0,0,0-2.75.87c-1.29.66-2.43,1.59-3.76,2.2a54.33,54.33,0,0,1-6.14,2c-.59.19-1.16.43-1.75.63l-.86.31c-15.6,5.53-29.65,14.71-42.24,25.36-6.84,5.79-13.3,12-19.53,18.44s-12,12.87-17.81,19.46c-55.63,63.11-109.44,132.18-128.46,214.13a4.86,4.86,0,0,0,2.88,6.69c1.73,1,3.48,2,5.22,2.92.91.5,1.8,1,2.7,1.51A359.75,359.75,0,0,0,780.2,1744.23Z"/><path class="cls-3" d="M1251.28,1419a20.8,20.8,0,0,0-3.26-.3A22.07,22.07,0,0,1,1251.28,1419Z"/><path class="cls-3" d="M1254.69,1419.82a23.43,23.43,0,0,0-3.25-.82A23.43,23.43,0,0,1,1254.69,1419.82Z"/><path class="cls-3" d="M1257.79,1421c-.89-.4-1.8-.76-2.71-1.07C1256,1420.27,1256.9,1420.63,1257.79,1421Z"/><path class="cls-3" d="M1246.49,1418.73a16.83,16.83,0,0,0-1.86.22,18.78,18.78,0,0,1,3.17-.29C1247.36,1418.66,1246.93,1418.7,1246.49,1418.73Z"/><path class="cls-3" d="M1386.44,1751.83q4,14.28,7.52,28.71c.56,2.29,1.17,4.57,1.71,6.87q2.65,11.23,5,22.53,4.18,20.37,7.48,40.9,1.73,10.67,3.26,21.38c.4,2.84.81,5.71,1.21,8.58,1.55,11,3.19,22.13,5.47,33.15a208.53,208.53,0,0,0,5.94,22.84h0a133.35,133.35,0,0,0,8.51,20.36c5.33,10.12,13.24,19.81,24.21,23.94s22.64.64,30.81-7.2c8.33-8,13-19.37,15.5-30.44,3.44-15.15,4.15-30.82,3.39-46.31-2.66-54.83-15.42-111.27-34.53-165.61A252.54,252.54,0,0,1,1386.44,1751.83Z"/><path class="cls-3" d="M1289,1528.71c-.5-.85-1-1.71-1.51-2.55-1.38-2.23-2.82-4.44-4.22-6.67l.15.24Q1286.19,1524.2,1289,1528.71Z"/><path class="cls-3" d="M1277.56,1510.55c-1.84-2.84-3.74-5.65-5.61-8.47q3.61,5.45,7.17,10.93C1278.59,1512.19,1278.09,1511.36,1277.56,1510.55Z"/><path class="cls-3" d="M1268.12,1496.3q-5.56-8.23-11.3-16.35c3.06,4.32,6,8.7,9,13.07C1266.6,1494.12,1267.38,1495.2,1268.12,1496.3Z"/><path class="cls-3" d="M1300.32,1547.77c-.54-1.53-1-3.08-1.6-4.6-1.2-3.16-3.51-4.91-5.44-7.56-.51-.71-1-1.48-1.42-2.21,2.18,3.6,4.28,7.25,6.41,10.88C1299,1545.45,1299.65,1546.6,1300.32,1547.77Z"/><path class="cls-5" d="M1293.47,1440.43a137.88,137.88,0,0,0-14.92-10.93,59.68,59.68,0,0,0-8.1-4.29c-4.06-1.72-8.4-2.21-12.32-4l-.34-.14c-.89-.4-1.79-.76-2.71-1.07l-.39-.14a23.43,23.43,0,0,0-3.25-.82l-.16,0a22.07,22.07,0,0,0-3.26-.3h-.22a18.78,18.78,0,0,0-3.17.29l-.32,0c-.48.09-1,.21-1.44.34-13.12,3.58-13.48,17.92-8.74,28.18,2.69,5.83,6.83,10.77,10.64,15.88,1.09,1.46,2.14,3,3.22,4.43,3,4,5.94,8.06,8.83,12.14q5.75,8.11,11.3,16.35c1.3,1.92,2.55,3.86,3.83,5.78,1.87,2.82,3.77,5.63,5.61,8.47.53.81,1,1.64,1.56,2.46,1.38,2.15,2.73,4.32,4.1,6.48s2.84,4.44,4.22,6.67c.52.84,1,1.7,1.51,2.55.93,1.59,1.92,3.14,2.91,4.69.47.73.91,1.5,1.42,2.21,1.93,2.65,4.24,4.4,5.44,7.56.57,1.52,1.06,3.07,1.6,4.6,2.94,8.2,5.59,16.55,8.3,24.81,0,.1.07.2.1.3,4.43,13.48,8.65,27,12.53,40.7,1.76,6.2,3.48,12.42,5.07,18.66.87,3.45,1.68,6.92,2.5,10.38a460.16,460.16,0,0,1,9.15,50.22q.84,7,1.41,14,1.24,15.2,1.06,30.45c0,4.32-.17,8.64-.42,13a247.33,247.33,0,0,0,42.23,1.84c1.4-.06,2.79-.21,4.19-.29a252.54,252.54,0,0,0,85.44-20.3c6.67-2.89,13.26-6,19.65-9.45a8.86,8.86,0,0,0,3.68-3c1-1.77.76-4,.42-6a265.11,265.11,0,0,0-28.88-83.73c-14-25.71-32.27-48.88-51.51-71-.93-1.07-1.85-2.15-2.78-3.21A997,997,0,0,0,1293.47,1440.43Z"/><path class="cls-15" d="M756.51,1021.6c7.28,0,7.29-11.31,0-11.31S749.22,1021.6,756.51,1021.6Z"/><path class="cls-15" d="M815.78,1048.26c-7.28,0-7.29,11.31,0,11.31S823.07,1048.26,815.78,1048.26Z"/><path class="cls-15" d="M923.21,1002.15c7.28,0,7.3-11.31,0-11.31S915.92,1002.15,923.21,1002.15Z"/><path class="cls-15" d="M946.37,968.81c7.28,0,7.29-11.31,0-11.31S939.08,968.81,946.37,968.81Z"/><path class="cls-15" d="M958.41,1031.79c7.28,0,7.29-11.32,0-11.32S951.11,1031.79,958.41,1031.79Z"/><path class="cls-15" d="M868.57,1036.42c7.28,0,7.29-11.32,0-11.32S861.28,1036.42,868.57,1036.42Z"/><path class="cls-15" d="M1220.51,1058.64c7.27,0,7.28-11.31,0-11.31S1213.21,1058.64,1220.51,1058.64Z"/><path class="cls-15" d="M1244.29,1017.16l.93.93a6.18,6.18,0,0,0,4,1.65,6.23,6.23,0,0,0,4-1.65l.89-1.15a5.59,5.59,0,0,0,.77-2.85c-.07-.5-.13-1-.2-1.5a5.71,5.71,0,0,0-1.46-2.5l-.92-.92a4.25,4.25,0,0,0-1.82-1.18,5.19,5.19,0,0,0-4.36,0,4.2,4.2,0,0,0-1.82,1.18l-.89,1.14a5.59,5.59,0,0,0-.77,2.85c.07.5.14,1,.2,1.51A5.62,5.62,0,0,0,1244.29,1017.16Z"/><path class="cls-15" d="M1205.68,1005.85c7.28,0,7.3-11.31,0-11.31S1198.4,1005.85,1205.68,1005.85Z"/><path class="cls-15" d="M1350.16,1042.9c7.28,0,7.29-11.31,0-11.31S1342.87,1042.9,1350.16,1042.9Z"/><path class="cls-15" d="M1305.71,1032.71c7.28,0,7.29-11.31,0-11.31S1298.42,1032.71,1305.71,1032.71Z"/><path class="cls-15" d="M1337.2,1085.3c-7.28,0-7.29,11.32,0,11.32S1344.49,1085.3,1337.2,1085.3Z"/><path class="cls-15" d="M1412.21,1019.74c7.29,0,7.3-11.31,0-11.31S1404.92,1019.74,1412.21,1019.74Z"/><path class="cls-15" d="M1416.84,969.74c7.28,0,7.29-11.32,0-11.32S1409.55,969.74,1416.84,969.74Z"/><path class="cls-15" d="M1465,1014.92c-7.28,0-7.3,11.31,0,11.31S1472.29,1014.92,1465,1014.92Z"/><path class="cls-15" d="M788.92,1002.15c7.28,0,7.3-11.31,0-11.31S781.64,1002.15,788.92,1002.15Z"/><path class="cls-15" d="M761.14,1064c-7.28,0-7.29,11.31,0,11.31S768.43,1064,761.14,1064Z"/><path class="cls-15" d="M684.27,986.21a5.08,5.08,0,0,0-4.87,3.13c.44,2.33,1,4.64,1.5,7a5.17,5.17,0,0,0,3.37,1.22C691.55,997.52,691.56,986.21,684.27,986.21Z"/><path class="cls-15" d="M729.65,1039a3.72,3.72,0,0,0-1.73.42c-2.94,1.53-2.44,6.86,1.51,7.08.08,0,.14,0,.22,0C734.5,1046.57,734.51,1039,729.65,1039Z"/><path class="cls-15" d="M739.84,979c4.85,0,4.86-7.54,0-7.54S735,979,739.84,979Z"/><path class="cls-15" d="M843.56,1012.3c3.35,0,4.34-3.54,3.07-5.77a3.36,3.36,0,0,0-3.07-1.77,3.41,3.41,0,0,0-3.37,2.33C839.38,1009.3,840.5,1012.3,843.56,1012.3Z"/><path class="cls-15" d="M928.77,1052c-4.85,0-4.86,7.54,0,7.54S933.63,1052,928.77,1052Z"/><path class="cls-15" d="M976,1000.26c4.85,0,4.85-7.54,0-7.54S971.14,1000.26,976,1000.26Z"/><path class="cls-15" d="M1052.87,1029c4.86,0,4.87-7.55,0-7.55S1048,1029,1052.87,1029Z"/><path class="cls-15" d="M1068.62,1011.38c4.85,0,4.86-7.54,0-7.54S1063.76,1011.38,1068.62,1011.38Z"/><path class="cls-15" d="M1064.91,942.71c-4.85,0-4.86,7.54,0,7.54S1069.77,942.71,1064.91,942.71Z"/><path class="cls-15" d="M1125.11,1016c4.85,0,4.86-7.54,0-7.54S1120.25,1016,1125.11,1016Z"/><path class="cls-15" d="M1215.87,1028.05c4.86,0,4.86-7.54,0-7.54S1211,1028.05,1215.87,1028.05Z"/><path class="cls-15" d="M1254.77,979.89c4.85,0,4.86-7.54,0-7.54S1249.91,979.89,1254.77,979.89Z"/><path class="cls-15" d="M1301.89,1073.47a2.94,2.94,0,0,0-1.21-.78,2.9,2.9,0,0,0-1.46-.32l-1,.13a3.9,3.9,0,0,0-1.67,1l-.59.77a3.85,3.85,0,0,0-.52,1.9V1078a2.93,2.93,0,0,0,.33,1.46,2.81,2.81,0,0,0,.78,1.21,2.75,2.75,0,0,0,1.21.78,2.8,2.8,0,0,0,1.45.32l1-.13a3.73,3.73,0,0,0,1.66-1l.59-.76a3.77,3.77,0,0,0,.51-1.91v-1.85a2.78,2.78,0,0,0-.32-1.45A2.84,2.84,0,0,0,1301.89,1073.47Z"/><path class="cls-15" d="M1372.39,1005.82c4.85,0,4.86-7.54,0-7.54S1367.53,1005.82,1372.39,1005.82Z"/><path class="cls-15" d="M1403,1046.44c-4.86,0-4.87,7.54,0,7.54S1407.81,1046.44,1403,1046.44Z"/><path class="cls-15" d="M1449.26,992.86c4.85,0,4.86-7.55,0-7.55S1444.4,992.86,1449.26,992.86Z"/><path class="cls-15" d="M1485.38,959.51c4.85,0,4.86-7.54,0-7.54S1480.52,959.51,1485.38,959.51Z"/><path class="cls-16" d="M915.1,490.38c23.71,75.16,68.52,143.22,128.79,194.1a400.48,400.48,0,0,0,58.82,41.15A390.6,390.6,0,0,0,1154,750.41c6.77,2.66,9.71-8.27,3-10.91-11-4.34-21.79-9.28-32.32-14.66-55.68-28.42-104.15-70.79-140.61-121.51-47.51-66.09-73.76-145.42-77.92-226.54a467.88,467.88,0,0,1,10-122.61c1.51-7,3.12-13.9,4.93-20.79,1.85-7-9.06-10-10.91-3-2.29,8.7-4.28,17.48-6.08,26.3C888.39,333.92,891.33,415.08,915.1,490.38Z"/><path class="cls-16" d="M998.9,446.44c31.27,64.89,78.82,121.23,136.78,163.88a443.86,443.86,0,0,0,84.13,48.57c6.73,3,13.51,5.83,20.39,8.47,4.54,1.74,6.5-5.55,2-7.28-6.12-2.35-12.16-4.88-18.16-7.5a441.63,441.63,0,0,1-151-109.06c-49.21-54.71-83.52-121.76-100-193.43a438.28,438.28,0,0,1-11-103.66c.1-8,.35-15.91.87-23.86.33-4.84-7.21-4.82-7.53,0-.56,8.32-.83,16.65-.91,25A449.75,449.75,0,0,0,998.9,446.44Z"/><path class="cls-16" d="M833.93,468a556,556,0,0,0,7.41,65c.83,4.77,8.09,2.74,7.27-2a544.68,544.68,0,0,1,9.49-228.88c3.21-12.4,6.93-24.65,11-36.79,2.89-8.57,5.94-17.08,9.24-25.51,1.77-4.52-5.52-6.48-7.27-2q-5.82,14.84-10.73,30A552,552,0,0,0,833.93,468Z"/><path class="cls-16" d="M786.24,327.56c1.41-4.65-5.87-6.64-7.27-2a471.32,471.32,0,0,0-5.07,253.09q2.11,8.15,4.5,16.21c1.38,4.64,8.66,2.67,7.27-2-.43-1.47-.8-3-1.22-4.43A463.61,463.61,0,0,1,786.24,327.56Z"/><path class="cls-16" d="M828.27,290c.82-4.32,1.83-8.58,2.93-12.82a199.84,199.84,0,0,1,24.57-56.87c2.61-4.11-3.91-7.9-6.51-3.8a205.63,205.63,0,0,0-26.6,63.76c-.6,2.57-1.17,5.14-1.66,7.73C820.1,292.75,827.36,294.78,828.27,290Z"/><path class="cls-16" d="M677.67,328.66c2.1-2.47,4.19-5,6.34-7.39a342,342,0,0,1,47.75-44.88c0-.24.06-.51.12-.74a15,15,0,0,1,6.52-8.48l34.75-22.36c3.22-2.08,7.3-2.26,10.94-1.44a11.8,11.8,0,0,1,2.53.93c.38-.16.74-.35,1.11-.5,4.43-1.82,2.49-9.12-2-7.27-68.25,28-119.18,86-157.78,147.58a459.65,459.65,0,0,1,41.85-51.22A13.11,13.11,0,0,1,677.67,328.66Z"/><path class="cls-16" d="M546.16,594.19c-2.66,13.65-5,27.37-7.28,41.14-7.87,48.77-15.29,98-33.78,144.14-1.81,4.5,5.48,6.46,7.27,2,15.29-38.13,23.17-78.15,30-118.47A460,460,0,0,1,546.16,594.19Z"/><path class="cls-16" d="M275.44,1203.37c8.78-97.92,88.27-167.92,130.12-251.84,2.16-4.33-4.35-8.15-6.51-3.8-33.86,67.89-88.82,123.45-116.53,194.67a222.79,222.79,0,0,0-14.62,61C267.46,1208.2,275,1208.17,275.44,1203.37Z"/><path class="cls-16" d="M386.65,1034a422.81,422.81,0,0,0-61.53,217.06c0,4.85,7.51,4.85,7.54,0a415,415,0,0,1,60.51-213.25C395.69,1033.69,389.18,1029.9,386.65,1034Z"/><path class="cls-16" d="M424.2,1156.42l26.73-64.81c1.85-4.48-5.44-6.43-7.27-2q-13.37,32.4-26.74,64.81C415.08,1158.9,422.37,1160.85,424.2,1156.42Z"/><path class="cls-16" d="M788.5,268.53q-10.18,17.36-18.84,35.57c-17.56,36.69-30.87,75.55-41.39,114.79-15.08,56.23-24.46,113.77-36,170.8-5.65,27.93-11.81,55.74-19.42,83.2-11.7,42.2-28.31,83.77-56.86,117.53-3.12,3.69,2.19,9,5.33,5.33C672.6,735.1,687,653,701.93,577.37q2.05-10.47,4.09-21c14.84-76.32,29.5-153.2,59.6-225.21q7-16.67,15.12-32.83c14.65-29.08,32.21-56.68,53.33-81.52,3.13-3.68-2.17-9-5.33-5.33a395.45,395.45,0,0,0-34.42,47.33,13.64,13.64,0,0,1-.32,2A14.62,14.62,0,0,1,788.5,268.53Z"/><path class="cls-16" d="M765.94,283.18l-13.21,8.5a12.18,12.18,0,0,1-5.33,1.81,567.67,567.67,0,0,0-38,51.78c-59,90.55-92.78,196.45-107.44,303.56A1126.5,1126.5,0,0,0,592.25,771c-.13,4.86,7.41,4.85,7.54,0,3.77-138.26,30.51-278.53,101.53-398.85,8.6-14.56,17.87-28.69,27.68-42.43a553.79,553.79,0,0,1,36.78-46.23C765.86,283.36,765.87,283.26,765.94,283.18Z"/><path class="cls-16" d="M1111.09,452.33c61.26,70.12,141.66,119,208.53,183.12,35.75,34.27,67.58,73.07,87.88,118.57,2,4.42,8.48.59,6.51-3.81-36.38-81.55-107.36-139.16-175.57-193.43-36.6-29.13-73.41-58.32-105.87-92.15a515.83,515.83,0,0,1-77.71-105.08,519.64,519.64,0,0,1-48.2-118.27c-1.71-6.31-3.32-12.66-4.79-19-1.09-4.72-8.36-2.72-7.27,2,1.37,5.95,2.88,11.87,4.46,17.77A528.75,528.75,0,0,0,1111.09,452.33Z"/><path class="cls-16" d="M1487.57,823.83C1457.17,731,1407.33,646,1342.18,573.21c-65.55-73.19-142.81-134.79-208.33-208-33.19-37.09-64.76-78.38-77-127.33-.8-3.19-1.52-6.4-2.14-9.65-1.38-7.15-12.28-4.12-10.91,3,.47,2.43,1,4.83,1.57,7.22,10.07,43,34.92,80.76,62.87,114.45,31.32,37.74,66.59,72,102.1,105.77C1281.68,526.39,1354,593,1406.58,677A683.52,683.52,0,0,1,1474,819c.71,2.09,1.46,4.17,2.16,6.27,1.95,1.77,3.84,3.6,5.73,5.45a6.68,6.68,0,0,0,1.18-.07C1486.11,830.21,1488.81,827.62,1487.57,823.83Z"/><path class="cls-16" d="M1181.13,332.52C1219.57,366.93,1259.37,399.8,1298,434c76.11,67.54,149.7,139.31,207.68,223.4a726.56,726.56,0,0,1,42.53,69.49q9.58,18,18,36.48,4.35,9.57,8.36,19.3c1.38,3.39,8.6,16.14,5.77,19.5-4.38,5.19,2.34,12.57,7.07,8.9a5.56,5.56,0,0,0,.92-.9c6.41-7.59,3-16.67-.52-25-.66-1.55-1.32-3.08-1.93-4.56Q1578.93,763.65,1571,747a675.68,675.68,0,0,0-36.15-65.68c-26.42-42.37-57.1-82-90.22-119.36-71.32-80.37-153.92-149.42-235-219.51-36.49-31.54-73.08-64.64-98.25-106-3.43-5.66-6.67-11.45-9.65-17.43-3.25-6.52-13-.79-9.77,5.71,2,4,4.18,8,6.41,11.9C1119.42,273.52,1149.6,304.29,1181.13,332.52Z"/><path class="cls-16" d="M1264.43,307.5c43.42,32.71,86.83,65.48,128.53,100.37,75,62.74,144.93,133.34,194.53,218.12,2.87,4.91,5.7,9.85,8.44,14.85,26.92,49.32,46.25,102.69,54.44,158.39.7,4.78,8,2.75,7.27-2-9.91-67.41-36.06-130.75-71.73-188.36a683.52,683.52,0,0,0-56.9-78.48c-69.55-83.12-155.76-150.08-241.82-215.1q-51.45-38.86-103-77.62l-57.57-43.39c-3.87-2.92-7.64,3.62-3.8,6.51L1171,237.1Z"/><path class="cls-16" d="M1671.91,696.69a11.21,11.21,0,0,1-1.89,2.53c2.23,0,4.54-1.83,3.83-4.65-.14-.57-.31-1.14-.46-1.71,0,.15,0,.29-.05.44C1672.86,694.43,1672.38,695.56,1671.91,696.69Z"/><path class="cls-16" d="M1412.46,330.72c61.08,45.34,115.49,99.8,159.33,161.91,12.15,17.21,23.53,35,34,53.32a609.46,609.46,0,0,1,50.74,115.52c.51-.21,1-.45,1.52-.62a12.21,12.21,0,0,1,6.18-.23c-22.36-70.48-57.89-136.43-103-195.06q-9.42-12.27-19.37-24.13c-62.94-74.66-141.53-135.48-227.28-181.79-4.7-2.54-9.45-5-14.21-7.4-20-10.18-40.28-19.56-60.43-29.39-25.12-12.25-49.74-25.93-70.36-45-3.55-3.3-8.9,2-5.33,5.33,31.27,29,70.67,45.58,108.72,63.78,5.39,2.58,10.75,5.18,16.06,7.87A849.28,849.28,0,0,1,1412.46,330.72Z"/><path class="cls-16" d="M1210.52,164.93c33.88,21.46,74.71,25.67,112.63,36.1a552.65,552.65,0,0,1,100.94,38.83,576.57,576.57,0,0,1,171.17,131q17.38,19.47,32.84,40.53c-.1-.26-.19-.53-.28-.8a12.27,12.27,0,0,1,1.24-10.48,579.78,579.78,0,0,0-285.67-200.93c-20.79-6.52-42-11.22-63.17-16.17-23-5.37-45.79-11.81-65.89-24.54C1210.22,155.82,1206.43,162.34,1210.52,164.93Z"/><path class="cls-16" d="M1280.47,151.89c132.64,7.15,268,58.6,347.67,169.59A322.37,322.37,0,0,1,1674.85,415c2.12,6.94,13,4,10.9-3-18.68-61.13-55.77-115.44-103.33-157.83-51.62-46-114.82-77.2-181.38-95-39.37-10.52-79.91-16.4-120.57-18.59C1273.19,140.19,1273.21,151.5,1280.47,151.89Z"/><path class="cls-16" d="M479.48,1363.18a540.87,540.87,0,0,1,56.15-246.52c2.15-4.34-4.35-8.16-6.51-3.81a549.09,549.09,0,0,0-57.18,250.33C472,1368,479.54,1368,479.48,1363.18Z"/><path class="cls-16" d="M516.41,1367.09a895.31,895.31,0,0,0,43.34-225.74c.3-4.85-7.24-4.83-7.54,0a887.72,887.72,0,0,1-43.07,223.73C507.62,1369.7,514.89,1371.68,516.41,1367.09Z"/><path class="cls-16" d="M574,1367.56a610.77,610.77,0,0,0,40.83-212.27c0-4.85-7.49-4.85-7.55,0a604.6,604.6,0,0,1-40.55,210.26C565,1370.09,572.26,1372.05,574,1367.56Z"/><path class="cls-16" d="M670.64,1185a325.39,325.39,0,0,1-2.54,33q-.74,5.7-1.66,11.37a3.88,3.88,0,0,0,2.63,4.64c1.8.49,4.31-.62,4.64-2.64.41-2.47.75-5,1.1-7.44a338.51,338.51,0,0,0,3.38-38.94C678.32,1180.14,670.78,1180.15,670.64,1185Z"/><path class="cls-16" d="M717.2,1212.77c-.32-4.82-7.86-4.85-7.55,0a216.46,216.46,0,0,1-.77,35.57c-6.19,62.86-34.06,124.1-20.55,187.8,1,4.75,8.28,2.74,7.27-2-13-61.31,13.21-120.83,20.29-181.55A220.58,220.58,0,0,0,717.2,1212.77Z"/><path class="cls-16" d="M751.17,1233.38c1.12,12.84,1.8,25.7,2.19,38.57a677.65,677.65,0,0,1-10.7,143.36c-.87,4.75,6.39,6.78,7.27,2A687.81,687.81,0,0,0,761,1275.49c-.35-14-1.08-28.09-2.31-42.11C758.29,1228.58,750.74,1228.54,751.17,1233.38Z"/><path class="cls-16" d="M820.82,1271.52c-2.41,9.65-4.26,19.43-5.76,29.26a317,317,0,0,0-3.73,42.08c-.09,4.85,7.45,4.85,7.54,0a310.71,310.71,0,0,1,3.2-38.33,307.43,307.43,0,0,1,6-31C829.27,1268.82,822,1266.81,820.82,1271.52Z"/><path class="cls-16" d="M867,1283.41q-2,24.61-4,49.25-.94,11.67-1.88,23.33c-1.8,22.31-5.59,45.63.12,67.64,1.22,4.7,8.49,2.71,7.27-2-5.69-22-1.44-45.83.35-68.1q.55-6.93,1.12-13.87l4.53-56.25C875,1278.57,867.42,1278.59,867,1283.41Z"/><path class="cls-16" d="M925.64,1377.26q1.54-39.08,3.07-78.15c.19-4.85-7.35-4.84-7.54,0q-1.53,39.08-3.07,78.15C917.91,1382.12,925.45,1382.11,925.64,1377.26Z"/><path class="cls-16" d="M1263.81,1286.34c1.76,33.43,12.32,64.14,27.74,92.62,18.76,34.64,44.75,66,71.18,94.79,15,16.37,30.39,32.41,45.29,48.89,3.26,3.61,8.58-1.74,5.33-5.33-41-45.31-89.71-91.59-118.2-146.87-13.29-25.8-22.19-53.55-23.8-84.1C1271.1,1281.52,1263.55,1281.49,1263.81,1286.34Z"/><path class="cls-16" d="M1304.92,1272c3,18.43,12.1,34.8,21.33,50.75.25.43.53.85.78,1.28q14.58,25.08,30.66,49.23a967.83,967.83,0,0,0,71.14,93.65c3.17,3.68,8.48-1.67,5.33-5.34a949.42,949.42,0,0,1-70-92.12q-15.87-23.81-30.28-48.53l-1.32-2.27c-8.9-15.32-17.57-30.94-20.4-48.66C1311.43,1265.22,1304.16,1267.25,1304.92,1272Z"/><path class="cls-16" d="M1383,1243.91c1.77,12,4.13,23.94,6.8,35.77a486.08,486.08,0,0,0,53.58,137c2.43,4.2,8.94.41,6.5-3.8a480.23,480.23,0,0,1-53.2-136.9c-2.5-11.26-4.72-22.59-6.41-34C1389.51,1237.12,1382.25,1239.16,1383,1243.91Z"/><path class="cls-16" d="M1433.47,1197q4.8,26.4,12,52.28a609.12,609.12,0,0,0,72.16,163.58,616.6,616.6,0,0,0,37.55,52.83c3,3.81,8.32-1.56,5.33-5.33a601.13,601.13,0,0,1-104.75-202.2c-1.27-4.3-2.46-8.63-3.63-13q-6.72-24.84-11.34-50.2C1439.88,1190.18,1432.61,1192.2,1433.47,1197Z"/><path class="cls-16" d="M1498.59,1125.65q3.95,35.79,9.57,71.36a1568.21,1568.21,0,0,0,35.53,167.39c1.27,4.67,8.55,2.69,7.28-2a1563.11,1563.11,0,0,1-36.46-173.09q-4.83-31.72-8.37-63.65C1505.61,1120.88,1498.06,1120.83,1498.59,1125.65Z"/><path class="cls-16" d="M1576.18,1141.93c-1.06-4.74-8.33-2.73-7.27,2A378.39,378.39,0,0,0,1678.46,1336c3.53,3.32,8.87-2,5.33-5.33A371.38,371.38,0,0,1,1576.18,1141.93Z"/><path class="cls-16" d="M1639.37,1111.12c-1.77-4.45-9.07-2.51-7.27,2a1015.39,1015.39,0,0,0,96.1,184.44c2.66,4,9.2.26,6.51-3.81A1005.92,1005.92,0,0,1,1639.37,1111.12Z"/><path class="cls-16" d="M1678.78,1084.46a537.59,537.59,0,0,0,76.08,132.93c3,3.82,8.29-1.55,5.34-5.33a525.13,525.13,0,0,1-74.15-129.61C1684.29,1078,1677,1079.94,1678.78,1084.46Z"/><path class="cls-16" d="M1833.24,1196.94c3.63,3.2,9-2.12,5.34-5.34-44.32-39.11-89.77-81.31-111.86-137.53-1.75-4.47-9-2.52-7.27,2C1742.08,1113.67,1787.8,1156.83,1833.24,1196.94Z"/><path class="cls-1" d="M1075.11,223.17l.74.65c3.57,3.29,8.91-2,5.33-5.33-1.09-1-2.26-1.88-3.38-2.84.24,1,.52,1.93.75,2.91A3.73,3.73,0,0,1,1075.11,223.17Z"/><path class="cls-1" d="M1057.83,201.31c-47.59-28.09-109.09-27.5-162.78-24.83C820.17,180.21,744.83,194.06,677,227c-60.25,29.23-112.27,73.09-147.66,130.22C495.4,411.92,476.25,474.11,456.79,535c-19.53,61.16-39.63,123.39-75.71,177.14q-6.85,10.22-14.46,19.91c-3,3.78,2.34,9.15,5.33,5.33,79-100.64,90-233.33,146.44-345.17,14.21-28.17,31.42-54.87,52.68-78.27,22.51-24.77,48.91-45.78,77.54-63,63.31-38.14,136.13-57,209.22-64.16,39-3.81,79-5.83,118-2,21.89,2.16,43.92,6.83,64,15.73a136.54,136.54,0,0,1,25.83,14.89C1063.19,210.61,1060.61,205.9,1057.83,201.31Z"/><path class="cls-1" d="M1068.81,221.67c-.58-1.22-1.24-2.41-1.84-3.62-.77,1.38-1.59,2.71-2.32,4.13-2.21,4.31,4.29,8.13,6.51,3.8.45-.86.95-1.68,1.41-2.53A3,3,0,0,1,1068.81,221.67Z"/><path class="cls-1" d="M1077.62,214.92q3.08-4.81,6.52-9.33c24.29-31.89,61.25-53.09,97.65-68.76a408.7,408.7,0,0,1,152.08-33c97.27-2.12,192.37,32.53,263.91,98.77,37.52,34.74,67.85,77.22,87.36,124.57,1.82,4.43,9.12,2.49,7.27-2-35.69-86.65-105.9-157.16-191.19-195.56-96-43.24-208.5-43.52-306.46-6.12-44.57,17-91.54,41.76-119.69,81.58C1075.92,208.36,1076.81,211.63,1077.62,214.92Z"/><path class="cls-1" d="M1065.64,215.4c.45.88.9,1.76,1.33,2.65.6,1.21,1.26,2.4,1.84,3.62a3,3,0,0,0,3.76,1.78,4.06,4.06,0,0,0,1-.4,3.23,3.23,0,0,1-2.34-2.49c-1.62-6.7-3.4-13.36-5.17-20C1034.94,147.11,982,107.25,921.66,92.73c-4.71-1.13-6.73,6.14-2,7.28,57.46,13.82,107.66,51.06,138.17,101.3C1060.61,205.9,1063.19,210.61,1065.64,215.4Z"/><path class="cls-1" d="M1071.28,220.56a3.23,3.23,0,0,0,2.34,2.49,3.94,3.94,0,0,0,4.93-4.49c-.23-1-.51-1.94-.75-2.91-.06-.25-.13-.49-.18-.73-.81-3.29-1.7-6.56-2.55-9.85a915.36,915.36,0,0,0-31.51-99.27c-1.72-4.49-9-2.54-7.27,2a915.64,915.64,0,0,1,29.82,92.73C1067.88,207.2,1069.66,213.86,1071.28,220.56Z"/><path class="cls-1" d="M520.06,553.17c-.24-3.39-4-4.36-6.14-3a3.06,3.06,0,0,0-1.39,3c.1,1.45.09,2.89.16,4.34,1.32,26.33-2.78,51.88-10.38,76.58C490,674.17,468.58,712,446.55,747.23,410,805.7,368.66,861,331.79,919.27c-20.54,32.46-39.61,65.86-55.59,100.82-2,4.38,4.49,8.22,6.51,3.8,29.27-64,68.93-122.42,108.66-180.3C429.9,787.47,471.11,731,497.85,668c.34-.78.69-1.55,1-2.34C513.73,630.05,522.89,591.91,520.06,553.17Z"/><path class="cls-1" d="M462.58,1189.66c-3.64,6.76-7.28,13.7-10.82,20.79-28.28,56.55-50.42,122.77-17,181.62,2.4,4.21,8.91.42,6.51-3.81-16.75-29.46-18.72-61-12.93-92,6.72-36.06,23.91-71.58,40.72-102.75C471.4,1189.2,464.89,1185.39,462.58,1189.66Z"/><path class="cls-1" d="M644,1347.38c3.77-15.31,6.22-33,16.66-45.49,3.11-3.69-2.21-9.06-5.33-5.33-6.5,7.76-10.12,16.86-12.87,26.32-1.48,5.11-2.72,10.32-4,15.49-4.45,17.93-8.81,35.89-12.49,54-7.23,35.54-11.77,71.79-9.18,108.09.34,4.81,7.88,4.85,7.54,0-2.41-33.82,1.4-67.51,7.86-100.69.2-1,.37-2,.57-3C636.07,1380.19,640,1363.76,644,1347.38Z"/><path class="cls-1" d="M1448.76,1445c.62.86,1.31,1.67,2,2.51a261,261,0,0,0,92.65,77.43c4.33,2.15,8.16-4.35,3.81-6.51a254.71,254.71,0,0,1-68.24-49.55,250.19,250.19,0,0,1-23.66-27.68C1452.44,1437.35,1445.89,1441.11,1448.76,1445Z"/><path class="cls-1" d="M1559.94,1262.45a171.32,171.32,0,0,0,13.24,23c35.15,51.86,94.93,89.7,104.9,154.8.74,4.78,8,2.75,7.27-2-5.38-35.21-25-62.46-47.47-88.16-25.63-29.3-55-56.61-71.42-91.43C1564.39,1254.25,1557.88,1258.08,1559.94,1262.45Z"/><path class="cls-1" d="M1692.64,451.09c22.78,52.59,12.7,111.13,8.68,166.26a434,434,0,0,0-.3,60.44,381.77,381.77,0,0,0,18.88,96.92,387.17,387.17,0,0,0,37.61,80.1c2.55,4.12,9.08.34,6.52-3.81a379.78,379.78,0,0,1-53.48-149.82c-3.54-27-3.78-54.22-1.87-81.4,2-28.7,5.74-57.32,5.89-86.12a258.18,258.18,0,0,0-3.6-46,178.53,178.53,0,0,0-11.82-40.35C1697.23,442.84,1690.73,446.68,1692.64,451.09Z"/><path class="cls-1" d="M1728.53,1021.72c7,3.4,13.78,7.07,20.49,10.92a352.56,352.56,0,0,1,128.93,128c2.44,4.2,9,.4,6.51-3.81a359.48,359.48,0,0,0-151.23-141.16l-.9-.47C1728,1013.08,1724.16,1019.58,1728.53,1021.72Z"/><path class="cls-1" d="M899.23,619.87c-.77,8.28-1.24,16.59-1.52,24.9a433.09,433.09,0,0,0,5.67,87c.8,4.77,8,2.71,7.24-2A422.88,422.88,0,0,1,905,659.06c0-10.88.43-21.76,1.28-32.6.21,1.06.41,2.11.61,3.17a402.44,402.44,0,0,0,5.23,48.64c4.65,26.5,12.7,52.18,26.49,75.85,2.47,4.17,9,.4,6.54-3.82a192.71,192.71,0,0,1-13.88-29.38,256.35,256.35,0,0,1-13.37-54,216.66,216.66,0,0,0,97.89,110.91c4.28,2.31,8.09-4.22,3.82-6.54A208.7,208.7,0,0,1,926.48,667.9a244.86,244.86,0,0,1-23.44-51C901.78,617.9,900.52,618.9,899.23,619.87Z"/><path class="cls-1" d="M901.83,603.41v0l-.07.08Z"/><path class="cls-1" d="M1277.05,763.62c2.86,3.92,9.39.15,6.53-3.77a178.35,178.35,0,0,1-20-35.7,193.89,193.89,0,0,0,29.36,31.58c2.76,2.41,6.51-.1,6.53-2.84a376.87,376.87,0,0,1-44.79-37.65c-.44,1-.93,2-1.39,3.07A179.78,179.78,0,0,0,1277.05,763.62Z"/><path class="cls-1" d="M747,615.61A290,290,0,0,0,760,658a286.84,286.84,0,0,0,24.25,48c2.61,4.08,9.15.3,6.54-3.82a279,279,0,0,1-32.54-72.91A69.56,69.56,0,0,1,747,615.61Z"/><path class="cls-1" d="M744.66,611.68q-4.62,13.8-9.37,27.59c-2.59,46-20.89,89.89-34,134.45a377.48,377.48,0,0,0-9.64,39.43c-.9,4.72,6.39,6.78,7.24,2,3.59-19.79,9.34-39.27,15.51-58.7,9.91-31.16,20.94-62.17,26-94,1.32,10.94,3.06,21.81,5.14,32.63a468.52,468.52,0,0,0,20.9,74.81c1.71,4.53,9,2.57,7.29-2a463.22,463.22,0,0,1-24.52-97,468.52,468.52,0,0,1-4.54-59.06Z"/><path class="cls-16" d="M642.37,835.38C684.83,776,711.62,708,735.29,639.27q4.76-13.78,9.37-27.59l0,.08c.71,1.31,1.48,2.59,2.27,3.85a69.56,69.56,0,0,0,11.3,13.61c13.38,12.55,31.53,20.38,49.88,22.38,33.28,3.62,64.94-12,91.08-31.73,1.29-1,2.55-2,3.81-3a244.86,244.86,0,0,0,23.44,51A263.12,263.12,0,0,0,1007,751.14a250.51,250.51,0,0,0,82.74,35.27c32.66,7.25,67.76,8.74,99-4.73a126.84,126.84,0,0,0,64.54-63.37c.46-1,1-2,1.39-3.07-1.25-1.24-2.55-2.42-3.77-3.68-3.31-3.42-1-8,2.33-9.32a5.83,5.83,0,0,0-7,3.68c-9.83,27.06-30.32,49.47-55.88,62.55-29.06,14.87-62.82,14.22-94.11,7.79-55.06-11.32-104.93-42.84-140.48-86.15a235.4,235.4,0,0,1-44.37-84.32c-1.25-4.34-6.25-5.19-9.45-2.49l-.14.11h0l-.08.06h0c-25,21-56.41,39.37-90.16,37.12-27.38-1.82-55.21-19.34-61.86-47.06-1.37-5.71-9.23-5-10.91,0-27.37,82-55.48,165.19-106.22,236.14a4.63,4.63,0,0,0,.73,6.56,6.34,6.34,0,0,0,1.85,1.13A5.88,5.88,0,0,0,642.37,835.38Z"/><path class="cls-16" d="M1451.67,862.84c2.7,2.72,5.42,5.42,8,8.27,15.93,17.44,29.36,37.25,38.08,59.27.09.22.21.4.31.6a126.53,126.53,0,0,0-9.9-28.2,157.56,157.56,0,0,0-30.27-42.86,160.16,160.16,0,0,0-38.16-29.48q-6-3.44-12.2-6.44c-1.77-.86-3.57-1.68-5.36-2.5l-.07,0C1419.65,834,1436.41,847.46,1451.67,862.84Z"/><path class="cls-16" d="M1258.9,703.56a5,5,0,0,0-5.67-1.32c-3.37,1.32-5.64,5.9-2.33,9.32,1.22,1.26,2.52,2.44,3.77,3.68a376.87,376.87,0,0,0,44.79,37.65c8.09,5.87,16.33,11.53,24.67,17.07a200.17,200.17,0,0,1,20.35.06c-8.23-5.34-16.38-10.71-24.34-16.15C1298.28,738.9,1277.35,722.62,1258.9,703.56Z"/><path class="cls-17" d="M430.47,879a17.61,17.61,0,0,0,1.88,1.4c9.66,5.66,19.63,1.39,25.79-6.76-1.68,2.22,1.07-1.23,1.61-1.85,1.18-1.36,2.41-2.69,3.67-4a90.54,90.54,0,0,1,8.73-7.87c.39-.26,2.14-1.51,2.61-1.83,1.49-1,3-2,4.55-2.92a109,109,0,0,1,10.34-5.53l1.93-.88.23-.09c1.69-.65,3.39-1.29,5.12-1.87q5.61-1.92,11.39-3.28,3.12-.74,6.27-1.31l2.71-.46c.06,0,.62-.09,1.1-.16l1.16-.12,2.74-.25q3.21-.25,6.43-.35,5.5-.17,11,.15c1.83.1,3.66.27,5.48.43l1,.1,2.19.32a137,137,0,0,1,24,6.42c.84.31,3.65,1.39,4.08,1.53s3.15,1.41,4,1.8c1.08.51,2.12,1.12,3.19,1.66h0c2.69,1.34,5.39,2.66,8,4.15,1.86,1.06,3.64,2.25,5.45,3.38s3.6,2.14,5.33,3.31,3.23,2.21,4.82,3.35c.53.38,3.12,2.34,3.53,2.63,2.1,1.67,4.1,3.48,6.13,5.24,4.81,4.17,9.5,8.49,13.9,13.08q5.13,5.34,9.87,11c3.56,4.25,4,4.81,6.69,8.53-10.19,32.91-10.43,67.81-2.17,101.83a228.5,228.5,0,0,0,12.44,36.9c11.87,27.36,29.07,52.76,50.26,73.13,20.5,19.7,45,32.78,71.51,40.47a219.44,219.44,0,0,0,43.37,7.87,216.53,216.53,0,0,0,61.59-3.72c21.43-4.48,41-15.78,59.63-26.76,35.76-21,64.27-55.92,81.52-93.38a222.14,222.14,0,0,0,13.56-37.9,192.33,192.33,0,0,1,20.51-6.23c4.91-1.18,9.84-2.09,14.81-3,2.39-.42,5.82-.8,9.79-1.13l1.26-.11c3.38-.26,6.64-.34,9.9-.42a173.27,173.27,0,0,1,41.35,3.71c.67,3.52,1.4,7,2.25,10.54,10,41,32.21,80.73,62.69,110,31.35,30.12,72,44.84,114.89,48.34a216.55,216.55,0,0,0,61.59-3.72c21.43-4.48,40.95-15.78,59.62-26.76,20.52-12.07,38.64-28.71,53.63-47.77q3.64-4.65,7-9.48a230.16,230.16,0,0,0,20.85-36.13,227.74,227.74,0,0,0,11-28.85c9.43-31,11.8-63.79,3.89-95.74A169.49,169.49,0,0,0,1527,897.5a165.2,165.2,0,0,1,40-28.83,121.1,121.1,0,0,1,16.61-7.52c2.08-.74,4.32-1.49,6.93-2.32,4.51-1.43,9.09-2.66,13.7-3.68q3-.66,6-1.2c1.34-.24,2.67-.46,4-.66-1.32.15-1.31.15,0,0a141.41,141.41,0,0,1,27-.63,102.3,102.3,0,0,1,23.55,4.29c15.8,4.45,31.07,12.52,42.8,23a20.75,20.75,0,0,0,13.12,5.33,18.1,18.1,0,0,0,13.55-5.33c6.9-6.91,7.61-19.84,0-26.66a152.17,152.17,0,0,0-55.36-31.42,154.53,154.53,0,0,0-64.64-6.32,185.3,185.3,0,0,0-27.2,5.34c-28.84,7.9-55.33,22.57-78.15,42.21a201,201,0,0,0-22.43-27.76c-1.51-1.57-3-3.1-4.6-4.62-1.89-1.85-3.78-3.68-5.73-5.45-3.23-2.91-6.49-5.79-9.88-8.47a216.21,216.21,0,0,0-111.55-46c-3.4-.37-6.81-.61-10.22-.8a200.17,200.17,0,0,0-20.35-.06,211.19,211.19,0,0,0-47.11,7.79,218.82,218.82,0,0,0-43.47,17.52c-1.46.78-2.84,1.69-4.27,2.51a15.36,15.36,0,0,0-1.58.77c-.56.36-1.09.77-1.65,1.13a198.14,198.14,0,0,0-17.86,11.86,25.85,25.85,0,0,0-5.46,5.6c-22.18,19-40.84,42.47-53.06,68.79a178.76,178.76,0,0,0-16.5,74.39,219.43,219.43,0,0,0-38-2.35q-5.64.13-11.26.55a210.21,210.21,0,0,0-38.82,6.53,165.85,165.85,0,0,0-4.65-45.31c-10-40.42-35.48-77.21-68-102.92a216.24,216.24,0,0,0-111.56-46c-41.48-4.5-84.47,4.85-121.15,24.45-1.46.78-2.83,1.69-4.26,2.51a14.58,14.58,0,0,0-1.59.77c-.56.36-1.09.77-1.64,1.13a196.74,196.74,0,0,0-17.86,11.86,25.89,25.89,0,0,0-5.47,5.6,216.5,216.5,0,0,0-27.31,28.1,202.32,202.32,0,0,0-17.18,24.61,232,232,0,0,0-28.21-27c-1.63-1.32-3.26-2.63-4.93-3.9a192.57,192.57,0,0,0-35.73-21.45c-2.27-1-4.51-2.12-6.84-3.08-2.55-1-5.13-2-7.73-2.91-33.64-11.68-71.08-11.11-104,2.8a124,124,0,0,0-21.44,11.61,126.58,126.58,0,0,0-30,28.68c-5,6.58-2.69,16.24,2.61,22.22A18.72,18.72,0,0,0,430.47,879ZM1401,821c-.7-.3-1.57-.71,0,0ZM1171,949.06q.26-3.7.65-7.4c0,.05.13-1,.21-1.62s.22-1.45.22-1.42c.82-4.47,1.72-8.91,2.91-13.3,4.55-16.84,10.66-29.27,20.9-44.57a135,135,0,0,1,14.18-18.19,199.23,199.23,0,0,1,19-18.54c1.47-1.26,3-2.49,4.47-3.71a12.49,12.49,0,0,0,1.1-.93c.06,0,.29-.18,1.17-.81,3.19-2.3,6.43-4.51,9.73-6.66,1.44-.85,2.82-1.78,4.28-2.59q5.91-3.29,12-6.14a101.77,101.77,0,0,1,10.86-4.48,197,197,0,0,1,26-7.52l1.44-.3a130.21,130.21,0,0,1,23.41-3.11,190.25,190.25,0,0,1,27,.35c1,.09,2.07.19,3.1.3l2.85.31,4.13.64q6.79,1.15,13.5,2.81a190.9,190.9,0,0,1,24.38,7.78c.88.34,1.75.69,2.62,1l1,.45.07,0c1.79.82,3.59,1.64,5.36,2.5q6.21,3,12.2,6.44a160.16,160.16,0,0,1,38.16,29.48,157.56,157.56,0,0,1,30.27,42.86,126.53,126.53,0,0,1,9.9,28.2q1.26,5.6,2,11.27.89,6.6,1.1,13.27a145.71,145.71,0,0,1-2.86,33.85c-.89,4.4-2,8.8-3.24,13.16a166.57,166.57,0,0,1-8.77,23.72c-2.5,5.34-5.3,10.54-8.23,15.65-1.57,2.74-3.13,5.5-4.82,8.16a180.33,180.33,0,0,1-14.26,19.76,193.91,193.91,0,0,1-19.61,20.41c-12.37,11-29.13,20.54-45.46,28.72-15.19,7.61-31.79,11-48.2,11.91-18.79,1.05-35.41-.18-52.07-3.92-18.06-4.06-31.34-8.94-46.51-18.69-13.07-8.4-26.84-22-36.62-34.9a231.26,231.26,0,0,1-15-22.79c-2.11-3.71-4.13-7.49-6-11.31-2-4-4-8.45-5.09-11.08a211.6,211.6,0,0,1-8.87-27.34q-1.53-6.18-2.67-12.46a98.75,98.75,0,0,1-1.59-11.79A176.82,176.82,0,0,1,1171,949.06ZM907.26,821c-.7-.3-1.56-.71,0,0Zm-230,128.11c.16-2.47.39-4.94.64-7.4,0,.05.13-1,.21-1.62s.23-1.45.22-1.42c.82-4.47,1.73-8.91,2.91-13.3a135.34,135.34,0,0,1,17.58-39.46c1.06-1.68,2.16-3.37,3.33-5.11a135,135,0,0,1,14.18-18.19,198,198,0,0,1,19-18.54c1.48-1.26,3-2.49,4.47-3.71a14.47,14.47,0,0,0,1.11-.93c.05,0,.28-.18,1.16-.81q4.8-3.45,9.73-6.66c1.44-.85,2.82-1.78,4.29-2.59q5.89-3.29,12-6.14A102.63,102.63,0,0,1,779,818.7a197,197,0,0,1,26-7.52,133.08,133.08,0,0,1,24.85-3.41,190.25,190.25,0,0,1,27,.35l3.11.3,2.84.31,4.14.64q6.79,1.15,13.49,2.81A191.55,191.55,0,0,1,904.78,820c.87.34,1.75.69,2.61,1l1.05.49c1.8.82,3.59,1.64,5.36,2.5q6.23,3,12.2,6.44a159.76,159.76,0,0,1,38.16,29.48,157.56,157.56,0,0,1,30.27,42.86c15.35,31.22,16.71,66.22,6.92,99.75a165.36,165.36,0,0,1-8.77,23.72,212.28,212.28,0,0,1-13.05,23.81,179,179,0,0,1-14.26,19.76,191.9,191.9,0,0,1-19.61,20.41c-12.37,11-29.12,20.54-45.46,28.72-15.19,7.61-31.79,11-48.2,11.91a185,185,0,0,1-52.07-3.92c-18-4.06-31.34-8.94-46.51-18.69-2-1.27-4-2.69-6-4.18a163.24,163.24,0,0,1-30.64-30.72,229.47,229.47,0,0,1-14.95-22.79c-2.12-3.71-4.13-7.49-6-11.31-2-4-4.05-8.45-5.1-11.08a211.56,211.56,0,0,1-8.86-27.34c-.37-1.5-.64-3-1-4.53-.52-2.32-1.06-4.63-1.5-7-.06-.33-.15-.65-.2-1a98.86,98.86,0,0,1-1.6-11.79A178.06,178.06,0,0,1,677.27,949.06Z"/><path class="cls-18" d="M570.72,664.75a431.13,431.13,0,0,1,1.52-48.91A443.56,443.56,0,0,1,643,412.11,422.21,422.21,0,0,1,689.87,353c10.13-10.69-.94-25.81-12.2-24.3a13.11,13.11,0,0,0-7.87,4.23A459.65,459.65,0,0,0,628,384.11c-41.77,59.2-69.82,128.13-80.48,199.84-.5,3.41-.87,6.83-1.31,10.24A460,460,0,0,0,542.33,663c0,.58,0,1.17,0,1.75.23,8.89,7.11,13.43,14,13.66C563.64,678.65,571,674.13,570.72,664.75Z"/><path class="cls-18" d="M773.15,244.81,738.4,267.17a15,15,0,0,0-6.52,8.48c-.06.23-.07.5-.12.74a14.36,14.36,0,0,0,1.55,10.2c2,3,4.86,5.7,8.48,6.52a17,17,0,0,0,5.61.38,12.18,12.18,0,0,0,5.33-1.81l13.21-8.5,21.53-13.86c.37-.24.69-.53,1-.79a14.62,14.62,0,0,0,5.5-7.7,13.64,13.64,0,0,0,.32-2,14.2,14.2,0,0,0-1.75-9,15.76,15.76,0,0,0-6-5.6,11.8,11.8,0,0,0-2.53-.93C780.45,242.55,776.37,242.73,773.15,244.81Z"/><path class="cls-18" d="M1627.82,410.54c.09.27.18.54.28.8a475,475,0,0,1,28.69,193.91c-.46,7.66,6.86,14.19,14.2,14.19,8.07,0,13.72-6.51,14.19-14.19a496.17,496.17,0,0,0-30-202.25c-2.67-7.18-9.61-12.07-17.46-9.91a15,15,0,0,0-8.67,7A12.27,12.27,0,0,0,1627.82,410.54Z"/><path class="cls-18" d="M1658,660.85c-.53.17-1,.41-1.52.62a14.28,14.28,0,0,0-7,5.91,40,40,0,0,0-3,6.78,21.5,21.5,0,0,0-1,4,39.67,39.67,0,0,0-.66,7.52c.1,1.85.41,3.7.68,5.52a20.86,20.86,0,0,0,.41,2.09,15.79,15.79,0,0,0,6.53,8.48,10.53,10.53,0,0,0,5.27,1.69,10.8,10.8,0,0,0,5.66-.26,16,16,0,0,0,6.6-4,11.21,11.21,0,0,0,1.89-2.53c.47-1.13.95-2.26,1.43-3.39,0-.15,0-.29.05-.44a14.27,14.27,0,0,0-.05-7.11l0-.21c0-.55,0-1.1,0-1.66s.27-1,.43-1.56l.32-.62a13.76,13.76,0,0,0-1.11-15.76,10.86,10.86,0,0,0-4-3.66,17.25,17.25,0,0,0-4.76-1.66A12.21,12.21,0,0,0,1658,660.85Z"/><path class="cls-18" d="M799.58,1855.5c.74,4,1.54,8.07,2.48,12.06,1.71,7.23,10.36,12.21,17.46,9.91a14.42,14.42,0,0,0,10.1-16.13,12.16,12.16,0,0,0-.19-1.33c-1.21-5.16-2.27-10.37-3.11-15.61-.19-1.2-.46-2.42-.54-3.63.26,3.43-.13-1-.21-1.7q-.45-4-.77-7.92c-.52-6.69-.68-13.4-.57-20.1.07-3.91.2-7.82.47-11.72.52-7.43-6.89-14.52-14.19-14.2-8.13.37-13.64,6.25-14.19,14.2-.12,1.76-.18,3.52-.26,5.28A227.26,227.26,0,0,0,799.58,1855.5Z"/><path class="cls-18" d="M873.18,1930a12.73,12.73,0,0,0-10.48-2.79,10.49,10.49,0,0,0-5.28,1.68l-2.87,2.22c-.16.16-.26.36-.41.52a14.06,14.06,0,0,0-3.24,5.74l-.51,3.78a14.07,14.07,0,0,0,1.94,7.16l7.46,12.4a10.7,10.7,0,0,0,3.41,3.78,2.43,2.43,0,0,0,.25.2,10.67,10.67,0,0,0,4.82,2.55,10.8,10.8,0,0,0,5.66.25,10.39,10.39,0,0,0,1.85-.33,10.82,10.82,0,0,0,3.43-1.35l2.87-2.22a14.21,14.21,0,0,0,3.65-6.27l.51-3.77a14.07,14.07,0,0,0-1.94-7.16l-5.65-9.39-1.81-3A10.78,10.78,0,0,0,873.18,1930Z"/></svg>